%TF.GenerationSoftware,KiCad,Pcbnew,9.0.6*%
%TF.CreationDate,2025-11-21T06:24:55-05:00*%
%TF.ProjectId,sch,7363682e-6b69-4636-9164-5f7063625858,1.0*%
%TF.SameCoordinates,Original*%
%TF.FileFunction,Soldermask,Top*%
%TF.FilePolarity,Negative*%
%FSLAX46Y46*%
G04 Gerber Fmt 4.6, Leading zero omitted, Abs format (unit mm)*
G04 Created by KiCad (PCBNEW 9.0.6) date 2025-11-21 06:24:55*
%MOMM*%
%LPD*%
G01*
G04 APERTURE LIST*
G04 Aperture macros list*
%AMRoundRect*
0 Rectangle with rounded corners*
0 $1 Rounding radius*
0 $2 $3 $4 $5 $6 $7 $8 $9 X,Y pos of 4 corners*
0 Add a 4 corners polygon primitive as box body*
4,1,4,$2,$3,$4,$5,$6,$7,$8,$9,$2,$3,0*
0 Add four circle primitives for the rounded corners*
1,1,$1+$1,$2,$3*
1,1,$1+$1,$4,$5*
1,1,$1+$1,$6,$7*
1,1,$1+$1,$8,$9*
0 Add four rect primitives between the rounded corners*
20,1,$1+$1,$2,$3,$4,$5,0*
20,1,$1+$1,$4,$5,$6,$7,0*
20,1,$1+$1,$6,$7,$8,$9,0*
20,1,$1+$1,$8,$9,$2,$3,0*%
G04 Aperture macros list end*
%ADD10RoundRect,0.150000X-0.587500X-0.150000X0.587500X-0.150000X0.587500X0.150000X-0.587500X0.150000X0*%
%ADD11R,1.700000X1.700000*%
%ADD12C,1.700000*%
%ADD13RoundRect,1.000000X0.500000X0.000010X-0.500000X0.000010X-0.500000X-0.000010X0.500000X-0.000010X0*%
%ADD14RoundRect,0.150000X0.587500X0.150000X-0.587500X0.150000X-0.587500X-0.150000X0.587500X-0.150000X0*%
%ADD15RoundRect,0.100000X-0.100000X0.217500X-0.100000X-0.217500X0.100000X-0.217500X0.100000X0.217500X0*%
%ADD16RoundRect,0.100000X0.100000X-0.217500X0.100000X0.217500X-0.100000X0.217500X-0.100000X-0.217500X0*%
%ADD17RoundRect,0.225000X0.375000X-0.225000X0.375000X0.225000X-0.375000X0.225000X-0.375000X-0.225000X0*%
%ADD18RoundRect,0.225000X-0.375000X0.225000X-0.375000X-0.225000X0.375000X-0.225000X0.375000X0.225000X0*%
%ADD19RoundRect,0.100000X-0.217500X-0.100000X0.217500X-0.100000X0.217500X0.100000X-0.217500X0.100000X0*%
%ADD20RoundRect,0.100000X0.217500X0.100000X-0.217500X0.100000X-0.217500X-0.100000X0.217500X-0.100000X0*%
%ADD21C,1.500000*%
%ADD22RoundRect,0.250000X-0.550000X0.550000X-0.550000X-0.550000X0.550000X-0.550000X0.550000X0.550000X0*%
%ADD23C,1.600000*%
G04 APERTURE END LIST*
D10*
%TO.C,Q5*%
X125793500Y-61473000D03*
X125793500Y-63373000D03*
X127668500Y-62423000D03*
%TD*%
D11*
%TO.C,J3*%
X65080000Y-152718050D03*
D12*
X67620000Y-152718050D03*
X70160000Y-152718050D03*
X72700000Y-152718050D03*
X75240000Y-152718050D03*
X77780000Y-152718050D03*
X80320000Y-152718050D03*
X82860000Y-152718050D03*
%TD*%
D13*
%TO.C,LS1*%
X139978500Y-53975000D03*
X139978500Y-48895000D03*
%TD*%
D14*
%TO.C,Q4*%
X133383500Y-50124000D03*
X133383500Y-48224000D03*
X131508500Y-49174000D03*
%TD*%
D15*
%TO.C,R5*%
X72700000Y-148728050D03*
X72700000Y-149543050D03*
%TD*%
%TO.C,R17*%
X128587500Y-50317000D03*
X128587500Y-51132000D03*
%TD*%
D16*
%TO.C,R9*%
X75240000Y-156935550D03*
X75240000Y-156120550D03*
%TD*%
D17*
%TO.C,D2*%
X140525500Y-62356000D03*
X140525500Y-59056000D03*
%TD*%
D14*
%TO.C,Q3*%
X126809500Y-50185000D03*
X126809500Y-48285000D03*
X124934500Y-49235000D03*
%TD*%
D18*
%TO.C,D1*%
X137858500Y-59056000D03*
X137858500Y-62356000D03*
%TD*%
D15*
%TO.C,R7*%
X67620000Y-148778850D03*
X67620000Y-149593850D03*
%TD*%
D19*
%TO.C,R22*%
X124445500Y-60010000D03*
X125260500Y-60010000D03*
%TD*%
D15*
%TO.C,R1*%
X82860000Y-148728050D03*
X82860000Y-149543050D03*
%TD*%
D20*
%TO.C,R15*%
X131889500Y-54229000D03*
X131074500Y-54229000D03*
%TD*%
D11*
%TO.C,J8*%
X132715000Y-108585000D03*
D12*
X135255000Y-108585000D03*
X137795000Y-108585000D03*
X140335000Y-108585000D03*
%TD*%
D19*
%TO.C,C4*%
X60806500Y-113665000D03*
X61621500Y-113665000D03*
%TD*%
D11*
%TO.C,J5*%
X109220000Y-57785000D03*
D12*
X109220000Y-60325000D03*
X109220000Y-62865000D03*
X109220000Y-65405000D03*
X109220000Y-67945000D03*
%TD*%
D19*
%TO.C,R14*%
X124624000Y-54229000D03*
X125439000Y-54229000D03*
%TD*%
D11*
%TO.C,J1*%
X48895000Y-126365000D03*
D12*
X51435000Y-126365000D03*
X53975000Y-126365000D03*
X56515000Y-126365000D03*
X59055000Y-126365000D03*
X61595000Y-126365000D03*
X64135000Y-126365000D03*
X66675000Y-126365000D03*
X69215000Y-126365000D03*
X71755000Y-126365000D03*
X74295000Y-126365000D03*
X76835000Y-126365000D03*
X79375000Y-126365000D03*
X81915000Y-126365000D03*
X84455000Y-126365000D03*
X86995000Y-126365000D03*
X89535000Y-126365000D03*
X92075000Y-126365000D03*
X94615000Y-126365000D03*
X97155000Y-126365000D03*
X99695000Y-126365000D03*
X102235000Y-126365000D03*
X104775000Y-126365000D03*
X107315000Y-126365000D03*
X109855000Y-126365000D03*
X112395000Y-126365000D03*
X114935000Y-126365000D03*
X117475000Y-126365000D03*
%TD*%
D15*
%TO.C,R19*%
X135064500Y-47217500D03*
X135064500Y-48032500D03*
%TD*%
D11*
%TO.C,J4*%
X45720000Y-52705000D03*
D12*
X45720000Y-55245000D03*
X45720000Y-57785000D03*
X45720000Y-60325000D03*
X45720000Y-62865000D03*
X45720000Y-65405000D03*
X45720000Y-67945000D03*
X45720000Y-70485000D03*
X45720000Y-73025000D03*
%TD*%
D15*
%TO.C,R8*%
X65080000Y-148728050D03*
X65080000Y-149543050D03*
%TD*%
D11*
%TO.C,J2*%
X48895000Y-108585000D03*
D12*
X51435000Y-108585000D03*
X53975000Y-108585000D03*
X56515000Y-108585000D03*
X59055000Y-108585000D03*
X61595000Y-108585000D03*
X64135000Y-108585000D03*
X66675000Y-108585000D03*
X69215000Y-108585000D03*
X71755000Y-108585000D03*
X74295000Y-108585000D03*
X76835000Y-108585000D03*
X79375000Y-108585000D03*
X81915000Y-108585000D03*
X84455000Y-108585000D03*
X86995000Y-108585000D03*
X89535000Y-108585000D03*
X92075000Y-108585000D03*
X94615000Y-108585000D03*
X97155000Y-108585000D03*
X99695000Y-108585000D03*
X102235000Y-108585000D03*
X104775000Y-108585000D03*
X107315000Y-108585000D03*
X109855000Y-108585000D03*
X112395000Y-108585000D03*
X114935000Y-108585000D03*
X117475000Y-108585000D03*
%TD*%
D10*
%TO.C,Q2*%
X132427500Y-55692000D03*
X132427500Y-57592000D03*
X134302500Y-56642000D03*
%TD*%
D16*
%TO.C,R12*%
X82860000Y-156935550D03*
X82860000Y-156120550D03*
%TD*%
D11*
%TO.C,J6*%
X126050000Y-100012500D03*
D12*
X128590000Y-100012500D03*
X131130000Y-100012500D03*
X133670000Y-100012500D03*
%TD*%
D15*
%TO.C,R4*%
X75240000Y-148728050D03*
X75240000Y-149543050D03*
%TD*%
D16*
%TO.C,R10*%
X77780000Y-156909450D03*
X77780000Y-156094450D03*
%TD*%
D11*
%TO.C,J7*%
X135255000Y-126365000D03*
D12*
X137795000Y-126365000D03*
X140335000Y-126365000D03*
%TD*%
D21*
%TO.C,R23*%
X115775000Y-155702000D03*
X119175000Y-155702000D03*
%TD*%
D20*
%TO.C,R13*%
X113997000Y-62865000D03*
X113182000Y-62865000D03*
%TD*%
D13*
%TO.C,RV1*%
X117150000Y-147557500D03*
X117150000Y-142557500D03*
X117150000Y-137557500D03*
%TD*%
D20*
%TO.C,C3*%
X123272500Y-100012500D03*
X122457500Y-100012500D03*
%TD*%
D15*
%TO.C,R2*%
X80320000Y-148728050D03*
X80320000Y-149543050D03*
%TD*%
D16*
%TO.C,R11*%
X80320000Y-156936650D03*
X80320000Y-156121650D03*
%TD*%
D15*
%TO.C,R6*%
X70160000Y-148726950D03*
X70160000Y-149541950D03*
%TD*%
%TO.C,R18*%
X128587500Y-47217500D03*
X128587500Y-48032500D03*
%TD*%
D20*
%TO.C,C5*%
X64542500Y-111506000D03*
X63727500Y-111506000D03*
%TD*%
D19*
%TO.C,R24*%
X121561500Y-155702000D03*
X122376500Y-155702000D03*
%TD*%
D10*
%TO.C,Q6*%
X132222000Y-61407000D03*
X132222000Y-63307000D03*
X134097000Y-62357000D03*
%TD*%
%TO.C,Q1*%
X125823500Y-55692000D03*
X125823500Y-57592000D03*
X127698500Y-56642000D03*
%TD*%
D16*
%TO.C,R16*%
X135064500Y-51105500D03*
X135064500Y-50290500D03*
%TD*%
D19*
%TO.C,C2*%
X45693500Y-50038000D03*
X46508500Y-50038000D03*
%TD*%
D15*
%TO.C,R3*%
X77780000Y-148728050D03*
X77780000Y-149543050D03*
%TD*%
D22*
%TO.C,C1*%
X119697500Y-53711349D03*
D23*
X119697500Y-56211349D03*
%TD*%
D19*
%TO.C,R21*%
X131022500Y-59944000D03*
X131837500Y-59944000D03*
%TD*%
M02*
