M48
; DRILL file {KiCad 9.0.6} date 2025-11-21T06:24:57-0500
; FORMAT={-:-/ absolute / metric / decimal}
; #@! TF.CreationDate,2025-11-21T06:24:57-05:00
; #@! TF.GenerationSoftware,Kicad,Pcbnew,9.0.6
; #@! TF.FileFunction,Plated,1,2,PTH
FMAT,2
METRIC
; #@! TA.AperFunction,Plated,PTH,ViaDrill
T1C0.300
; #@! TA.AperFunction,Plated,PTH,ComponentDrill
T2C0.800
; #@! TA.AperFunction,Plated,PTH,ComponentDrill
T3C1.000
; #@! TA.AperFunction,Plated,PTH,ComponentDrill
T4C1.100
%
G90
G05
T1
X48.895Y-69.532
X50.165Y-65.405
X51.435Y-67.945
X52.705Y-57.785
X53.975Y-62.865
X55.245Y-60.325
X56.825Y-76.517
X84.455Y-85.09
X86.995Y-87.63
X116.649Y-60.01
X121.031Y-111.506
X121.031Y-113.665
X121.666Y-119.38
X127.254Y-58.42
X128.588Y-51.816
X130.238Y-59.944
X133.35Y-58.42
X133.925Y-53.015
T2
X115.775Y-155.702
X119.175Y-155.702
X119.697Y-53.711
X119.697Y-56.211
T3
X45.72Y-52.705
X45.72Y-55.245
X45.72Y-57.785
X45.72Y-60.325
X45.72Y-62.865
X45.72Y-65.405
X45.72Y-67.945
X45.72Y-70.485
X45.72Y-73.025
X48.895Y-108.585
X48.895Y-126.365
X51.435Y-108.585
X51.435Y-126.365
X53.975Y-108.585
X53.975Y-126.365
X56.515Y-108.585
X56.515Y-126.365
X59.055Y-108.585
X59.055Y-126.365
X61.595Y-108.585
X61.595Y-126.365
X64.135Y-108.585
X64.135Y-126.365
X65.08Y-152.718
X66.675Y-108.585
X66.675Y-126.365
X67.62Y-152.718
X69.215Y-108.585
X69.215Y-126.365
X70.16Y-152.718
X71.755Y-108.585
X71.755Y-126.365
X72.7Y-152.718
X74.295Y-108.585
X74.295Y-126.365
X75.24Y-152.718
X76.835Y-108.585
X76.835Y-126.365
X77.78Y-152.718
X79.375Y-108.585
X79.375Y-126.365
X80.32Y-152.718
X81.915Y-108.585
X81.915Y-126.365
X82.86Y-152.718
X84.455Y-108.585
X84.455Y-126.365
X86.995Y-108.585
X86.995Y-126.365
X89.535Y-108.585
X89.535Y-126.365
X92.075Y-108.585
X92.075Y-126.365
X94.615Y-108.585
X94.615Y-126.365
X97.155Y-108.585
X97.155Y-126.365
X99.695Y-108.585
X99.695Y-126.365
X102.235Y-108.585
X102.235Y-126.365
X104.775Y-108.585
X104.775Y-126.365
X107.315Y-108.585
X107.315Y-126.365
X109.22Y-57.785
X109.22Y-60.325
X109.22Y-62.865
X109.22Y-65.405
X109.22Y-67.945
X109.855Y-108.585
X109.855Y-126.365
X112.395Y-108.585
X112.395Y-126.365
X114.935Y-108.585
X114.935Y-126.365
X117.475Y-108.585
X117.475Y-126.365
X126.05Y-100.012
X128.59Y-100.012
X131.13Y-100.012
X132.715Y-108.585
X133.67Y-100.012
X135.255Y-108.585
X135.255Y-126.365
X137.795Y-108.585
X137.795Y-126.365
X140.335Y-108.585
X140.335Y-126.365
T4
X117.15Y-137.558
X117.15Y-142.558
X117.15Y-147.558
X139.978Y-48.895
X139.978Y-53.975
M30
