%TF.GenerationSoftware,KiCad,Pcbnew,9.0.6*%
%TF.CreationDate,2025-11-21T06:24:55-05:00*%
%TF.ProjectId,sch,7363682e-6b69-4636-9164-5f7063625858,1.0*%
%TF.SameCoordinates,Original*%
%TF.FileFunction,Copper,L2,Bot*%
%TF.FilePolarity,Positive*%
%FSLAX46Y46*%
G04 Gerber Fmt 4.6, Leading zero omitted, Abs format (unit mm)*
G04 Created by KiCad (PCBNEW 9.0.6) date 2025-11-21 06:24:55*
%MOMM*%
%LPD*%
G01*
G04 APERTURE LIST*
G04 Aperture macros list*
%AMRoundRect*
0 Rectangle with rounded corners*
0 $1 Rounding radius*
0 $2 $3 $4 $5 $6 $7 $8 $9 X,Y pos of 4 corners*
0 Add a 4 corners polygon primitive as box body*
4,1,4,$2,$3,$4,$5,$6,$7,$8,$9,$2,$3,0*
0 Add four circle primitives for the rounded corners*
1,1,$1+$1,$2,$3*
1,1,$1+$1,$4,$5*
1,1,$1+$1,$6,$7*
1,1,$1+$1,$8,$9*
0 Add four rect primitives between the rounded corners*
20,1,$1+$1,$2,$3,$4,$5,0*
20,1,$1+$1,$4,$5,$6,$7,0*
20,1,$1+$1,$6,$7,$8,$9,0*
20,1,$1+$1,$8,$9,$2,$3,0*%
G04 Aperture macros list end*
%TA.AperFunction,ComponentPad*%
%ADD10R,1.700000X1.700000*%
%TD*%
%TA.AperFunction,ComponentPad*%
%ADD11C,1.700000*%
%TD*%
%TA.AperFunction,ComponentPad*%
%ADD12RoundRect,1.000000X0.500000X0.000010X-0.500000X0.000010X-0.500000X-0.000010X0.500000X-0.000010X0*%
%TD*%
%TA.AperFunction,ComponentPad*%
%ADD13C,1.500000*%
%TD*%
%TA.AperFunction,ComponentPad*%
%ADD14RoundRect,0.250000X-0.550000X0.550000X-0.550000X-0.550000X0.550000X-0.550000X0.550000X0.550000X0*%
%TD*%
%TA.AperFunction,ComponentPad*%
%ADD15C,1.600000*%
%TD*%
%TA.AperFunction,SMDPad,CuDef*%
%ADD16RoundRect,0.100000X-0.100000X0.217500X-0.100000X-0.217500X0.100000X-0.217500X0.100000X0.217500X0*%
%TD*%
%TA.AperFunction,SMDPad,CuDef*%
%ADD17RoundRect,0.150000X-0.587500X-0.150000X0.587500X-0.150000X0.587500X0.150000X-0.587500X0.150000X0*%
%TD*%
%TA.AperFunction,ViaPad*%
%ADD18C,0.600000*%
%TD*%
%TA.AperFunction,Conductor*%
%ADD19C,0.200000*%
%TD*%
G04 APERTURE END LIST*
D10*
%TO.P,J3,1,Pin_1*%
%TO.N,Net-(J3-Pin_1)*%
X65080000Y-152718050D03*
D11*
%TO.P,J3,2,Pin_2*%
%TO.N,Net-(J3-Pin_2)*%
X67620000Y-152718050D03*
%TO.P,J3,3,Pin_3*%
%TO.N,Net-(J3-Pin_3)*%
X70160000Y-152718050D03*
%TO.P,J3,4,Pin_4*%
%TO.N,Net-(J3-Pin_4)*%
X72700000Y-152718050D03*
%TO.P,J3,5,Pin_5*%
%TO.N,Net-(J3-Pin_5)*%
X75240000Y-152718050D03*
%TO.P,J3,6,Pin_6*%
%TO.N,Net-(J3-Pin_6)*%
X77780000Y-152718050D03*
%TO.P,J3,7,Pin_7*%
%TO.N,Net-(J3-Pin_7)*%
X80320000Y-152718050D03*
%TO.P,J3,8,Pin_8*%
%TO.N,Net-(J3-Pin_8)*%
X82860000Y-152718050D03*
%TD*%
D12*
%TO.P,LS1,1,1*%
%TO.N,SPKR_A*%
X139978500Y-53975000D03*
%TO.P,LS1,2,2*%
%TO.N,SPKR_B*%
X139978500Y-48895000D03*
%TD*%
D10*
%TO.P,J8,1,PBOOT*%
%TO.N,unconnected-(J8-PBOOT-Pad1)*%
X132715000Y-108585000D03*
D11*
%TO.P,J8,2,PSWCLK*%
%TO.N,unconnected-(J8-PSWCLK-Pad2)*%
X135255000Y-108585000D03*
%TO.P,J8,3,PGND*%
%TO.N,GND*%
X137795000Y-108585000D03*
%TO.P,J8,4,PSWD*%
%TO.N,unconnected-(J8-PSWD-Pad4)*%
X140335000Y-108585000D03*
%TD*%
D10*
%TO.P,J5,1,Pin_1*%
%TO.N,SD_SPI_CSn*%
X109220000Y-57785000D03*
D11*
%TO.P,J5,2,Pin_2*%
%TO.N,SD_SPI_HOPI*%
X109220000Y-60325000D03*
%TO.P,J5,3,Pin_3*%
%TO.N,SD_SPI_HIPO*%
X109220000Y-62865000D03*
%TO.P,J5,4,Pin_4*%
%TO.N,SD_SPI_SCK*%
X109220000Y-65405000D03*
%TO.P,J5,5,Pin_5*%
%TO.N,unconnected-(J5-Pin_5-Pad5)*%
X109220000Y-67945000D03*
%TD*%
D10*
%TO.P,J1,1,Pin_1*%
%TO.N,+5V*%
X48895000Y-126365000D03*
D11*
%TO.P,J1,2,Pin_2*%
%TO.N,+3.3V*%
X51435000Y-126365000D03*
%TO.P,J1,3,Pin_3*%
%TO.N,STDIO_UART_HOPI*%
X53975000Y-126365000D03*
%TO.P,J1,4,Pin_4*%
%TO.N,STDIO_UART_HIPO*%
X56515000Y-126365000D03*
%TO.P,J1,5,Pin_5*%
%TO.N,KP_ROW_0*%
X59055000Y-126365000D03*
%TO.P,J1,6,Pin_6*%
%TO.N,KP_ROW_1*%
X61595000Y-126365000D03*
%TO.P,J1,7,Pin_7*%
%TO.N,KP_ROW_2*%
X64135000Y-126365000D03*
%TO.P,J1,8,Pin_8*%
%TO.N,KP_ROW_3*%
X66675000Y-126365000D03*
%TO.P,J1,9,Pin_9*%
%TO.N,KP_COL_0*%
X69215000Y-126365000D03*
%TO.P,J1,10,Pin_10*%
%TO.N,KP_COL_1*%
X71755000Y-126365000D03*
%TO.P,J1,11,Pin_11*%
%TO.N,KP_COL_2*%
X74295000Y-126365000D03*
%TO.P,J1,12,Pin_12*%
%TO.N,KP_COL_3*%
X76835000Y-126365000D03*
%TO.P,J1,13,Pin_13*%
%TO.N,unconnected-(J1-Pin_13-Pad13)*%
X79375000Y-126365000D03*
%TO.P,J1,14,Pin_14*%
%TO.N,unconnected-(J1-Pin_14-Pad14)*%
X81915000Y-126365000D03*
%TO.P,J1,15,Pin_15*%
%TO.N,unconnected-(J1-Pin_15-Pad15)*%
X84455000Y-126365000D03*
%TO.P,J1,16,Pin_16*%
%TO.N,unconnected-(J1-Pin_16-Pad16)*%
X86995000Y-126365000D03*
%TO.P,J1,17,Pin_17*%
%TO.N,unconnected-(J1-Pin_17-Pad17)*%
X89535000Y-126365000D03*
%TO.P,J1,18,Pin_18*%
%TO.N,unconnected-(J1-Pin_18-Pad18)*%
X92075000Y-126365000D03*
%TO.P,J1,19,Pin_19*%
%TO.N,unconnected-(J1-Pin_19-Pad19)*%
X94615000Y-126365000D03*
%TO.P,J1,20,Pin_20*%
%TO.N,unconnected-(J1-Pin_20-Pad20)*%
X97155000Y-126365000D03*
%TO.P,J1,21,Pin_21*%
%TO.N,unconnected-(J1-Pin_21-Pad21)*%
X99695000Y-126365000D03*
%TO.P,J1,22,Pin_22*%
%TO.N,unconnected-(J1-Pin_22-Pad22)*%
X102235000Y-126365000D03*
%TO.P,J1,23,Pin_23*%
%TO.N,unconnected-(J1-Pin_23-Pad23)*%
X104775000Y-126365000D03*
%TO.P,J1,24,Pin_24*%
%TO.N,unconnected-(J1-Pin_24-Pad24)*%
X107315000Y-126365000D03*
%TO.P,J1,25,Pin_25*%
%TO.N,unconnected-(J1-Pin_25-Pad25)*%
X109855000Y-126365000D03*
%TO.P,J1,26,Pin_26*%
%TO.N,unconnected-(J1-Pin_26-Pad26)*%
X112395000Y-126365000D03*
%TO.P,J1,27,Pin_27*%
%TO.N,GPS_UART_HOPI*%
X114935000Y-126365000D03*
%TO.P,J1,28,Pin_28*%
%TO.N,GND*%
X117475000Y-126365000D03*
%TD*%
D10*
%TO.P,J4,1,Pin_1*%
%TO.N,+3.3V*%
X45720000Y-52705000D03*
D11*
%TO.P,J4,2,Pin_2*%
%TO.N,GND*%
X45720000Y-55245000D03*
%TO.P,J4,3,Pin_3*%
%TO.N,TFT_SPI_CSn*%
X45720000Y-57785000D03*
%TO.P,J4,4,Pin_4*%
%TO.N,TFT_RST*%
X45720000Y-60325000D03*
%TO.P,J4,5,Pin_5*%
%TO.N,TFT_DC-RS*%
X45720000Y-62865000D03*
%TO.P,J4,6,Pin_6*%
%TO.N,TFT_SPI_HOPI*%
X45720000Y-65405000D03*
%TO.P,J4,7,Pin_7*%
%TO.N,TFT_SPI_SCK*%
X45720000Y-67945000D03*
%TO.P,J4,8,Pin_8*%
%TO.N,Net-(J4-Pin_8)*%
X45720000Y-70485000D03*
%TO.P,J4,9,Pin_9*%
%TO.N,TFT_SPI_HIPO*%
X45720000Y-73025000D03*
%TD*%
D10*
%TO.P,J2,1,Pin_1*%
%TO.N,+5V*%
X48895000Y-108585000D03*
D11*
%TO.P,J2,2,Pin_2*%
%TO.N,+3.3V*%
X51435000Y-108585000D03*
%TO.P,J2,3,Pin_3*%
%TO.N,unconnected-(J2-Pin_3-Pad3)*%
X53975000Y-108585000D03*
%TO.P,J2,4,Pin_4*%
%TO.N,unconnected-(J2-Pin_4-Pad4)*%
X56515000Y-108585000D03*
%TO.P,J2,5,Pin_5*%
%TO.N,unconnected-(J2-Pin_5-Pad5)*%
X59055000Y-108585000D03*
%TO.P,J2,6,Pin_6*%
%TO.N,VOL_POT*%
X61595000Y-108585000D03*
%TO.P,J2,7,Pin_7*%
%TO.N,LDR*%
X64135000Y-108585000D03*
%TO.P,J2,8,Pin_8*%
%TO.N,unconnected-(J2-Pin_8-Pad8)*%
X66675000Y-108585000D03*
%TO.P,J2,9,Pin_9*%
%TO.N,unconnected-(J2-Pin_9-Pad9)*%
X69215000Y-108585000D03*
%TO.P,J2,10,Pin_10*%
%TO.N,unconnected-(J2-Pin_10-Pad10)*%
X71755000Y-108585000D03*
%TO.P,J2,11,Pin_11*%
%TO.N,unconnected-(J2-Pin_11-Pad11)*%
X74295000Y-108585000D03*
%TO.P,J2,12,Pin_12*%
%TO.N,unconnected-(J2-Pin_12-Pad12)*%
X76835000Y-108585000D03*
%TO.P,J2,13,Pin_13*%
%TO.N,AUD_PWM_B*%
X79375000Y-108585000D03*
%TO.P,J2,14,Pin_14*%
%TO.N,AUD_PWM_A*%
X81915000Y-108585000D03*
%TO.P,J2,15,Pin_15*%
%TO.N,SD_SPI_HOPI*%
X84455000Y-108585000D03*
%TO.P,J2,16,Pin_16*%
%TO.N,SD_SPI_SCK*%
X86995000Y-108585000D03*
%TO.P,J2,17,Pin_17*%
%TO.N,SD_SPI_CSn*%
X89535000Y-108585000D03*
%TO.P,J2,18,Pin_18*%
%TO.N,SD_SPI_HIPO*%
X92075000Y-108585000D03*
%TO.P,J2,19,Pin_19*%
%TO.N,TFT_SPI_HOPI*%
X94615000Y-108585000D03*
%TO.P,J2,20,Pin_20*%
%TO.N,TFT_SPI_SCK*%
X97155000Y-108585000D03*
%TO.P,J2,21,Pin_21*%
%TO.N,TFT_SPI_CSn*%
X99695000Y-108585000D03*
%TO.P,J2,22,Pin_22*%
%TO.N,TFT_DC-RS*%
X102235000Y-108585000D03*
%TO.P,J2,23,Pin_23*%
%TO.N,TFT_RST*%
X104775000Y-108585000D03*
%TO.P,J2,24,Pin_24*%
%TO.N,TFT_BACKLIT_LED*%
X107315000Y-108585000D03*
%TO.P,J2,25,Pin_25*%
%TO.N,GPS_UART_HIPO*%
X109855000Y-108585000D03*
%TO.P,J2,26,Pin_26*%
%TO.N,unconnected-(J2-Pin_26-Pad26)*%
X112395000Y-108585000D03*
%TO.P,J2,27,Pin_27*%
%TO.N,unconnected-(J2-Pin_27-Pad27)*%
X114935000Y-108585000D03*
%TO.P,J2,28,Pin_28*%
%TO.N,GND*%
X117475000Y-108585000D03*
%TD*%
D10*
%TO.P,J6,1,Pin_1*%
%TO.N,+3.3V*%
X126050000Y-100012500D03*
D11*
%TO.P,J6,2,Pin_2*%
%TO.N,GPS_UART_HOPI*%
X128590000Y-100012500D03*
%TO.P,J6,3,Pin_3*%
%TO.N,GPS_UART_HIPO*%
X131130000Y-100012500D03*
%TO.P,J6,4,Pin_4*%
%TO.N,GND*%
X133670000Y-100012500D03*
%TD*%
D10*
%TO.P,J7,1,TX*%
%TO.N,STDIO_UART_HIPO*%
X135255000Y-126365000D03*
D11*
%TO.P,J7,2,GND*%
%TO.N,GND*%
X137795000Y-126365000D03*
%TO.P,J7,3,RX*%
%TO.N,STDIO_UART_HOPI*%
X140335000Y-126365000D03*
%TD*%
D13*
%TO.P,R23,1*%
%TO.N,+3.3V*%
X115775000Y-155702000D03*
%TO.P,R23,2*%
%TO.N,LDR*%
X119175000Y-155702000D03*
%TD*%
D12*
%TO.P,RV1,1,1*%
%TO.N,GND*%
X117150000Y-147557500D03*
%TO.P,RV1,2,2*%
%TO.N,VOL_POT*%
X117150000Y-142557500D03*
%TO.P,RV1,3,3*%
%TO.N,+3.3V*%
X117150000Y-137557500D03*
%TD*%
D14*
%TO.P,C1,1*%
%TO.N,+5V*%
X119697500Y-53711349D03*
D15*
%TO.P,C1,2*%
%TO.N,GND*%
X119697500Y-56211349D03*
%TD*%
D16*
%TO.P,R20,1*%
%TO.N,Net-(Q7-B)*%
X56825000Y-73570000D03*
%TO.P,R20,2*%
%TO.N,TFT_BACKLIT_LED*%
X56825000Y-74385000D03*
%TD*%
D17*
%TO.P,Q7,1,B*%
%TO.N,Net-(Q7-B)*%
X52712500Y-71437500D03*
%TO.P,Q7,2,E*%
%TO.N,+3.3V*%
X52712500Y-69537500D03*
%TO.P,Q7,3,C*%
%TO.N,Net-(J4-Pin_8)*%
X54587500Y-70487500D03*
%TD*%
D18*
%TO.N,+3.3V*%
X121666000Y-119380000D03*
X48895000Y-69532500D03*
%TO.N,TFT_BACKLIT_LED*%
X56825000Y-76517500D03*
%TO.N,TFT_DC-RS*%
X53975000Y-62865000D03*
%TO.N,TFT_RST*%
X55245000Y-60325000D03*
%TO.N,TFT_SPI_SCK*%
X51435000Y-67945000D03*
%TO.N,TFT_SPI_CSn*%
X52705000Y-57785000D03*
%TO.N,TFT_SPI_HOPI*%
X50165000Y-65405000D03*
%TO.N,SD_SPI_HOPI*%
X84455000Y-85090000D03*
%TO.N,SD_SPI_SCK*%
X86995000Y-87630000D03*
%TO.N,SPKR_A*%
X133924640Y-53014660D03*
X128587500Y-51816000D03*
%TO.N,AUD_PWM_B*%
X130238500Y-59944000D03*
%TO.N,AUD_PWM_A*%
X116649500Y-60010000D03*
%TO.N,VOL_POT*%
X121031000Y-113665000D03*
%TO.N,GND*%
X133350000Y-58420000D03*
X127254000Y-58420000D03*
%TO.N,LDR*%
X121031000Y-111506000D03*
%TD*%
D19*
%TO.N,+3.3V*%
X48900000Y-69537500D02*
X48895000Y-69532500D01*
X51435000Y-126365000D02*
X56197500Y-131127500D01*
X53015000Y-69537500D02*
X48900000Y-69537500D01*
X110720000Y-131127500D02*
X117150000Y-137557500D01*
X121666000Y-119380000D02*
X121666000Y-133041500D01*
X56197500Y-131127500D02*
X110720000Y-131127500D01*
X121666000Y-133041500D02*
X117150000Y-137557500D01*
%TO.N,+5V*%
X48895000Y-126365000D02*
X48895000Y-108585000D01*
X105156000Y-52324000D02*
X117150000Y-52324000D01*
X48895000Y-108585000D02*
X105156000Y-52324000D01*
X118537349Y-53711349D02*
X119697500Y-53711349D01*
X117150000Y-52324000D02*
X118537349Y-53711349D01*
%TO.N,TFT_BACKLIT_LED*%
X56825000Y-74385000D02*
X56825000Y-76517500D01*
%TO.N,TFT_DC-RS*%
X45720000Y-62865000D02*
X53975000Y-62865000D01*
%TO.N,TFT_RST*%
X45720000Y-60325000D02*
X55245000Y-60325000D01*
%TO.N,TFT_SPI_SCK*%
X45720000Y-67945000D02*
X51435000Y-67945000D01*
%TO.N,TFT_SPI_CSn*%
X45720000Y-57785000D02*
X52705000Y-57785000D01*
%TO.N,TFT_SPI_HOPI*%
X45720000Y-65405000D02*
X50165000Y-65405000D01*
%TO.N,SD_SPI_HOPI*%
X84455000Y-108585000D02*
X84455000Y-85090000D01*
%TO.N,SD_SPI_SCK*%
X86995000Y-87630000D02*
X86995000Y-108585000D01*
%TO.N,SD_SPI_CSn*%
X89535000Y-77470000D02*
X89535000Y-108585000D01*
X109220000Y-57785000D02*
X89535000Y-77470000D01*
%TO.N,SD_SPI_HIPO*%
X109220000Y-62865000D02*
X92075000Y-80010000D01*
X92075000Y-80010000D02*
X92075000Y-108585000D01*
%TO.N,GPS_UART_HIPO*%
X120269000Y-98171000D02*
X129288500Y-98171000D01*
X129288500Y-98171000D02*
X131130000Y-100012500D01*
X109855000Y-108585000D02*
X120269000Y-98171000D01*
%TO.N,GPS_UART_HOPI*%
X114935000Y-114927500D02*
X114935000Y-126365000D01*
X128590000Y-101272500D02*
X114935000Y-114927500D01*
X128590000Y-100012500D02*
X128590000Y-101272500D01*
%TO.N,SPKR_A*%
X129730500Y-52959000D02*
X128587500Y-51816000D01*
X133924640Y-53014660D02*
X133868980Y-52959000D01*
X133868980Y-52959000D02*
X129730500Y-52959000D01*
%TO.N,AUD_PWM_B*%
X79375000Y-108585000D02*
X79375000Y-80010000D01*
X79375000Y-80010000D02*
X105918000Y-53467000D01*
X129095500Y-61087000D02*
X130238500Y-59944000D01*
X116268500Y-53467000D02*
X117411500Y-54610000D01*
X117411500Y-54610000D02*
X117411500Y-58928000D01*
X116268500Y-53467000D02*
X105918000Y-53467000D01*
X117411500Y-58928000D02*
X119570500Y-61087000D01*
X119570500Y-61087000D02*
X129095500Y-61087000D01*
%TO.N,AUD_PWM_A*%
X116649500Y-60010000D02*
X116461500Y-60010000D01*
X116014500Y-55245000D02*
X115506500Y-54737000D01*
X116014500Y-59563000D02*
X116014500Y-55245000D01*
X106553000Y-54737000D02*
X81915000Y-79375000D01*
X81915000Y-79375000D02*
X81915000Y-108585000D01*
X116461500Y-60010000D02*
X116014500Y-59563000D01*
X106553000Y-54737000D02*
X115506500Y-54737000D01*
%TO.N,VOL_POT*%
X122936000Y-114935000D02*
X122936000Y-136771500D01*
X121666000Y-113665000D02*
X122936000Y-114935000D01*
X121031000Y-113665000D02*
X121666000Y-113665000D01*
X122936000Y-136771500D02*
X117150000Y-142557500D01*
%TO.N,GND*%
X127254000Y-58420000D02*
X125045349Y-56211349D01*
X125045349Y-56211349D02*
X119697500Y-56211349D01*
X133350000Y-58420000D02*
X131141349Y-56211349D01*
X131141349Y-56211349D02*
X125045349Y-56211349D01*
%TO.N,LDR*%
X121031000Y-111506000D02*
X124206000Y-114681000D01*
X124206000Y-150671000D02*
X119175000Y-155702000D01*
X124206000Y-114681000D02*
X124206000Y-150671000D01*
%TO.N,Net-(Q7-B)*%
X56825000Y-72707500D02*
X56825000Y-73570000D01*
X52712500Y-71437500D02*
X55555000Y-71437500D01*
X55555000Y-71437500D02*
X56825000Y-72707500D01*
%TO.N,Net-(J4-Pin_8)*%
X45720000Y-70485000D02*
X51427500Y-70485000D01*
X51430000Y-70487500D02*
X51427500Y-70485000D01*
X54890000Y-70487500D02*
X51430000Y-70487500D01*
%TD*%
M02*
