%TF.GenerationSoftware,KiCad,Pcbnew,9.0.6*%
%TF.CreationDate,2025-11-21T06:24:55-05:00*%
%TF.ProjectId,sch,7363682e-6b69-4636-9164-5f7063625858,1.0*%
%TF.SameCoordinates,Original*%
%TF.FileFunction,Legend,Top*%
%TF.FilePolarity,Positive*%
%FSLAX46Y46*%
G04 Gerber Fmt 4.6, Leading zero omitted, Abs format (unit mm)*
G04 Created by KiCad (PCBNEW 9.0.6) date 2025-11-21 06:24:55*
%MOMM*%
%LPD*%
G01*
G04 APERTURE LIST*
%ADD10C,0.500000*%
%ADD11C,0.300000*%
%ADD12C,0.250000*%
%ADD13C,0.200000*%
%ADD14C,0.150000*%
%ADD15C,0.100000*%
%ADD16C,0.120000*%
G04 APERTURE END LIST*
D10*
X114681000Y-131826000D02*
X144526000Y-131826000D01*
X144526000Y-160020000D01*
X114681000Y-160020000D01*
X114681000Y-131826000D01*
X114617500Y-44450000D02*
X144462500Y-44450000D01*
X144462500Y-66040000D01*
X114617500Y-66040000D01*
X114617500Y-44450000D01*
X42545000Y-85090000D02*
X112395000Y-85090000D01*
X112395000Y-160020000D01*
X42545000Y-160020000D01*
X42545000Y-85090000D01*
X44450000Y-105410000D02*
X144780000Y-105410000D01*
X144780000Y-129540000D01*
X44450000Y-129540000D01*
X44450000Y-105410000D01*
X114610000Y-68199000D02*
X144455000Y-68199000D01*
X144455000Y-102997000D01*
X114610000Y-102997000D01*
X114610000Y-68199000D01*
X42545000Y-44450000D02*
X112395000Y-44450000D01*
X112395000Y-82677000D01*
X42545000Y-82677000D01*
X42545000Y-44450000D01*
D11*
X78752917Y-50417257D02*
X78752917Y-47417257D01*
X78752917Y-47417257D02*
X79467203Y-47417257D01*
X79467203Y-47417257D02*
X79895774Y-47560114D01*
X79895774Y-47560114D02*
X80181489Y-47845828D01*
X80181489Y-47845828D02*
X80324346Y-48131542D01*
X80324346Y-48131542D02*
X80467203Y-48702971D01*
X80467203Y-48702971D02*
X80467203Y-49131542D01*
X80467203Y-49131542D02*
X80324346Y-49702971D01*
X80324346Y-49702971D02*
X80181489Y-49988685D01*
X80181489Y-49988685D02*
X79895774Y-50274400D01*
X79895774Y-50274400D02*
X79467203Y-50417257D01*
X79467203Y-50417257D02*
X78752917Y-50417257D01*
X81752917Y-50417257D02*
X81752917Y-47417257D01*
X83038631Y-50274400D02*
X83467203Y-50417257D01*
X83467203Y-50417257D02*
X84181488Y-50417257D01*
X84181488Y-50417257D02*
X84467203Y-50274400D01*
X84467203Y-50274400D02*
X84610060Y-50131542D01*
X84610060Y-50131542D02*
X84752917Y-49845828D01*
X84752917Y-49845828D02*
X84752917Y-49560114D01*
X84752917Y-49560114D02*
X84610060Y-49274400D01*
X84610060Y-49274400D02*
X84467203Y-49131542D01*
X84467203Y-49131542D02*
X84181488Y-48988685D01*
X84181488Y-48988685D02*
X83610060Y-48845828D01*
X83610060Y-48845828D02*
X83324345Y-48702971D01*
X83324345Y-48702971D02*
X83181488Y-48560114D01*
X83181488Y-48560114D02*
X83038631Y-48274400D01*
X83038631Y-48274400D02*
X83038631Y-47988685D01*
X83038631Y-47988685D02*
X83181488Y-47702971D01*
X83181488Y-47702971D02*
X83324345Y-47560114D01*
X83324345Y-47560114D02*
X83610060Y-47417257D01*
X83610060Y-47417257D02*
X84324345Y-47417257D01*
X84324345Y-47417257D02*
X84752917Y-47560114D01*
X86038631Y-50417257D02*
X86038631Y-47417257D01*
X86038631Y-47417257D02*
X87181488Y-47417257D01*
X87181488Y-47417257D02*
X87467203Y-47560114D01*
X87467203Y-47560114D02*
X87610060Y-47702971D01*
X87610060Y-47702971D02*
X87752917Y-47988685D01*
X87752917Y-47988685D02*
X87752917Y-48417257D01*
X87752917Y-48417257D02*
X87610060Y-48702971D01*
X87610060Y-48702971D02*
X87467203Y-48845828D01*
X87467203Y-48845828D02*
X87181488Y-48988685D01*
X87181488Y-48988685D02*
X86038631Y-48988685D01*
X90467203Y-50417257D02*
X89038631Y-50417257D01*
X89038631Y-50417257D02*
X89038631Y-47417257D01*
X91324345Y-49560114D02*
X92752917Y-49560114D01*
X91038631Y-50417257D02*
X92038631Y-47417257D01*
X92038631Y-47417257D02*
X93038631Y-50417257D01*
X94610060Y-48988685D02*
X94610060Y-50417257D01*
X93610060Y-47417257D02*
X94610060Y-48988685D01*
X94610060Y-48988685D02*
X95610060Y-47417257D01*
X98895774Y-49274400D02*
X101181489Y-49274400D01*
X100038631Y-50417257D02*
X100038631Y-48131542D01*
X104752917Y-50274400D02*
X105181489Y-50417257D01*
X105181489Y-50417257D02*
X105895774Y-50417257D01*
X105895774Y-50417257D02*
X106181489Y-50274400D01*
X106181489Y-50274400D02*
X106324346Y-50131542D01*
X106324346Y-50131542D02*
X106467203Y-49845828D01*
X106467203Y-49845828D02*
X106467203Y-49560114D01*
X106467203Y-49560114D02*
X106324346Y-49274400D01*
X106324346Y-49274400D02*
X106181489Y-49131542D01*
X106181489Y-49131542D02*
X105895774Y-48988685D01*
X105895774Y-48988685D02*
X105324346Y-48845828D01*
X105324346Y-48845828D02*
X105038631Y-48702971D01*
X105038631Y-48702971D02*
X104895774Y-48560114D01*
X104895774Y-48560114D02*
X104752917Y-48274400D01*
X104752917Y-48274400D02*
X104752917Y-47988685D01*
X104752917Y-47988685D02*
X104895774Y-47702971D01*
X104895774Y-47702971D02*
X105038631Y-47560114D01*
X105038631Y-47560114D02*
X105324346Y-47417257D01*
X105324346Y-47417257D02*
X106038631Y-47417257D01*
X106038631Y-47417257D02*
X106467203Y-47560114D01*
X107752917Y-50417257D02*
X107752917Y-47417257D01*
X107752917Y-47417257D02*
X108467203Y-47417257D01*
X108467203Y-47417257D02*
X108895774Y-47560114D01*
X108895774Y-47560114D02*
X109181489Y-47845828D01*
X109181489Y-47845828D02*
X109324346Y-48131542D01*
X109324346Y-48131542D02*
X109467203Y-48702971D01*
X109467203Y-48702971D02*
X109467203Y-49131542D01*
X109467203Y-49131542D02*
X109324346Y-49702971D01*
X109324346Y-49702971D02*
X109181489Y-49988685D01*
X109181489Y-49988685D02*
X108895774Y-50274400D01*
X108895774Y-50274400D02*
X108467203Y-50417257D01*
X108467203Y-50417257D02*
X107752917Y-50417257D01*
D12*
X126410187Y-156780047D02*
X125219711Y-156780047D01*
X125219711Y-156780047D02*
X125219711Y-154280047D01*
X127243521Y-156780047D02*
X127243521Y-154280047D01*
X127243521Y-154280047D02*
X127838759Y-154280047D01*
X127838759Y-154280047D02*
X128195902Y-154399095D01*
X128195902Y-154399095D02*
X128433997Y-154637190D01*
X128433997Y-154637190D02*
X128553044Y-154875285D01*
X128553044Y-154875285D02*
X128672092Y-155351476D01*
X128672092Y-155351476D02*
X128672092Y-155708619D01*
X128672092Y-155708619D02*
X128553044Y-156184809D01*
X128553044Y-156184809D02*
X128433997Y-156422904D01*
X128433997Y-156422904D02*
X128195902Y-156661000D01*
X128195902Y-156661000D02*
X127838759Y-156780047D01*
X127838759Y-156780047D02*
X127243521Y-156780047D01*
X131172092Y-156780047D02*
X130338759Y-155589571D01*
X129743521Y-156780047D02*
X129743521Y-154280047D01*
X129743521Y-154280047D02*
X130695902Y-154280047D01*
X130695902Y-154280047D02*
X130933997Y-154399095D01*
X130933997Y-154399095D02*
X131053044Y-154518142D01*
X131053044Y-154518142D02*
X131172092Y-154756238D01*
X131172092Y-154756238D02*
X131172092Y-155113380D01*
X131172092Y-155113380D02*
X131053044Y-155351476D01*
X131053044Y-155351476D02*
X130933997Y-155470523D01*
X130933997Y-155470523D02*
X130695902Y-155589571D01*
X130695902Y-155589571D02*
X129743521Y-155589571D01*
D13*
X117487285Y-62240541D02*
X118201571Y-62240541D01*
X117344428Y-62669112D02*
X117844428Y-61169112D01*
X117844428Y-61169112D02*
X118344428Y-62669112D01*
X118844427Y-61169112D02*
X118844427Y-62383398D01*
X118844427Y-62383398D02*
X118915856Y-62526255D01*
X118915856Y-62526255D02*
X118987285Y-62597684D01*
X118987285Y-62597684D02*
X119130142Y-62669112D01*
X119130142Y-62669112D02*
X119415856Y-62669112D01*
X119415856Y-62669112D02*
X119558713Y-62597684D01*
X119558713Y-62597684D02*
X119630142Y-62526255D01*
X119630142Y-62526255D02*
X119701570Y-62383398D01*
X119701570Y-62383398D02*
X119701570Y-61169112D01*
X120415856Y-62669112D02*
X120415856Y-61169112D01*
X120415856Y-61169112D02*
X120772999Y-61169112D01*
X120772999Y-61169112D02*
X120987285Y-61240541D01*
X120987285Y-61240541D02*
X121130142Y-61383398D01*
X121130142Y-61383398D02*
X121201571Y-61526255D01*
X121201571Y-61526255D02*
X121272999Y-61811969D01*
X121272999Y-61811969D02*
X121272999Y-62026255D01*
X121272999Y-62026255D02*
X121201571Y-62311969D01*
X121201571Y-62311969D02*
X121130142Y-62454826D01*
X121130142Y-62454826D02*
X120987285Y-62597684D01*
X120987285Y-62597684D02*
X120772999Y-62669112D01*
X120772999Y-62669112D02*
X120415856Y-62669112D01*
X121915856Y-62669112D02*
X121915856Y-61169112D01*
X122915857Y-61169112D02*
X123201571Y-61169112D01*
X123201571Y-61169112D02*
X123344428Y-61240541D01*
X123344428Y-61240541D02*
X123487285Y-61383398D01*
X123487285Y-61383398D02*
X123558714Y-61669112D01*
X123558714Y-61669112D02*
X123558714Y-62169112D01*
X123558714Y-62169112D02*
X123487285Y-62454826D01*
X123487285Y-62454826D02*
X123344428Y-62597684D01*
X123344428Y-62597684D02*
X123201571Y-62669112D01*
X123201571Y-62669112D02*
X122915857Y-62669112D01*
X122915857Y-62669112D02*
X122773000Y-62597684D01*
X122773000Y-62597684D02*
X122630142Y-62454826D01*
X122630142Y-62454826D02*
X122558714Y-62169112D01*
X122558714Y-62169112D02*
X122558714Y-61669112D01*
X122558714Y-61669112D02*
X122630142Y-61383398D01*
X122630142Y-61383398D02*
X122773000Y-61240541D01*
X122773000Y-61240541D02*
X122915857Y-61169112D01*
X116951571Y-65084028D02*
X116951571Y-63584028D01*
X116951571Y-63584028D02*
X117308714Y-63584028D01*
X117308714Y-63584028D02*
X117523000Y-63655457D01*
X117523000Y-63655457D02*
X117665857Y-63798314D01*
X117665857Y-63798314D02*
X117737286Y-63941171D01*
X117737286Y-63941171D02*
X117808714Y-64226885D01*
X117808714Y-64226885D02*
X117808714Y-64441171D01*
X117808714Y-64441171D02*
X117737286Y-64726885D01*
X117737286Y-64726885D02*
X117665857Y-64869742D01*
X117665857Y-64869742D02*
X117523000Y-65012600D01*
X117523000Y-65012600D02*
X117308714Y-65084028D01*
X117308714Y-65084028D02*
X116951571Y-65084028D01*
X119308714Y-65084028D02*
X118808714Y-64369742D01*
X118451571Y-65084028D02*
X118451571Y-63584028D01*
X118451571Y-63584028D02*
X119023000Y-63584028D01*
X119023000Y-63584028D02*
X119165857Y-63655457D01*
X119165857Y-63655457D02*
X119237286Y-63726885D01*
X119237286Y-63726885D02*
X119308714Y-63869742D01*
X119308714Y-63869742D02*
X119308714Y-64084028D01*
X119308714Y-64084028D02*
X119237286Y-64226885D01*
X119237286Y-64226885D02*
X119165857Y-64298314D01*
X119165857Y-64298314D02*
X119023000Y-64369742D01*
X119023000Y-64369742D02*
X118451571Y-64369742D01*
X119951571Y-65084028D02*
X119951571Y-63584028D01*
X120451572Y-63584028D02*
X120951572Y-65084028D01*
X120951572Y-65084028D02*
X121451572Y-63584028D01*
X121951571Y-64298314D02*
X122451571Y-64298314D01*
X122665857Y-65084028D02*
X121951571Y-65084028D01*
X121951571Y-65084028D02*
X121951571Y-63584028D01*
X121951571Y-63584028D02*
X122665857Y-63584028D01*
X124165857Y-65084028D02*
X123665857Y-64369742D01*
X123308714Y-65084028D02*
X123308714Y-63584028D01*
X123308714Y-63584028D02*
X123880143Y-63584028D01*
X123880143Y-63584028D02*
X124023000Y-63655457D01*
X124023000Y-63655457D02*
X124094429Y-63726885D01*
X124094429Y-63726885D02*
X124165857Y-63869742D01*
X124165857Y-63869742D02*
X124165857Y-64084028D01*
X124165857Y-64084028D02*
X124094429Y-64226885D01*
X124094429Y-64226885D02*
X124023000Y-64298314D01*
X124023000Y-64298314D02*
X123880143Y-64369742D01*
X123880143Y-64369742D02*
X123308714Y-64369742D01*
D12*
X124608568Y-141199047D02*
X125441901Y-143699047D01*
X125441901Y-143699047D02*
X126275234Y-141199047D01*
X127584758Y-141199047D02*
X128060949Y-141199047D01*
X128060949Y-141199047D02*
X128299044Y-141318095D01*
X128299044Y-141318095D02*
X128537139Y-141556190D01*
X128537139Y-141556190D02*
X128656187Y-142032380D01*
X128656187Y-142032380D02*
X128656187Y-142865714D01*
X128656187Y-142865714D02*
X128537139Y-143341904D01*
X128537139Y-143341904D02*
X128299044Y-143580000D01*
X128299044Y-143580000D02*
X128060949Y-143699047D01*
X128060949Y-143699047D02*
X127584758Y-143699047D01*
X127584758Y-143699047D02*
X127346663Y-143580000D01*
X127346663Y-143580000D02*
X127108568Y-143341904D01*
X127108568Y-143341904D02*
X126989520Y-142865714D01*
X126989520Y-142865714D02*
X126989520Y-142032380D01*
X126989520Y-142032380D02*
X127108568Y-141556190D01*
X127108568Y-141556190D02*
X127346663Y-141318095D01*
X127346663Y-141318095D02*
X127584758Y-141199047D01*
X130918092Y-143699047D02*
X129727616Y-143699047D01*
X129727616Y-143699047D02*
X129727616Y-141199047D01*
X131751426Y-141199047D02*
X131751426Y-143222857D01*
X131751426Y-143222857D02*
X131870473Y-143460952D01*
X131870473Y-143460952D02*
X131989521Y-143580000D01*
X131989521Y-143580000D02*
X132227616Y-143699047D01*
X132227616Y-143699047D02*
X132703807Y-143699047D01*
X132703807Y-143699047D02*
X132941902Y-143580000D01*
X132941902Y-143580000D02*
X133060949Y-143460952D01*
X133060949Y-143460952D02*
X133179997Y-143222857D01*
X133179997Y-143222857D02*
X133179997Y-141199047D01*
X134370474Y-143699047D02*
X134370474Y-141199047D01*
X134370474Y-141199047D02*
X135203807Y-142984761D01*
X135203807Y-142984761D02*
X136037140Y-141199047D01*
X136037140Y-141199047D02*
X136037140Y-143699047D01*
X137227617Y-142389523D02*
X138060950Y-142389523D01*
X138418093Y-143699047D02*
X137227617Y-143699047D01*
X137227617Y-143699047D02*
X137227617Y-141199047D01*
X137227617Y-141199047D02*
X138418093Y-141199047D01*
D11*
X45671653Y-152334757D02*
X45671653Y-149334757D01*
X47385939Y-152334757D02*
X46100225Y-150620471D01*
X47385939Y-149334757D02*
X45671653Y-151049042D01*
X48671653Y-150763328D02*
X49671653Y-150763328D01*
X50100225Y-152334757D02*
X48671653Y-152334757D01*
X48671653Y-152334757D02*
X48671653Y-149334757D01*
X48671653Y-149334757D02*
X50100225Y-149334757D01*
X51957368Y-150906185D02*
X51957368Y-152334757D01*
X50957368Y-149334757D02*
X51957368Y-150906185D01*
X51957368Y-150906185D02*
X52957368Y-149334757D01*
X53957368Y-152334757D02*
X53957368Y-149334757D01*
X53957368Y-149334757D02*
X55100225Y-149334757D01*
X55100225Y-149334757D02*
X55385940Y-149477614D01*
X55385940Y-149477614D02*
X55528797Y-149620471D01*
X55528797Y-149620471D02*
X55671654Y-149906185D01*
X55671654Y-149906185D02*
X55671654Y-150334757D01*
X55671654Y-150334757D02*
X55528797Y-150620471D01*
X55528797Y-150620471D02*
X55385940Y-150763328D01*
X55385940Y-150763328D02*
X55100225Y-150906185D01*
X55100225Y-150906185D02*
X53957368Y-150906185D01*
X56814511Y-151477614D02*
X58243083Y-151477614D01*
X56528797Y-152334757D02*
X57528797Y-149334757D01*
X57528797Y-149334757D02*
X58528797Y-152334757D01*
X59528797Y-152334757D02*
X59528797Y-149334757D01*
X59528797Y-149334757D02*
X60243083Y-149334757D01*
X60243083Y-149334757D02*
X60671654Y-149477614D01*
X60671654Y-149477614D02*
X60957369Y-149763328D01*
X60957369Y-149763328D02*
X61100226Y-150049042D01*
X61100226Y-150049042D02*
X61243083Y-150620471D01*
X61243083Y-150620471D02*
X61243083Y-151049042D01*
X61243083Y-151049042D02*
X61100226Y-151620471D01*
X61100226Y-151620471D02*
X60957369Y-151906185D01*
X60957369Y-151906185D02*
X60671654Y-152191900D01*
X60671654Y-152191900D02*
X60243083Y-152334757D01*
X60243083Y-152334757D02*
X59528797Y-152334757D01*
X59966653Y-118997257D02*
X59966653Y-115997257D01*
X59966653Y-115997257D02*
X61109510Y-115997257D01*
X61109510Y-115997257D02*
X61395225Y-116140114D01*
X61395225Y-116140114D02*
X61538082Y-116282971D01*
X61538082Y-116282971D02*
X61680939Y-116568685D01*
X61680939Y-116568685D02*
X61680939Y-116997257D01*
X61680939Y-116997257D02*
X61538082Y-117282971D01*
X61538082Y-117282971D02*
X61395225Y-117425828D01*
X61395225Y-117425828D02*
X61109510Y-117568685D01*
X61109510Y-117568685D02*
X59966653Y-117568685D01*
X64680939Y-118997257D02*
X63680939Y-117568685D01*
X62966653Y-118997257D02*
X62966653Y-115997257D01*
X62966653Y-115997257D02*
X64109510Y-115997257D01*
X64109510Y-115997257D02*
X64395225Y-116140114D01*
X64395225Y-116140114D02*
X64538082Y-116282971D01*
X64538082Y-116282971D02*
X64680939Y-116568685D01*
X64680939Y-116568685D02*
X64680939Y-116997257D01*
X64680939Y-116997257D02*
X64538082Y-117282971D01*
X64538082Y-117282971D02*
X64395225Y-117425828D01*
X64395225Y-117425828D02*
X64109510Y-117568685D01*
X64109510Y-117568685D02*
X62966653Y-117568685D01*
X66538082Y-115997257D02*
X67109510Y-115997257D01*
X67109510Y-115997257D02*
X67395225Y-116140114D01*
X67395225Y-116140114D02*
X67680939Y-116425828D01*
X67680939Y-116425828D02*
X67823796Y-116997257D01*
X67823796Y-116997257D02*
X67823796Y-117997257D01*
X67823796Y-117997257D02*
X67680939Y-118568685D01*
X67680939Y-118568685D02*
X67395225Y-118854400D01*
X67395225Y-118854400D02*
X67109510Y-118997257D01*
X67109510Y-118997257D02*
X66538082Y-118997257D01*
X66538082Y-118997257D02*
X66252368Y-118854400D01*
X66252368Y-118854400D02*
X65966653Y-118568685D01*
X65966653Y-118568685D02*
X65823796Y-117997257D01*
X65823796Y-117997257D02*
X65823796Y-116997257D01*
X65823796Y-116997257D02*
X65966653Y-116425828D01*
X65966653Y-116425828D02*
X66252368Y-116140114D01*
X66252368Y-116140114D02*
X66538082Y-115997257D01*
X68680939Y-115997257D02*
X70395225Y-115997257D01*
X69538082Y-118997257D02*
X69538082Y-115997257D01*
X71966653Y-115997257D02*
X72538081Y-115997257D01*
X72538081Y-115997257D02*
X72823796Y-116140114D01*
X72823796Y-116140114D02*
X73109510Y-116425828D01*
X73109510Y-116425828D02*
X73252367Y-116997257D01*
X73252367Y-116997257D02*
X73252367Y-117997257D01*
X73252367Y-117997257D02*
X73109510Y-118568685D01*
X73109510Y-118568685D02*
X72823796Y-118854400D01*
X72823796Y-118854400D02*
X72538081Y-118997257D01*
X72538081Y-118997257D02*
X71966653Y-118997257D01*
X71966653Y-118997257D02*
X71680939Y-118854400D01*
X71680939Y-118854400D02*
X71395224Y-118568685D01*
X71395224Y-118568685D02*
X71252367Y-117997257D01*
X71252367Y-117997257D02*
X71252367Y-116997257D01*
X71252367Y-116997257D02*
X71395224Y-116425828D01*
X71395224Y-116425828D02*
X71680939Y-116140114D01*
X71680939Y-116140114D02*
X71966653Y-115997257D01*
X74538081Y-118997257D02*
X74538081Y-115997257D01*
X74538081Y-115997257D02*
X76252367Y-118997257D01*
X76252367Y-118997257D02*
X76252367Y-115997257D01*
X80966652Y-117425828D02*
X81395224Y-117568685D01*
X81395224Y-117568685D02*
X81538081Y-117711542D01*
X81538081Y-117711542D02*
X81680938Y-117997257D01*
X81680938Y-117997257D02*
X81680938Y-118425828D01*
X81680938Y-118425828D02*
X81538081Y-118711542D01*
X81538081Y-118711542D02*
X81395224Y-118854400D01*
X81395224Y-118854400D02*
X81109509Y-118997257D01*
X81109509Y-118997257D02*
X79966652Y-118997257D01*
X79966652Y-118997257D02*
X79966652Y-115997257D01*
X79966652Y-115997257D02*
X80966652Y-115997257D01*
X80966652Y-115997257D02*
X81252367Y-116140114D01*
X81252367Y-116140114D02*
X81395224Y-116282971D01*
X81395224Y-116282971D02*
X81538081Y-116568685D01*
X81538081Y-116568685D02*
X81538081Y-116854400D01*
X81538081Y-116854400D02*
X81395224Y-117140114D01*
X81395224Y-117140114D02*
X81252367Y-117282971D01*
X81252367Y-117282971D02*
X80966652Y-117425828D01*
X80966652Y-117425828D02*
X79966652Y-117425828D01*
X83538081Y-115997257D02*
X84109509Y-115997257D01*
X84109509Y-115997257D02*
X84395224Y-116140114D01*
X84395224Y-116140114D02*
X84680938Y-116425828D01*
X84680938Y-116425828D02*
X84823795Y-116997257D01*
X84823795Y-116997257D02*
X84823795Y-117997257D01*
X84823795Y-117997257D02*
X84680938Y-118568685D01*
X84680938Y-118568685D02*
X84395224Y-118854400D01*
X84395224Y-118854400D02*
X84109509Y-118997257D01*
X84109509Y-118997257D02*
X83538081Y-118997257D01*
X83538081Y-118997257D02*
X83252367Y-118854400D01*
X83252367Y-118854400D02*
X82966652Y-118568685D01*
X82966652Y-118568685D02*
X82823795Y-117997257D01*
X82823795Y-117997257D02*
X82823795Y-116997257D01*
X82823795Y-116997257D02*
X82966652Y-116425828D01*
X82966652Y-116425828D02*
X83252367Y-116140114D01*
X83252367Y-116140114D02*
X83538081Y-115997257D01*
X85966652Y-118140114D02*
X87395224Y-118140114D01*
X85680938Y-118997257D02*
X86680938Y-115997257D01*
X86680938Y-115997257D02*
X87680938Y-118997257D01*
X90395224Y-118997257D02*
X89395224Y-117568685D01*
X88680938Y-118997257D02*
X88680938Y-115997257D01*
X88680938Y-115997257D02*
X89823795Y-115997257D01*
X89823795Y-115997257D02*
X90109510Y-116140114D01*
X90109510Y-116140114D02*
X90252367Y-116282971D01*
X90252367Y-116282971D02*
X90395224Y-116568685D01*
X90395224Y-116568685D02*
X90395224Y-116997257D01*
X90395224Y-116997257D02*
X90252367Y-117282971D01*
X90252367Y-117282971D02*
X90109510Y-117425828D01*
X90109510Y-117425828D02*
X89823795Y-117568685D01*
X89823795Y-117568685D02*
X88680938Y-117568685D01*
X91680938Y-118997257D02*
X91680938Y-115997257D01*
X91680938Y-115997257D02*
X92395224Y-115997257D01*
X92395224Y-115997257D02*
X92823795Y-116140114D01*
X92823795Y-116140114D02*
X93109510Y-116425828D01*
X93109510Y-116425828D02*
X93252367Y-116711542D01*
X93252367Y-116711542D02*
X93395224Y-117282971D01*
X93395224Y-117282971D02*
X93395224Y-117711542D01*
X93395224Y-117711542D02*
X93252367Y-118282971D01*
X93252367Y-118282971D02*
X93109510Y-118568685D01*
X93109510Y-118568685D02*
X92823795Y-118854400D01*
X92823795Y-118854400D02*
X92395224Y-118997257D01*
X92395224Y-118997257D02*
X91680938Y-118997257D01*
D13*
X117035054Y-74452838D02*
X118177911Y-74452838D01*
X117606482Y-76452838D02*
X117606482Y-74452838D01*
X118844578Y-76452838D02*
X118844578Y-74452838D01*
X119796959Y-76452838D02*
X119796959Y-74452838D01*
X119796959Y-74452838D02*
X120463626Y-75881409D01*
X120463626Y-75881409D02*
X121130292Y-74452838D01*
X121130292Y-74452838D02*
X121130292Y-76452838D01*
X122082673Y-75405219D02*
X122749340Y-75405219D01*
X123035054Y-76452838D02*
X122082673Y-76452838D01*
X122082673Y-76452838D02*
X122082673Y-74452838D01*
X122082673Y-74452838D02*
X123035054Y-74452838D01*
X123892197Y-76452838D02*
X123892197Y-74452838D01*
X125035054Y-76452838D02*
X124177911Y-75309980D01*
X125035054Y-74452838D02*
X123892197Y-75595695D01*
X125892197Y-75405219D02*
X126558864Y-75405219D01*
X126844578Y-76452838D02*
X125892197Y-76452838D01*
X125892197Y-76452838D02*
X125892197Y-74452838D01*
X125892197Y-74452838D02*
X126844578Y-74452838D01*
X127701721Y-75405219D02*
X128368388Y-75405219D01*
X128654102Y-76452838D02*
X127701721Y-76452838D01*
X127701721Y-76452838D02*
X127701721Y-74452838D01*
X127701721Y-74452838D02*
X128654102Y-74452838D01*
X129511245Y-76452838D02*
X129511245Y-74452838D01*
X129511245Y-74452838D02*
X130273150Y-74452838D01*
X130273150Y-74452838D02*
X130463626Y-74548076D01*
X130463626Y-74548076D02*
X130558864Y-74643314D01*
X130558864Y-74643314D02*
X130654102Y-74833790D01*
X130654102Y-74833790D02*
X130654102Y-75119504D01*
X130654102Y-75119504D02*
X130558864Y-75309980D01*
X130558864Y-75309980D02*
X130463626Y-75405219D01*
X130463626Y-75405219D02*
X130273150Y-75500457D01*
X130273150Y-75500457D02*
X129511245Y-75500457D01*
X131511245Y-76452838D02*
X131511245Y-74452838D01*
X132463626Y-76452838D02*
X132463626Y-74452838D01*
X132463626Y-74452838D02*
X133606483Y-76452838D01*
X133606483Y-76452838D02*
X133606483Y-74452838D01*
X135606483Y-74548076D02*
X135416007Y-74452838D01*
X135416007Y-74452838D02*
X135130293Y-74452838D01*
X135130293Y-74452838D02*
X134844578Y-74548076D01*
X134844578Y-74548076D02*
X134654102Y-74738552D01*
X134654102Y-74738552D02*
X134558864Y-74929028D01*
X134558864Y-74929028D02*
X134463626Y-75309980D01*
X134463626Y-75309980D02*
X134463626Y-75595695D01*
X134463626Y-75595695D02*
X134558864Y-75976647D01*
X134558864Y-75976647D02*
X134654102Y-76167123D01*
X134654102Y-76167123D02*
X134844578Y-76357600D01*
X134844578Y-76357600D02*
X135130293Y-76452838D01*
X135130293Y-76452838D02*
X135320769Y-76452838D01*
X135320769Y-76452838D02*
X135606483Y-76357600D01*
X135606483Y-76357600D02*
X135701721Y-76262361D01*
X135701721Y-76262361D02*
X135701721Y-75595695D01*
X135701721Y-75595695D02*
X135320769Y-75595695D01*
D11*
X118688082Y-70293114D02*
X118402368Y-70150257D01*
X118402368Y-70150257D02*
X117973796Y-70150257D01*
X117973796Y-70150257D02*
X117545225Y-70293114D01*
X117545225Y-70293114D02*
X117259510Y-70578828D01*
X117259510Y-70578828D02*
X117116653Y-70864542D01*
X117116653Y-70864542D02*
X116973796Y-71435971D01*
X116973796Y-71435971D02*
X116973796Y-71864542D01*
X116973796Y-71864542D02*
X117116653Y-72435971D01*
X117116653Y-72435971D02*
X117259510Y-72721685D01*
X117259510Y-72721685D02*
X117545225Y-73007400D01*
X117545225Y-73007400D02*
X117973796Y-73150257D01*
X117973796Y-73150257D02*
X118259510Y-73150257D01*
X118259510Y-73150257D02*
X118688082Y-73007400D01*
X118688082Y-73007400D02*
X118830939Y-72864542D01*
X118830939Y-72864542D02*
X118830939Y-71864542D01*
X118830939Y-71864542D02*
X118259510Y-71864542D01*
X120116653Y-73150257D02*
X120116653Y-70150257D01*
X120116653Y-70150257D02*
X121259510Y-70150257D01*
X121259510Y-70150257D02*
X121545225Y-70293114D01*
X121545225Y-70293114D02*
X121688082Y-70435971D01*
X121688082Y-70435971D02*
X121830939Y-70721685D01*
X121830939Y-70721685D02*
X121830939Y-71150257D01*
X121830939Y-71150257D02*
X121688082Y-71435971D01*
X121688082Y-71435971D02*
X121545225Y-71578828D01*
X121545225Y-71578828D02*
X121259510Y-71721685D01*
X121259510Y-71721685D02*
X120116653Y-71721685D01*
X122973796Y-73007400D02*
X123402368Y-73150257D01*
X123402368Y-73150257D02*
X124116653Y-73150257D01*
X124116653Y-73150257D02*
X124402368Y-73007400D01*
X124402368Y-73007400D02*
X124545225Y-72864542D01*
X124545225Y-72864542D02*
X124688082Y-72578828D01*
X124688082Y-72578828D02*
X124688082Y-72293114D01*
X124688082Y-72293114D02*
X124545225Y-72007400D01*
X124545225Y-72007400D02*
X124402368Y-71864542D01*
X124402368Y-71864542D02*
X124116653Y-71721685D01*
X124116653Y-71721685D02*
X123545225Y-71578828D01*
X123545225Y-71578828D02*
X123259510Y-71435971D01*
X123259510Y-71435971D02*
X123116653Y-71293114D01*
X123116653Y-71293114D02*
X122973796Y-71007400D01*
X122973796Y-71007400D02*
X122973796Y-70721685D01*
X122973796Y-70721685D02*
X123116653Y-70435971D01*
X123116653Y-70435971D02*
X123259510Y-70293114D01*
X123259510Y-70293114D02*
X123545225Y-70150257D01*
X123545225Y-70150257D02*
X124259510Y-70150257D01*
X124259510Y-70150257D02*
X124688082Y-70293114D01*
D14*
X128716261Y-64497057D02*
X128621023Y-64449438D01*
X128621023Y-64449438D02*
X128525785Y-64354200D01*
X128525785Y-64354200D02*
X128382928Y-64211342D01*
X128382928Y-64211342D02*
X128287690Y-64163723D01*
X128287690Y-64163723D02*
X128192452Y-64163723D01*
X128240071Y-64401819D02*
X128144833Y-64354200D01*
X128144833Y-64354200D02*
X128049595Y-64258961D01*
X128049595Y-64258961D02*
X128001976Y-64068485D01*
X128001976Y-64068485D02*
X128001976Y-63735152D01*
X128001976Y-63735152D02*
X128049595Y-63544676D01*
X128049595Y-63544676D02*
X128144833Y-63449438D01*
X128144833Y-63449438D02*
X128240071Y-63401819D01*
X128240071Y-63401819D02*
X128430547Y-63401819D01*
X128430547Y-63401819D02*
X128525785Y-63449438D01*
X128525785Y-63449438D02*
X128621023Y-63544676D01*
X128621023Y-63544676D02*
X128668642Y-63735152D01*
X128668642Y-63735152D02*
X128668642Y-64068485D01*
X128668642Y-64068485D02*
X128621023Y-64258961D01*
X128621023Y-64258961D02*
X128525785Y-64354200D01*
X128525785Y-64354200D02*
X128430547Y-64401819D01*
X128430547Y-64401819D02*
X128240071Y-64401819D01*
X129573404Y-63401819D02*
X129097214Y-63401819D01*
X129097214Y-63401819D02*
X129049595Y-63878009D01*
X129049595Y-63878009D02*
X129097214Y-63830390D01*
X129097214Y-63830390D02*
X129192452Y-63782771D01*
X129192452Y-63782771D02*
X129430547Y-63782771D01*
X129430547Y-63782771D02*
X129525785Y-63830390D01*
X129525785Y-63830390D02*
X129573404Y-63878009D01*
X129573404Y-63878009D02*
X129621023Y-63973247D01*
X129621023Y-63973247D02*
X129621023Y-64211342D01*
X129621023Y-64211342D02*
X129573404Y-64306580D01*
X129573404Y-64306580D02*
X129525785Y-64354200D01*
X129525785Y-64354200D02*
X129430547Y-64401819D01*
X129430547Y-64401819D02*
X129192452Y-64401819D01*
X129192452Y-64401819D02*
X129097214Y-64354200D01*
X129097214Y-64354200D02*
X129049595Y-64306580D01*
X61764819Y-153051383D02*
X62479104Y-153051383D01*
X62479104Y-153051383D02*
X62621961Y-153099002D01*
X62621961Y-153099002D02*
X62717200Y-153194240D01*
X62717200Y-153194240D02*
X62764819Y-153337097D01*
X62764819Y-153337097D02*
X62764819Y-153432335D01*
X61764819Y-152670430D02*
X61764819Y-152051383D01*
X61764819Y-152051383D02*
X62145771Y-152384716D01*
X62145771Y-152384716D02*
X62145771Y-152241859D01*
X62145771Y-152241859D02*
X62193390Y-152146621D01*
X62193390Y-152146621D02*
X62241009Y-152099002D01*
X62241009Y-152099002D02*
X62336247Y-152051383D01*
X62336247Y-152051383D02*
X62574342Y-152051383D01*
X62574342Y-152051383D02*
X62669580Y-152099002D01*
X62669580Y-152099002D02*
X62717200Y-152146621D01*
X62717200Y-152146621D02*
X62764819Y-152241859D01*
X62764819Y-152241859D02*
X62764819Y-152527573D01*
X62764819Y-152527573D02*
X62717200Y-152622811D01*
X62717200Y-152622811D02*
X62669580Y-152670430D01*
D15*
X137553919Y-55887857D02*
X137553919Y-56364047D01*
X137553919Y-56364047D02*
X136553919Y-56364047D01*
X137506300Y-55602142D02*
X137553919Y-55459285D01*
X137553919Y-55459285D02*
X137553919Y-55221190D01*
X137553919Y-55221190D02*
X137506300Y-55125952D01*
X137506300Y-55125952D02*
X137458680Y-55078333D01*
X137458680Y-55078333D02*
X137363442Y-55030714D01*
X137363442Y-55030714D02*
X137268204Y-55030714D01*
X137268204Y-55030714D02*
X137172966Y-55078333D01*
X137172966Y-55078333D02*
X137125347Y-55125952D01*
X137125347Y-55125952D02*
X137077728Y-55221190D01*
X137077728Y-55221190D02*
X137030109Y-55411666D01*
X137030109Y-55411666D02*
X136982490Y-55506904D01*
X136982490Y-55506904D02*
X136934871Y-55554523D01*
X136934871Y-55554523D02*
X136839633Y-55602142D01*
X136839633Y-55602142D02*
X136744395Y-55602142D01*
X136744395Y-55602142D02*
X136649157Y-55554523D01*
X136649157Y-55554523D02*
X136601538Y-55506904D01*
X136601538Y-55506904D02*
X136553919Y-55411666D01*
X136553919Y-55411666D02*
X136553919Y-55173571D01*
X136553919Y-55173571D02*
X136601538Y-55030714D01*
X137553919Y-54078333D02*
X137553919Y-54649761D01*
X137553919Y-54364047D02*
X136553919Y-54364047D01*
X136553919Y-54364047D02*
X136696776Y-54459285D01*
X136696776Y-54459285D02*
X136792014Y-54554523D01*
X136792014Y-54554523D02*
X136839633Y-54649761D01*
D14*
X132350761Y-52124057D02*
X132255523Y-52076438D01*
X132255523Y-52076438D02*
X132160285Y-51981200D01*
X132160285Y-51981200D02*
X132017428Y-51838342D01*
X132017428Y-51838342D02*
X131922190Y-51790723D01*
X131922190Y-51790723D02*
X131826952Y-51790723D01*
X131874571Y-52028819D02*
X131779333Y-51981200D01*
X131779333Y-51981200D02*
X131684095Y-51885961D01*
X131684095Y-51885961D02*
X131636476Y-51695485D01*
X131636476Y-51695485D02*
X131636476Y-51362152D01*
X131636476Y-51362152D02*
X131684095Y-51171676D01*
X131684095Y-51171676D02*
X131779333Y-51076438D01*
X131779333Y-51076438D02*
X131874571Y-51028819D01*
X131874571Y-51028819D02*
X132065047Y-51028819D01*
X132065047Y-51028819D02*
X132160285Y-51076438D01*
X132160285Y-51076438D02*
X132255523Y-51171676D01*
X132255523Y-51171676D02*
X132303142Y-51362152D01*
X132303142Y-51362152D02*
X132303142Y-51695485D01*
X132303142Y-51695485D02*
X132255523Y-51885961D01*
X132255523Y-51885961D02*
X132160285Y-51981200D01*
X132160285Y-51981200D02*
X132065047Y-52028819D01*
X132065047Y-52028819D02*
X131874571Y-52028819D01*
X133160285Y-51362152D02*
X133160285Y-52028819D01*
X132922190Y-50981200D02*
X132684095Y-51695485D01*
X132684095Y-51695485D02*
X133303142Y-51695485D01*
X73154819Y-146989716D02*
X72678628Y-147323049D01*
X73154819Y-147561144D02*
X72154819Y-147561144D01*
X72154819Y-147561144D02*
X72154819Y-147180192D01*
X72154819Y-147180192D02*
X72202438Y-147084954D01*
X72202438Y-147084954D02*
X72250057Y-147037335D01*
X72250057Y-147037335D02*
X72345295Y-146989716D01*
X72345295Y-146989716D02*
X72488152Y-146989716D01*
X72488152Y-146989716D02*
X72583390Y-147037335D01*
X72583390Y-147037335D02*
X72631009Y-147084954D01*
X72631009Y-147084954D02*
X72678628Y-147180192D01*
X72678628Y-147180192D02*
X72678628Y-147561144D01*
X72154819Y-146084954D02*
X72154819Y-146561144D01*
X72154819Y-146561144D02*
X72631009Y-146608763D01*
X72631009Y-146608763D02*
X72583390Y-146561144D01*
X72583390Y-146561144D02*
X72535771Y-146465906D01*
X72535771Y-146465906D02*
X72535771Y-146227811D01*
X72535771Y-146227811D02*
X72583390Y-146132573D01*
X72583390Y-146132573D02*
X72631009Y-146084954D01*
X72631009Y-146084954D02*
X72726247Y-146037335D01*
X72726247Y-146037335D02*
X72964342Y-146037335D01*
X72964342Y-146037335D02*
X73059580Y-146084954D01*
X73059580Y-146084954D02*
X73107200Y-146132573D01*
X73107200Y-146132573D02*
X73154819Y-146227811D01*
X73154819Y-146227811D02*
X73154819Y-146465906D01*
X73154819Y-146465906D02*
X73107200Y-146561144D01*
X73107200Y-146561144D02*
X73059580Y-146608763D01*
X130312319Y-51367357D02*
X129836128Y-51700690D01*
X130312319Y-51938785D02*
X129312319Y-51938785D01*
X129312319Y-51938785D02*
X129312319Y-51557833D01*
X129312319Y-51557833D02*
X129359938Y-51462595D01*
X129359938Y-51462595D02*
X129407557Y-51414976D01*
X129407557Y-51414976D02*
X129502795Y-51367357D01*
X129502795Y-51367357D02*
X129645652Y-51367357D01*
X129645652Y-51367357D02*
X129740890Y-51414976D01*
X129740890Y-51414976D02*
X129788509Y-51462595D01*
X129788509Y-51462595D02*
X129836128Y-51557833D01*
X129836128Y-51557833D02*
X129836128Y-51938785D01*
X130312319Y-50414976D02*
X130312319Y-50986404D01*
X130312319Y-50700690D02*
X129312319Y-50700690D01*
X129312319Y-50700690D02*
X129455176Y-50795928D01*
X129455176Y-50795928D02*
X129550414Y-50891166D01*
X129550414Y-50891166D02*
X129598033Y-50986404D01*
X129312319Y-50081642D02*
X129312319Y-49414976D01*
X129312319Y-49414976D02*
X130312319Y-49843547D01*
X74128333Y-158696819D02*
X73795000Y-158220628D01*
X73556905Y-158696819D02*
X73556905Y-157696819D01*
X73556905Y-157696819D02*
X73937857Y-157696819D01*
X73937857Y-157696819D02*
X74033095Y-157744438D01*
X74033095Y-157744438D02*
X74080714Y-157792057D01*
X74080714Y-157792057D02*
X74128333Y-157887295D01*
X74128333Y-157887295D02*
X74128333Y-158030152D01*
X74128333Y-158030152D02*
X74080714Y-158125390D01*
X74080714Y-158125390D02*
X74033095Y-158173009D01*
X74033095Y-158173009D02*
X73937857Y-158220628D01*
X73937857Y-158220628D02*
X73556905Y-158220628D01*
X74604524Y-158696819D02*
X74795000Y-158696819D01*
X74795000Y-158696819D02*
X74890238Y-158649200D01*
X74890238Y-158649200D02*
X74937857Y-158601580D01*
X74937857Y-158601580D02*
X75033095Y-158458723D01*
X75033095Y-158458723D02*
X75080714Y-158268247D01*
X75080714Y-158268247D02*
X75080714Y-157887295D01*
X75080714Y-157887295D02*
X75033095Y-157792057D01*
X75033095Y-157792057D02*
X74985476Y-157744438D01*
X74985476Y-157744438D02*
X74890238Y-157696819D01*
X74890238Y-157696819D02*
X74699762Y-157696819D01*
X74699762Y-157696819D02*
X74604524Y-157744438D01*
X74604524Y-157744438D02*
X74556905Y-157792057D01*
X74556905Y-157792057D02*
X74509286Y-157887295D01*
X74509286Y-157887295D02*
X74509286Y-158125390D01*
X74509286Y-158125390D02*
X74556905Y-158220628D01*
X74556905Y-158220628D02*
X74604524Y-158268247D01*
X74604524Y-158268247D02*
X74699762Y-158315866D01*
X74699762Y-158315866D02*
X74890238Y-158315866D01*
X74890238Y-158315866D02*
X74985476Y-158268247D01*
X74985476Y-158268247D02*
X75033095Y-158220628D01*
X75033095Y-158220628D02*
X75080714Y-158125390D01*
X140980319Y-65000094D02*
X139980319Y-65000094D01*
X139980319Y-65000094D02*
X139980319Y-64761999D01*
X139980319Y-64761999D02*
X140027938Y-64619142D01*
X140027938Y-64619142D02*
X140123176Y-64523904D01*
X140123176Y-64523904D02*
X140218414Y-64476285D01*
X140218414Y-64476285D02*
X140408890Y-64428666D01*
X140408890Y-64428666D02*
X140551747Y-64428666D01*
X140551747Y-64428666D02*
X140742223Y-64476285D01*
X140742223Y-64476285D02*
X140837461Y-64523904D01*
X140837461Y-64523904D02*
X140932700Y-64619142D01*
X140932700Y-64619142D02*
X140980319Y-64761999D01*
X140980319Y-64761999D02*
X140980319Y-65000094D01*
X140075557Y-64047713D02*
X140027938Y-64000094D01*
X140027938Y-64000094D02*
X139980319Y-63904856D01*
X139980319Y-63904856D02*
X139980319Y-63666761D01*
X139980319Y-63666761D02*
X140027938Y-63571523D01*
X140027938Y-63571523D02*
X140075557Y-63523904D01*
X140075557Y-63523904D02*
X140170795Y-63476285D01*
X140170795Y-63476285D02*
X140266033Y-63476285D01*
X140266033Y-63476285D02*
X140408890Y-63523904D01*
X140408890Y-63523904D02*
X140980319Y-64095332D01*
X140980319Y-64095332D02*
X140980319Y-63476285D01*
X125776761Y-52185057D02*
X125681523Y-52137438D01*
X125681523Y-52137438D02*
X125586285Y-52042200D01*
X125586285Y-52042200D02*
X125443428Y-51899342D01*
X125443428Y-51899342D02*
X125348190Y-51851723D01*
X125348190Y-51851723D02*
X125252952Y-51851723D01*
X125300571Y-52089819D02*
X125205333Y-52042200D01*
X125205333Y-52042200D02*
X125110095Y-51946961D01*
X125110095Y-51946961D02*
X125062476Y-51756485D01*
X125062476Y-51756485D02*
X125062476Y-51423152D01*
X125062476Y-51423152D02*
X125110095Y-51232676D01*
X125110095Y-51232676D02*
X125205333Y-51137438D01*
X125205333Y-51137438D02*
X125300571Y-51089819D01*
X125300571Y-51089819D02*
X125491047Y-51089819D01*
X125491047Y-51089819D02*
X125586285Y-51137438D01*
X125586285Y-51137438D02*
X125681523Y-51232676D01*
X125681523Y-51232676D02*
X125729142Y-51423152D01*
X125729142Y-51423152D02*
X125729142Y-51756485D01*
X125729142Y-51756485D02*
X125681523Y-51946961D01*
X125681523Y-51946961D02*
X125586285Y-52042200D01*
X125586285Y-52042200D02*
X125491047Y-52089819D01*
X125491047Y-52089819D02*
X125300571Y-52089819D01*
X126062476Y-51089819D02*
X126681523Y-51089819D01*
X126681523Y-51089819D02*
X126348190Y-51470771D01*
X126348190Y-51470771D02*
X126491047Y-51470771D01*
X126491047Y-51470771D02*
X126586285Y-51518390D01*
X126586285Y-51518390D02*
X126633904Y-51566009D01*
X126633904Y-51566009D02*
X126681523Y-51661247D01*
X126681523Y-51661247D02*
X126681523Y-51899342D01*
X126681523Y-51899342D02*
X126633904Y-51994580D01*
X126633904Y-51994580D02*
X126586285Y-52042200D01*
X126586285Y-52042200D02*
X126491047Y-52089819D01*
X126491047Y-52089819D02*
X126205333Y-52089819D01*
X126205333Y-52089819D02*
X126110095Y-52042200D01*
X126110095Y-52042200D02*
X126062476Y-51994580D01*
X138313319Y-65000094D02*
X137313319Y-65000094D01*
X137313319Y-65000094D02*
X137313319Y-64761999D01*
X137313319Y-64761999D02*
X137360938Y-64619142D01*
X137360938Y-64619142D02*
X137456176Y-64523904D01*
X137456176Y-64523904D02*
X137551414Y-64476285D01*
X137551414Y-64476285D02*
X137741890Y-64428666D01*
X137741890Y-64428666D02*
X137884747Y-64428666D01*
X137884747Y-64428666D02*
X138075223Y-64476285D01*
X138075223Y-64476285D02*
X138170461Y-64523904D01*
X138170461Y-64523904D02*
X138265700Y-64619142D01*
X138265700Y-64619142D02*
X138313319Y-64761999D01*
X138313319Y-64761999D02*
X138313319Y-65000094D01*
X138313319Y-63476285D02*
X138313319Y-64047713D01*
X138313319Y-63761999D02*
X137313319Y-63761999D01*
X137313319Y-63761999D02*
X137456176Y-63857237D01*
X137456176Y-63857237D02*
X137551414Y-63952475D01*
X137551414Y-63952475D02*
X137599033Y-64047713D01*
X68074819Y-147091316D02*
X67598628Y-147424649D01*
X68074819Y-147662744D02*
X67074819Y-147662744D01*
X67074819Y-147662744D02*
X67074819Y-147281792D01*
X67074819Y-147281792D02*
X67122438Y-147186554D01*
X67122438Y-147186554D02*
X67170057Y-147138935D01*
X67170057Y-147138935D02*
X67265295Y-147091316D01*
X67265295Y-147091316D02*
X67408152Y-147091316D01*
X67408152Y-147091316D02*
X67503390Y-147138935D01*
X67503390Y-147138935D02*
X67551009Y-147186554D01*
X67551009Y-147186554D02*
X67598628Y-147281792D01*
X67598628Y-147281792D02*
X67598628Y-147662744D01*
X67074819Y-146757982D02*
X67074819Y-146091316D01*
X67074819Y-146091316D02*
X68074819Y-146519887D01*
X126674642Y-60337819D02*
X126341309Y-59861628D01*
X126103214Y-60337819D02*
X126103214Y-59337819D01*
X126103214Y-59337819D02*
X126484166Y-59337819D01*
X126484166Y-59337819D02*
X126579404Y-59385438D01*
X126579404Y-59385438D02*
X126627023Y-59433057D01*
X126627023Y-59433057D02*
X126674642Y-59528295D01*
X126674642Y-59528295D02*
X126674642Y-59671152D01*
X126674642Y-59671152D02*
X126627023Y-59766390D01*
X126627023Y-59766390D02*
X126579404Y-59814009D01*
X126579404Y-59814009D02*
X126484166Y-59861628D01*
X126484166Y-59861628D02*
X126103214Y-59861628D01*
X127055595Y-59433057D02*
X127103214Y-59385438D01*
X127103214Y-59385438D02*
X127198452Y-59337819D01*
X127198452Y-59337819D02*
X127436547Y-59337819D01*
X127436547Y-59337819D02*
X127531785Y-59385438D01*
X127531785Y-59385438D02*
X127579404Y-59433057D01*
X127579404Y-59433057D02*
X127627023Y-59528295D01*
X127627023Y-59528295D02*
X127627023Y-59623533D01*
X127627023Y-59623533D02*
X127579404Y-59766390D01*
X127579404Y-59766390D02*
X127007976Y-60337819D01*
X127007976Y-60337819D02*
X127627023Y-60337819D01*
X128007976Y-59433057D02*
X128055595Y-59385438D01*
X128055595Y-59385438D02*
X128150833Y-59337819D01*
X128150833Y-59337819D02*
X128388928Y-59337819D01*
X128388928Y-59337819D02*
X128484166Y-59385438D01*
X128484166Y-59385438D02*
X128531785Y-59433057D01*
X128531785Y-59433057D02*
X128579404Y-59528295D01*
X128579404Y-59528295D02*
X128579404Y-59623533D01*
X128579404Y-59623533D02*
X128531785Y-59766390D01*
X128531785Y-59766390D02*
X127960357Y-60337819D01*
X127960357Y-60337819D02*
X128579404Y-60337819D01*
X83314819Y-146989716D02*
X82838628Y-147323049D01*
X83314819Y-147561144D02*
X82314819Y-147561144D01*
X82314819Y-147561144D02*
X82314819Y-147180192D01*
X82314819Y-147180192D02*
X82362438Y-147084954D01*
X82362438Y-147084954D02*
X82410057Y-147037335D01*
X82410057Y-147037335D02*
X82505295Y-146989716D01*
X82505295Y-146989716D02*
X82648152Y-146989716D01*
X82648152Y-146989716D02*
X82743390Y-147037335D01*
X82743390Y-147037335D02*
X82791009Y-147084954D01*
X82791009Y-147084954D02*
X82838628Y-147180192D01*
X82838628Y-147180192D02*
X82838628Y-147561144D01*
X83314819Y-146037335D02*
X83314819Y-146608763D01*
X83314819Y-146323049D02*
X82314819Y-146323049D01*
X82314819Y-146323049D02*
X82457676Y-146418287D01*
X82457676Y-146418287D02*
X82552914Y-146513525D01*
X82552914Y-146513525D02*
X82600533Y-146608763D01*
X133379142Y-54556819D02*
X133045809Y-54080628D01*
X132807714Y-54556819D02*
X132807714Y-53556819D01*
X132807714Y-53556819D02*
X133188666Y-53556819D01*
X133188666Y-53556819D02*
X133283904Y-53604438D01*
X133283904Y-53604438D02*
X133331523Y-53652057D01*
X133331523Y-53652057D02*
X133379142Y-53747295D01*
X133379142Y-53747295D02*
X133379142Y-53890152D01*
X133379142Y-53890152D02*
X133331523Y-53985390D01*
X133331523Y-53985390D02*
X133283904Y-54033009D01*
X133283904Y-54033009D02*
X133188666Y-54080628D01*
X133188666Y-54080628D02*
X132807714Y-54080628D01*
X134331523Y-54556819D02*
X133760095Y-54556819D01*
X134045809Y-54556819D02*
X134045809Y-53556819D01*
X134045809Y-53556819D02*
X133950571Y-53699676D01*
X133950571Y-53699676D02*
X133855333Y-53794914D01*
X133855333Y-53794914D02*
X133760095Y-53842533D01*
X135236285Y-53556819D02*
X134760095Y-53556819D01*
X134760095Y-53556819D02*
X134712476Y-54033009D01*
X134712476Y-54033009D02*
X134760095Y-53985390D01*
X134760095Y-53985390D02*
X134855333Y-53937771D01*
X134855333Y-53937771D02*
X135093428Y-53937771D01*
X135093428Y-53937771D02*
X135188666Y-53985390D01*
X135188666Y-53985390D02*
X135236285Y-54033009D01*
X135236285Y-54033009D02*
X135283904Y-54128247D01*
X135283904Y-54128247D02*
X135283904Y-54366342D01*
X135283904Y-54366342D02*
X135236285Y-54461580D01*
X135236285Y-54461580D02*
X135188666Y-54509200D01*
X135188666Y-54509200D02*
X135093428Y-54556819D01*
X135093428Y-54556819D02*
X134855333Y-54556819D01*
X134855333Y-54556819D02*
X134760095Y-54509200D01*
X134760095Y-54509200D02*
X134712476Y-54461580D01*
X129399819Y-108918333D02*
X130114104Y-108918333D01*
X130114104Y-108918333D02*
X130256961Y-108965952D01*
X130256961Y-108965952D02*
X130352200Y-109061190D01*
X130352200Y-109061190D02*
X130399819Y-109204047D01*
X130399819Y-109204047D02*
X130399819Y-109299285D01*
X129828390Y-108299285D02*
X129780771Y-108394523D01*
X129780771Y-108394523D02*
X129733152Y-108442142D01*
X129733152Y-108442142D02*
X129637914Y-108489761D01*
X129637914Y-108489761D02*
X129590295Y-108489761D01*
X129590295Y-108489761D02*
X129495057Y-108442142D01*
X129495057Y-108442142D02*
X129447438Y-108394523D01*
X129447438Y-108394523D02*
X129399819Y-108299285D01*
X129399819Y-108299285D02*
X129399819Y-108108809D01*
X129399819Y-108108809D02*
X129447438Y-108013571D01*
X129447438Y-108013571D02*
X129495057Y-107965952D01*
X129495057Y-107965952D02*
X129590295Y-107918333D01*
X129590295Y-107918333D02*
X129637914Y-107918333D01*
X129637914Y-107918333D02*
X129733152Y-107965952D01*
X129733152Y-107965952D02*
X129780771Y-108013571D01*
X129780771Y-108013571D02*
X129828390Y-108108809D01*
X129828390Y-108108809D02*
X129828390Y-108299285D01*
X129828390Y-108299285D02*
X129876009Y-108394523D01*
X129876009Y-108394523D02*
X129923628Y-108442142D01*
X129923628Y-108442142D02*
X130018866Y-108489761D01*
X130018866Y-108489761D02*
X130209342Y-108489761D01*
X130209342Y-108489761D02*
X130304580Y-108442142D01*
X130304580Y-108442142D02*
X130352200Y-108394523D01*
X130352200Y-108394523D02*
X130399819Y-108299285D01*
X130399819Y-108299285D02*
X130399819Y-108108809D01*
X130399819Y-108108809D02*
X130352200Y-108013571D01*
X130352200Y-108013571D02*
X130304580Y-107965952D01*
X130304580Y-107965952D02*
X130209342Y-107918333D01*
X130209342Y-107918333D02*
X130018866Y-107918333D01*
X130018866Y-107918333D02*
X129923628Y-107965952D01*
X129923628Y-107965952D02*
X129876009Y-108013571D01*
X129876009Y-108013571D02*
X129828390Y-108108809D01*
X59142333Y-114024580D02*
X59094714Y-114072200D01*
X59094714Y-114072200D02*
X58951857Y-114119819D01*
X58951857Y-114119819D02*
X58856619Y-114119819D01*
X58856619Y-114119819D02*
X58713762Y-114072200D01*
X58713762Y-114072200D02*
X58618524Y-113976961D01*
X58618524Y-113976961D02*
X58570905Y-113881723D01*
X58570905Y-113881723D02*
X58523286Y-113691247D01*
X58523286Y-113691247D02*
X58523286Y-113548390D01*
X58523286Y-113548390D02*
X58570905Y-113357914D01*
X58570905Y-113357914D02*
X58618524Y-113262676D01*
X58618524Y-113262676D02*
X58713762Y-113167438D01*
X58713762Y-113167438D02*
X58856619Y-113119819D01*
X58856619Y-113119819D02*
X58951857Y-113119819D01*
X58951857Y-113119819D02*
X59094714Y-113167438D01*
X59094714Y-113167438D02*
X59142333Y-113215057D01*
X59999476Y-113453152D02*
X59999476Y-114119819D01*
X59761381Y-113072200D02*
X59523286Y-113786485D01*
X59523286Y-113786485D02*
X60142333Y-113786485D01*
X108886666Y-54469819D02*
X108886666Y-55184104D01*
X108886666Y-55184104D02*
X108839047Y-55326961D01*
X108839047Y-55326961D02*
X108743809Y-55422200D01*
X108743809Y-55422200D02*
X108600952Y-55469819D01*
X108600952Y-55469819D02*
X108505714Y-55469819D01*
X109839047Y-54469819D02*
X109362857Y-54469819D01*
X109362857Y-54469819D02*
X109315238Y-54946009D01*
X109315238Y-54946009D02*
X109362857Y-54898390D01*
X109362857Y-54898390D02*
X109458095Y-54850771D01*
X109458095Y-54850771D02*
X109696190Y-54850771D01*
X109696190Y-54850771D02*
X109791428Y-54898390D01*
X109791428Y-54898390D02*
X109839047Y-54946009D01*
X109839047Y-54946009D02*
X109886666Y-55041247D01*
X109886666Y-55041247D02*
X109886666Y-55279342D01*
X109886666Y-55279342D02*
X109839047Y-55374580D01*
X109839047Y-55374580D02*
X109791428Y-55422200D01*
X109791428Y-55422200D02*
X109696190Y-55469819D01*
X109696190Y-55469819D02*
X109458095Y-55469819D01*
X109458095Y-55469819D02*
X109362857Y-55422200D01*
X109362857Y-55422200D02*
X109315238Y-55374580D01*
X126801642Y-54556819D02*
X126468309Y-54080628D01*
X126230214Y-54556819D02*
X126230214Y-53556819D01*
X126230214Y-53556819D02*
X126611166Y-53556819D01*
X126611166Y-53556819D02*
X126706404Y-53604438D01*
X126706404Y-53604438D02*
X126754023Y-53652057D01*
X126754023Y-53652057D02*
X126801642Y-53747295D01*
X126801642Y-53747295D02*
X126801642Y-53890152D01*
X126801642Y-53890152D02*
X126754023Y-53985390D01*
X126754023Y-53985390D02*
X126706404Y-54033009D01*
X126706404Y-54033009D02*
X126611166Y-54080628D01*
X126611166Y-54080628D02*
X126230214Y-54080628D01*
X127754023Y-54556819D02*
X127182595Y-54556819D01*
X127468309Y-54556819D02*
X127468309Y-53556819D01*
X127468309Y-53556819D02*
X127373071Y-53699676D01*
X127373071Y-53699676D02*
X127277833Y-53794914D01*
X127277833Y-53794914D02*
X127182595Y-53842533D01*
X128611166Y-53890152D02*
X128611166Y-54556819D01*
X128373071Y-53509200D02*
X128134976Y-54223485D01*
X128134976Y-54223485D02*
X128754023Y-54223485D01*
X45579819Y-126698333D02*
X46294104Y-126698333D01*
X46294104Y-126698333D02*
X46436961Y-126745952D01*
X46436961Y-126745952D02*
X46532200Y-126841190D01*
X46532200Y-126841190D02*
X46579819Y-126984047D01*
X46579819Y-126984047D02*
X46579819Y-127079285D01*
X46579819Y-125698333D02*
X46579819Y-126269761D01*
X46579819Y-125984047D02*
X45579819Y-125984047D01*
X45579819Y-125984047D02*
X45722676Y-126079285D01*
X45722676Y-126079285D02*
X45817914Y-126174523D01*
X45817914Y-126174523D02*
X45865533Y-126269761D01*
X136789319Y-48267857D02*
X136313128Y-48601190D01*
X136789319Y-48839285D02*
X135789319Y-48839285D01*
X135789319Y-48839285D02*
X135789319Y-48458333D01*
X135789319Y-48458333D02*
X135836938Y-48363095D01*
X135836938Y-48363095D02*
X135884557Y-48315476D01*
X135884557Y-48315476D02*
X135979795Y-48267857D01*
X135979795Y-48267857D02*
X136122652Y-48267857D01*
X136122652Y-48267857D02*
X136217890Y-48315476D01*
X136217890Y-48315476D02*
X136265509Y-48363095D01*
X136265509Y-48363095D02*
X136313128Y-48458333D01*
X136313128Y-48458333D02*
X136313128Y-48839285D01*
X136789319Y-47315476D02*
X136789319Y-47886904D01*
X136789319Y-47601190D02*
X135789319Y-47601190D01*
X135789319Y-47601190D02*
X135932176Y-47696428D01*
X135932176Y-47696428D02*
X136027414Y-47791666D01*
X136027414Y-47791666D02*
X136075033Y-47886904D01*
X136789319Y-46839285D02*
X136789319Y-46648809D01*
X136789319Y-46648809D02*
X136741700Y-46553571D01*
X136741700Y-46553571D02*
X136694080Y-46505952D01*
X136694080Y-46505952D02*
X136551223Y-46410714D01*
X136551223Y-46410714D02*
X136360747Y-46363095D01*
X136360747Y-46363095D02*
X135979795Y-46363095D01*
X135979795Y-46363095D02*
X135884557Y-46410714D01*
X135884557Y-46410714D02*
X135836938Y-46458333D01*
X135836938Y-46458333D02*
X135789319Y-46553571D01*
X135789319Y-46553571D02*
X135789319Y-46744047D01*
X135789319Y-46744047D02*
X135836938Y-46839285D01*
X135836938Y-46839285D02*
X135884557Y-46886904D01*
X135884557Y-46886904D02*
X135979795Y-46934523D01*
X135979795Y-46934523D02*
X136217890Y-46934523D01*
X136217890Y-46934523D02*
X136313128Y-46886904D01*
X136313128Y-46886904D02*
X136360747Y-46839285D01*
X136360747Y-46839285D02*
X136408366Y-46744047D01*
X136408366Y-46744047D02*
X136408366Y-46553571D01*
X136408366Y-46553571D02*
X136360747Y-46458333D01*
X136360747Y-46458333D02*
X136313128Y-46410714D01*
X136313128Y-46410714D02*
X136217890Y-46363095D01*
X43608666Y-49619819D02*
X43608666Y-50334104D01*
X43608666Y-50334104D02*
X43561047Y-50476961D01*
X43561047Y-50476961D02*
X43465809Y-50572200D01*
X43465809Y-50572200D02*
X43322952Y-50619819D01*
X43322952Y-50619819D02*
X43227714Y-50619819D01*
X44513428Y-49953152D02*
X44513428Y-50619819D01*
X44275333Y-49572200D02*
X44037238Y-50286485D01*
X44037238Y-50286485D02*
X44656285Y-50286485D01*
X65534819Y-147040516D02*
X65058628Y-147373849D01*
X65534819Y-147611944D02*
X64534819Y-147611944D01*
X64534819Y-147611944D02*
X64534819Y-147230992D01*
X64534819Y-147230992D02*
X64582438Y-147135754D01*
X64582438Y-147135754D02*
X64630057Y-147088135D01*
X64630057Y-147088135D02*
X64725295Y-147040516D01*
X64725295Y-147040516D02*
X64868152Y-147040516D01*
X64868152Y-147040516D02*
X64963390Y-147088135D01*
X64963390Y-147088135D02*
X65011009Y-147135754D01*
X65011009Y-147135754D02*
X65058628Y-147230992D01*
X65058628Y-147230992D02*
X65058628Y-147611944D01*
X64963390Y-146469087D02*
X64915771Y-146564325D01*
X64915771Y-146564325D02*
X64868152Y-146611944D01*
X64868152Y-146611944D02*
X64772914Y-146659563D01*
X64772914Y-146659563D02*
X64725295Y-146659563D01*
X64725295Y-146659563D02*
X64630057Y-146611944D01*
X64630057Y-146611944D02*
X64582438Y-146564325D01*
X64582438Y-146564325D02*
X64534819Y-146469087D01*
X64534819Y-146469087D02*
X64534819Y-146278611D01*
X64534819Y-146278611D02*
X64582438Y-146183373D01*
X64582438Y-146183373D02*
X64630057Y-146135754D01*
X64630057Y-146135754D02*
X64725295Y-146088135D01*
X64725295Y-146088135D02*
X64772914Y-146088135D01*
X64772914Y-146088135D02*
X64868152Y-146135754D01*
X64868152Y-146135754D02*
X64915771Y-146183373D01*
X64915771Y-146183373D02*
X64963390Y-146278611D01*
X64963390Y-146278611D02*
X64963390Y-146469087D01*
X64963390Y-146469087D02*
X65011009Y-146564325D01*
X65011009Y-146564325D02*
X65058628Y-146611944D01*
X65058628Y-146611944D02*
X65153866Y-146659563D01*
X65153866Y-146659563D02*
X65344342Y-146659563D01*
X65344342Y-146659563D02*
X65439580Y-146611944D01*
X65439580Y-146611944D02*
X65487200Y-146564325D01*
X65487200Y-146564325D02*
X65534819Y-146469087D01*
X65534819Y-146469087D02*
X65534819Y-146278611D01*
X65534819Y-146278611D02*
X65487200Y-146183373D01*
X65487200Y-146183373D02*
X65439580Y-146135754D01*
X65439580Y-146135754D02*
X65344342Y-146088135D01*
X65344342Y-146088135D02*
X65153866Y-146088135D01*
X65153866Y-146088135D02*
X65058628Y-146135754D01*
X65058628Y-146135754D02*
X65011009Y-146183373D01*
X65011009Y-146183373D02*
X64963390Y-146278611D01*
X45579819Y-108918333D02*
X46294104Y-108918333D01*
X46294104Y-108918333D02*
X46436961Y-108965952D01*
X46436961Y-108965952D02*
X46532200Y-109061190D01*
X46532200Y-109061190D02*
X46579819Y-109204047D01*
X46579819Y-109204047D02*
X46579819Y-109299285D01*
X45675057Y-108489761D02*
X45627438Y-108442142D01*
X45627438Y-108442142D02*
X45579819Y-108346904D01*
X45579819Y-108346904D02*
X45579819Y-108108809D01*
X45579819Y-108108809D02*
X45627438Y-108013571D01*
X45627438Y-108013571D02*
X45675057Y-107965952D01*
X45675057Y-107965952D02*
X45770295Y-107918333D01*
X45770295Y-107918333D02*
X45865533Y-107918333D01*
X45865533Y-107918333D02*
X46008390Y-107965952D01*
X46008390Y-107965952D02*
X46579819Y-108537380D01*
X46579819Y-108537380D02*
X46579819Y-107918333D01*
X135350261Y-58589057D02*
X135255023Y-58541438D01*
X135255023Y-58541438D02*
X135159785Y-58446200D01*
X135159785Y-58446200D02*
X135016928Y-58303342D01*
X135016928Y-58303342D02*
X134921690Y-58255723D01*
X134921690Y-58255723D02*
X134826452Y-58255723D01*
X134874071Y-58493819D02*
X134778833Y-58446200D01*
X134778833Y-58446200D02*
X134683595Y-58350961D01*
X134683595Y-58350961D02*
X134635976Y-58160485D01*
X134635976Y-58160485D02*
X134635976Y-57827152D01*
X134635976Y-57827152D02*
X134683595Y-57636676D01*
X134683595Y-57636676D02*
X134778833Y-57541438D01*
X134778833Y-57541438D02*
X134874071Y-57493819D01*
X134874071Y-57493819D02*
X135064547Y-57493819D01*
X135064547Y-57493819D02*
X135159785Y-57541438D01*
X135159785Y-57541438D02*
X135255023Y-57636676D01*
X135255023Y-57636676D02*
X135302642Y-57827152D01*
X135302642Y-57827152D02*
X135302642Y-58160485D01*
X135302642Y-58160485D02*
X135255023Y-58350961D01*
X135255023Y-58350961D02*
X135159785Y-58446200D01*
X135159785Y-58446200D02*
X135064547Y-58493819D01*
X135064547Y-58493819D02*
X134874071Y-58493819D01*
X135683595Y-57589057D02*
X135731214Y-57541438D01*
X135731214Y-57541438D02*
X135826452Y-57493819D01*
X135826452Y-57493819D02*
X136064547Y-57493819D01*
X136064547Y-57493819D02*
X136159785Y-57541438D01*
X136159785Y-57541438D02*
X136207404Y-57589057D01*
X136207404Y-57589057D02*
X136255023Y-57684295D01*
X136255023Y-57684295D02*
X136255023Y-57779533D01*
X136255023Y-57779533D02*
X136207404Y-57922390D01*
X136207404Y-57922390D02*
X135635976Y-58493819D01*
X135635976Y-58493819D02*
X136255023Y-58493819D01*
X83050142Y-158696819D02*
X82716809Y-158220628D01*
X82478714Y-158696819D02*
X82478714Y-157696819D01*
X82478714Y-157696819D02*
X82859666Y-157696819D01*
X82859666Y-157696819D02*
X82954904Y-157744438D01*
X82954904Y-157744438D02*
X83002523Y-157792057D01*
X83002523Y-157792057D02*
X83050142Y-157887295D01*
X83050142Y-157887295D02*
X83050142Y-158030152D01*
X83050142Y-158030152D02*
X83002523Y-158125390D01*
X83002523Y-158125390D02*
X82954904Y-158173009D01*
X82954904Y-158173009D02*
X82859666Y-158220628D01*
X82859666Y-158220628D02*
X82478714Y-158220628D01*
X84002523Y-158696819D02*
X83431095Y-158696819D01*
X83716809Y-158696819D02*
X83716809Y-157696819D01*
X83716809Y-157696819D02*
X83621571Y-157839676D01*
X83621571Y-157839676D02*
X83526333Y-157934914D01*
X83526333Y-157934914D02*
X83431095Y-157982533D01*
X84383476Y-157792057D02*
X84431095Y-157744438D01*
X84431095Y-157744438D02*
X84526333Y-157696819D01*
X84526333Y-157696819D02*
X84764428Y-157696819D01*
X84764428Y-157696819D02*
X84859666Y-157744438D01*
X84859666Y-157744438D02*
X84907285Y-157792057D01*
X84907285Y-157792057D02*
X84954904Y-157887295D01*
X84954904Y-157887295D02*
X84954904Y-157982533D01*
X84954904Y-157982533D02*
X84907285Y-158125390D01*
X84907285Y-158125390D02*
X84335857Y-158696819D01*
X84335857Y-158696819D02*
X84954904Y-158696819D01*
X123152819Y-98504333D02*
X123867104Y-98504333D01*
X123867104Y-98504333D02*
X124009961Y-98551952D01*
X124009961Y-98551952D02*
X124105200Y-98647190D01*
X124105200Y-98647190D02*
X124152819Y-98790047D01*
X124152819Y-98790047D02*
X124152819Y-98885285D01*
X123152819Y-97599571D02*
X123152819Y-97790047D01*
X123152819Y-97790047D02*
X123200438Y-97885285D01*
X123200438Y-97885285D02*
X123248057Y-97932904D01*
X123248057Y-97932904D02*
X123390914Y-98028142D01*
X123390914Y-98028142D02*
X123581390Y-98075761D01*
X123581390Y-98075761D02*
X123962342Y-98075761D01*
X123962342Y-98075761D02*
X124057580Y-98028142D01*
X124057580Y-98028142D02*
X124105200Y-97980523D01*
X124105200Y-97980523D02*
X124152819Y-97885285D01*
X124152819Y-97885285D02*
X124152819Y-97694809D01*
X124152819Y-97694809D02*
X124105200Y-97599571D01*
X124105200Y-97599571D02*
X124057580Y-97551952D01*
X124057580Y-97551952D02*
X123962342Y-97504333D01*
X123962342Y-97504333D02*
X123724247Y-97504333D01*
X123724247Y-97504333D02*
X123629009Y-97551952D01*
X123629009Y-97551952D02*
X123581390Y-97599571D01*
X123581390Y-97599571D02*
X123533771Y-97694809D01*
X123533771Y-97694809D02*
X123533771Y-97885285D01*
X123533771Y-97885285D02*
X123581390Y-97980523D01*
X123581390Y-97980523D02*
X123629009Y-98028142D01*
X123629009Y-98028142D02*
X123724247Y-98075761D01*
X75694819Y-146989716D02*
X75218628Y-147323049D01*
X75694819Y-147561144D02*
X74694819Y-147561144D01*
X74694819Y-147561144D02*
X74694819Y-147180192D01*
X74694819Y-147180192D02*
X74742438Y-147084954D01*
X74742438Y-147084954D02*
X74790057Y-147037335D01*
X74790057Y-147037335D02*
X74885295Y-146989716D01*
X74885295Y-146989716D02*
X75028152Y-146989716D01*
X75028152Y-146989716D02*
X75123390Y-147037335D01*
X75123390Y-147037335D02*
X75171009Y-147084954D01*
X75171009Y-147084954D02*
X75218628Y-147180192D01*
X75218628Y-147180192D02*
X75218628Y-147561144D01*
X75028152Y-146132573D02*
X75694819Y-146132573D01*
X74647200Y-146370668D02*
X75361485Y-146608763D01*
X75361485Y-146608763D02*
X75361485Y-145989716D01*
X76446142Y-158696819D02*
X76112809Y-158220628D01*
X75874714Y-158696819D02*
X75874714Y-157696819D01*
X75874714Y-157696819D02*
X76255666Y-157696819D01*
X76255666Y-157696819D02*
X76350904Y-157744438D01*
X76350904Y-157744438D02*
X76398523Y-157792057D01*
X76398523Y-157792057D02*
X76446142Y-157887295D01*
X76446142Y-157887295D02*
X76446142Y-158030152D01*
X76446142Y-158030152D02*
X76398523Y-158125390D01*
X76398523Y-158125390D02*
X76350904Y-158173009D01*
X76350904Y-158173009D02*
X76255666Y-158220628D01*
X76255666Y-158220628D02*
X75874714Y-158220628D01*
X77398523Y-158696819D02*
X76827095Y-158696819D01*
X77112809Y-158696819D02*
X77112809Y-157696819D01*
X77112809Y-157696819D02*
X77017571Y-157839676D01*
X77017571Y-157839676D02*
X76922333Y-157934914D01*
X76922333Y-157934914D02*
X76827095Y-157982533D01*
X78017571Y-157696819D02*
X78112809Y-157696819D01*
X78112809Y-157696819D02*
X78208047Y-157744438D01*
X78208047Y-157744438D02*
X78255666Y-157792057D01*
X78255666Y-157792057D02*
X78303285Y-157887295D01*
X78303285Y-157887295D02*
X78350904Y-158077771D01*
X78350904Y-158077771D02*
X78350904Y-158315866D01*
X78350904Y-158315866D02*
X78303285Y-158506342D01*
X78303285Y-158506342D02*
X78255666Y-158601580D01*
X78255666Y-158601580D02*
X78208047Y-158649200D01*
X78208047Y-158649200D02*
X78112809Y-158696819D01*
X78112809Y-158696819D02*
X78017571Y-158696819D01*
X78017571Y-158696819D02*
X77922333Y-158649200D01*
X77922333Y-158649200D02*
X77874714Y-158601580D01*
X77874714Y-158601580D02*
X77827095Y-158506342D01*
X77827095Y-158506342D02*
X77779476Y-158315866D01*
X77779476Y-158315866D02*
X77779476Y-158077771D01*
X77779476Y-158077771D02*
X77827095Y-157887295D01*
X77827095Y-157887295D02*
X77874714Y-157792057D01*
X77874714Y-157792057D02*
X77922333Y-157744438D01*
X77922333Y-157744438D02*
X78017571Y-157696819D01*
X131939819Y-126698333D02*
X132654104Y-126698333D01*
X132654104Y-126698333D02*
X132796961Y-126745952D01*
X132796961Y-126745952D02*
X132892200Y-126841190D01*
X132892200Y-126841190D02*
X132939819Y-126984047D01*
X132939819Y-126984047D02*
X132939819Y-127079285D01*
X131939819Y-126317380D02*
X131939819Y-125650714D01*
X131939819Y-125650714D02*
X132939819Y-126079285D01*
X116832142Y-153256819D02*
X116498809Y-152780628D01*
X116260714Y-153256819D02*
X116260714Y-152256819D01*
X116260714Y-152256819D02*
X116641666Y-152256819D01*
X116641666Y-152256819D02*
X116736904Y-152304438D01*
X116736904Y-152304438D02*
X116784523Y-152352057D01*
X116784523Y-152352057D02*
X116832142Y-152447295D01*
X116832142Y-152447295D02*
X116832142Y-152590152D01*
X116832142Y-152590152D02*
X116784523Y-152685390D01*
X116784523Y-152685390D02*
X116736904Y-152733009D01*
X116736904Y-152733009D02*
X116641666Y-152780628D01*
X116641666Y-152780628D02*
X116260714Y-152780628D01*
X117213095Y-152352057D02*
X117260714Y-152304438D01*
X117260714Y-152304438D02*
X117355952Y-152256819D01*
X117355952Y-152256819D02*
X117594047Y-152256819D01*
X117594047Y-152256819D02*
X117689285Y-152304438D01*
X117689285Y-152304438D02*
X117736904Y-152352057D01*
X117736904Y-152352057D02*
X117784523Y-152447295D01*
X117784523Y-152447295D02*
X117784523Y-152542533D01*
X117784523Y-152542533D02*
X117736904Y-152685390D01*
X117736904Y-152685390D02*
X117165476Y-153256819D01*
X117165476Y-153256819D02*
X117784523Y-153256819D01*
X118117857Y-152256819D02*
X118736904Y-152256819D01*
X118736904Y-152256819D02*
X118403571Y-152637771D01*
X118403571Y-152637771D02*
X118546428Y-152637771D01*
X118546428Y-152637771D02*
X118641666Y-152685390D01*
X118641666Y-152685390D02*
X118689285Y-152733009D01*
X118689285Y-152733009D02*
X118736904Y-152828247D01*
X118736904Y-152828247D02*
X118736904Y-153066342D01*
X118736904Y-153066342D02*
X118689285Y-153161580D01*
X118689285Y-153161580D02*
X118641666Y-153209200D01*
X118641666Y-153209200D02*
X118546428Y-153256819D01*
X118546428Y-153256819D02*
X118260714Y-153256819D01*
X118260714Y-153256819D02*
X118165476Y-153209200D01*
X118165476Y-153209200D02*
X118117857Y-153161580D01*
X113992819Y-61602857D02*
X113516628Y-61936190D01*
X113992819Y-62174285D02*
X112992819Y-62174285D01*
X112992819Y-62174285D02*
X112992819Y-61793333D01*
X112992819Y-61793333D02*
X113040438Y-61698095D01*
X113040438Y-61698095D02*
X113088057Y-61650476D01*
X113088057Y-61650476D02*
X113183295Y-61602857D01*
X113183295Y-61602857D02*
X113326152Y-61602857D01*
X113326152Y-61602857D02*
X113421390Y-61650476D01*
X113421390Y-61650476D02*
X113469009Y-61698095D01*
X113469009Y-61698095D02*
X113516628Y-61793333D01*
X113516628Y-61793333D02*
X113516628Y-62174285D01*
X113992819Y-60650476D02*
X113992819Y-61221904D01*
X113992819Y-60936190D02*
X112992819Y-60936190D01*
X112992819Y-60936190D02*
X113135676Y-61031428D01*
X113135676Y-61031428D02*
X113230914Y-61126666D01*
X113230914Y-61126666D02*
X113278533Y-61221904D01*
X112992819Y-60317142D02*
X112992819Y-59698095D01*
X112992819Y-59698095D02*
X113373771Y-60031428D01*
X113373771Y-60031428D02*
X113373771Y-59888571D01*
X113373771Y-59888571D02*
X113421390Y-59793333D01*
X113421390Y-59793333D02*
X113469009Y-59745714D01*
X113469009Y-59745714D02*
X113564247Y-59698095D01*
X113564247Y-59698095D02*
X113802342Y-59698095D01*
X113802342Y-59698095D02*
X113897580Y-59745714D01*
X113897580Y-59745714D02*
X113945200Y-59793333D01*
X113945200Y-59793333D02*
X113992819Y-59888571D01*
X113992819Y-59888571D02*
X113992819Y-60174285D01*
X113992819Y-60174285D02*
X113945200Y-60269523D01*
X113945200Y-60269523D02*
X113897580Y-60317142D01*
D15*
X114107419Y-143152738D02*
X113631228Y-143486071D01*
X114107419Y-143724166D02*
X113107419Y-143724166D01*
X113107419Y-143724166D02*
X113107419Y-143343214D01*
X113107419Y-143343214D02*
X113155038Y-143247976D01*
X113155038Y-143247976D02*
X113202657Y-143200357D01*
X113202657Y-143200357D02*
X113297895Y-143152738D01*
X113297895Y-143152738D02*
X113440752Y-143152738D01*
X113440752Y-143152738D02*
X113535990Y-143200357D01*
X113535990Y-143200357D02*
X113583609Y-143247976D01*
X113583609Y-143247976D02*
X113631228Y-143343214D01*
X113631228Y-143343214D02*
X113631228Y-143724166D01*
X113107419Y-142867023D02*
X114107419Y-142533690D01*
X114107419Y-142533690D02*
X113107419Y-142200357D01*
X114107419Y-141343214D02*
X114107419Y-141914642D01*
X114107419Y-141628928D02*
X113107419Y-141628928D01*
X113107419Y-141628928D02*
X113250276Y-141724166D01*
X113250276Y-141724166D02*
X113345514Y-141819404D01*
X113345514Y-141819404D02*
X113393133Y-141914642D01*
D14*
X122698333Y-101422080D02*
X122650714Y-101469700D01*
X122650714Y-101469700D02*
X122507857Y-101517319D01*
X122507857Y-101517319D02*
X122412619Y-101517319D01*
X122412619Y-101517319D02*
X122269762Y-101469700D01*
X122269762Y-101469700D02*
X122174524Y-101374461D01*
X122174524Y-101374461D02*
X122126905Y-101279223D01*
X122126905Y-101279223D02*
X122079286Y-101088747D01*
X122079286Y-101088747D02*
X122079286Y-100945890D01*
X122079286Y-100945890D02*
X122126905Y-100755414D01*
X122126905Y-100755414D02*
X122174524Y-100660176D01*
X122174524Y-100660176D02*
X122269762Y-100564938D01*
X122269762Y-100564938D02*
X122412619Y-100517319D01*
X122412619Y-100517319D02*
X122507857Y-100517319D01*
X122507857Y-100517319D02*
X122650714Y-100564938D01*
X122650714Y-100564938D02*
X122698333Y-100612557D01*
X123031667Y-100517319D02*
X123650714Y-100517319D01*
X123650714Y-100517319D02*
X123317381Y-100898271D01*
X123317381Y-100898271D02*
X123460238Y-100898271D01*
X123460238Y-100898271D02*
X123555476Y-100945890D01*
X123555476Y-100945890D02*
X123603095Y-100993509D01*
X123603095Y-100993509D02*
X123650714Y-101088747D01*
X123650714Y-101088747D02*
X123650714Y-101326842D01*
X123650714Y-101326842D02*
X123603095Y-101422080D01*
X123603095Y-101422080D02*
X123555476Y-101469700D01*
X123555476Y-101469700D02*
X123460238Y-101517319D01*
X123460238Y-101517319D02*
X123174524Y-101517319D01*
X123174524Y-101517319D02*
X123079286Y-101469700D01*
X123079286Y-101469700D02*
X123031667Y-101422080D01*
X80774819Y-146989716D02*
X80298628Y-147323049D01*
X80774819Y-147561144D02*
X79774819Y-147561144D01*
X79774819Y-147561144D02*
X79774819Y-147180192D01*
X79774819Y-147180192D02*
X79822438Y-147084954D01*
X79822438Y-147084954D02*
X79870057Y-147037335D01*
X79870057Y-147037335D02*
X79965295Y-146989716D01*
X79965295Y-146989716D02*
X80108152Y-146989716D01*
X80108152Y-146989716D02*
X80203390Y-147037335D01*
X80203390Y-147037335D02*
X80251009Y-147084954D01*
X80251009Y-147084954D02*
X80298628Y-147180192D01*
X80298628Y-147180192D02*
X80298628Y-147561144D01*
X79870057Y-146608763D02*
X79822438Y-146561144D01*
X79822438Y-146561144D02*
X79774819Y-146465906D01*
X79774819Y-146465906D02*
X79774819Y-146227811D01*
X79774819Y-146227811D02*
X79822438Y-146132573D01*
X79822438Y-146132573D02*
X79870057Y-146084954D01*
X79870057Y-146084954D02*
X79965295Y-146037335D01*
X79965295Y-146037335D02*
X80060533Y-146037335D01*
X80060533Y-146037335D02*
X80203390Y-146084954D01*
X80203390Y-146084954D02*
X80774819Y-146656382D01*
X80774819Y-146656382D02*
X80774819Y-146037335D01*
X79748142Y-158696819D02*
X79414809Y-158220628D01*
X79176714Y-158696819D02*
X79176714Y-157696819D01*
X79176714Y-157696819D02*
X79557666Y-157696819D01*
X79557666Y-157696819D02*
X79652904Y-157744438D01*
X79652904Y-157744438D02*
X79700523Y-157792057D01*
X79700523Y-157792057D02*
X79748142Y-157887295D01*
X79748142Y-157887295D02*
X79748142Y-158030152D01*
X79748142Y-158030152D02*
X79700523Y-158125390D01*
X79700523Y-158125390D02*
X79652904Y-158173009D01*
X79652904Y-158173009D02*
X79557666Y-158220628D01*
X79557666Y-158220628D02*
X79176714Y-158220628D01*
X80700523Y-158696819D02*
X80129095Y-158696819D01*
X80414809Y-158696819D02*
X80414809Y-157696819D01*
X80414809Y-157696819D02*
X80319571Y-157839676D01*
X80319571Y-157839676D02*
X80224333Y-157934914D01*
X80224333Y-157934914D02*
X80129095Y-157982533D01*
X81652904Y-158696819D02*
X81081476Y-158696819D01*
X81367190Y-158696819D02*
X81367190Y-157696819D01*
X81367190Y-157696819D02*
X81271952Y-157839676D01*
X81271952Y-157839676D02*
X81176714Y-157934914D01*
X81176714Y-157934914D02*
X81081476Y-157982533D01*
X70614819Y-146988616D02*
X70138628Y-147321949D01*
X70614819Y-147560044D02*
X69614819Y-147560044D01*
X69614819Y-147560044D02*
X69614819Y-147179092D01*
X69614819Y-147179092D02*
X69662438Y-147083854D01*
X69662438Y-147083854D02*
X69710057Y-147036235D01*
X69710057Y-147036235D02*
X69805295Y-146988616D01*
X69805295Y-146988616D02*
X69948152Y-146988616D01*
X69948152Y-146988616D02*
X70043390Y-147036235D01*
X70043390Y-147036235D02*
X70091009Y-147083854D01*
X70091009Y-147083854D02*
X70138628Y-147179092D01*
X70138628Y-147179092D02*
X70138628Y-147560044D01*
X69614819Y-146131473D02*
X69614819Y-146321949D01*
X69614819Y-146321949D02*
X69662438Y-146417187D01*
X69662438Y-146417187D02*
X69710057Y-146464806D01*
X69710057Y-146464806D02*
X69852914Y-146560044D01*
X69852914Y-146560044D02*
X70043390Y-146607663D01*
X70043390Y-146607663D02*
X70424342Y-146607663D01*
X70424342Y-146607663D02*
X70519580Y-146560044D01*
X70519580Y-146560044D02*
X70567200Y-146512425D01*
X70567200Y-146512425D02*
X70614819Y-146417187D01*
X70614819Y-146417187D02*
X70614819Y-146226711D01*
X70614819Y-146226711D02*
X70567200Y-146131473D01*
X70567200Y-146131473D02*
X70519580Y-146083854D01*
X70519580Y-146083854D02*
X70424342Y-146036235D01*
X70424342Y-146036235D02*
X70186247Y-146036235D01*
X70186247Y-146036235D02*
X70091009Y-146083854D01*
X70091009Y-146083854D02*
X70043390Y-146131473D01*
X70043390Y-146131473D02*
X69995771Y-146226711D01*
X69995771Y-146226711D02*
X69995771Y-146417187D01*
X69995771Y-146417187D02*
X70043390Y-146512425D01*
X70043390Y-146512425D02*
X70091009Y-146560044D01*
X70091009Y-146560044D02*
X70186247Y-146607663D01*
X130312319Y-48267857D02*
X129836128Y-48601190D01*
X130312319Y-48839285D02*
X129312319Y-48839285D01*
X129312319Y-48839285D02*
X129312319Y-48458333D01*
X129312319Y-48458333D02*
X129359938Y-48363095D01*
X129359938Y-48363095D02*
X129407557Y-48315476D01*
X129407557Y-48315476D02*
X129502795Y-48267857D01*
X129502795Y-48267857D02*
X129645652Y-48267857D01*
X129645652Y-48267857D02*
X129740890Y-48315476D01*
X129740890Y-48315476D02*
X129788509Y-48363095D01*
X129788509Y-48363095D02*
X129836128Y-48458333D01*
X129836128Y-48458333D02*
X129836128Y-48839285D01*
X130312319Y-47315476D02*
X130312319Y-47886904D01*
X130312319Y-47601190D02*
X129312319Y-47601190D01*
X129312319Y-47601190D02*
X129455176Y-47696428D01*
X129455176Y-47696428D02*
X129550414Y-47791666D01*
X129550414Y-47791666D02*
X129598033Y-47886904D01*
X129740890Y-46744047D02*
X129693271Y-46839285D01*
X129693271Y-46839285D02*
X129645652Y-46886904D01*
X129645652Y-46886904D02*
X129550414Y-46934523D01*
X129550414Y-46934523D02*
X129502795Y-46934523D01*
X129502795Y-46934523D02*
X129407557Y-46886904D01*
X129407557Y-46886904D02*
X129359938Y-46839285D01*
X129359938Y-46839285D02*
X129312319Y-46744047D01*
X129312319Y-46744047D02*
X129312319Y-46553571D01*
X129312319Y-46553571D02*
X129359938Y-46458333D01*
X129359938Y-46458333D02*
X129407557Y-46410714D01*
X129407557Y-46410714D02*
X129502795Y-46363095D01*
X129502795Y-46363095D02*
X129550414Y-46363095D01*
X129550414Y-46363095D02*
X129645652Y-46410714D01*
X129645652Y-46410714D02*
X129693271Y-46458333D01*
X129693271Y-46458333D02*
X129740890Y-46553571D01*
X129740890Y-46553571D02*
X129740890Y-46744047D01*
X129740890Y-46744047D02*
X129788509Y-46839285D01*
X129788509Y-46839285D02*
X129836128Y-46886904D01*
X129836128Y-46886904D02*
X129931366Y-46934523D01*
X129931366Y-46934523D02*
X130121842Y-46934523D01*
X130121842Y-46934523D02*
X130217080Y-46886904D01*
X130217080Y-46886904D02*
X130264700Y-46839285D01*
X130264700Y-46839285D02*
X130312319Y-46744047D01*
X130312319Y-46744047D02*
X130312319Y-46553571D01*
X130312319Y-46553571D02*
X130264700Y-46458333D01*
X130264700Y-46458333D02*
X130217080Y-46410714D01*
X130217080Y-46410714D02*
X130121842Y-46363095D01*
X130121842Y-46363095D02*
X129931366Y-46363095D01*
X129931366Y-46363095D02*
X129836128Y-46410714D01*
X129836128Y-46410714D02*
X129788509Y-46458333D01*
X129788509Y-46458333D02*
X129740890Y-46553571D01*
X63968333Y-112915580D02*
X63920714Y-112963200D01*
X63920714Y-112963200D02*
X63777857Y-113010819D01*
X63777857Y-113010819D02*
X63682619Y-113010819D01*
X63682619Y-113010819D02*
X63539762Y-112963200D01*
X63539762Y-112963200D02*
X63444524Y-112867961D01*
X63444524Y-112867961D02*
X63396905Y-112772723D01*
X63396905Y-112772723D02*
X63349286Y-112582247D01*
X63349286Y-112582247D02*
X63349286Y-112439390D01*
X63349286Y-112439390D02*
X63396905Y-112248914D01*
X63396905Y-112248914D02*
X63444524Y-112153676D01*
X63444524Y-112153676D02*
X63539762Y-112058438D01*
X63539762Y-112058438D02*
X63682619Y-112010819D01*
X63682619Y-112010819D02*
X63777857Y-112010819D01*
X63777857Y-112010819D02*
X63920714Y-112058438D01*
X63920714Y-112058438D02*
X63968333Y-112106057D01*
X64873095Y-112010819D02*
X64396905Y-112010819D01*
X64396905Y-112010819D02*
X64349286Y-112487009D01*
X64349286Y-112487009D02*
X64396905Y-112439390D01*
X64396905Y-112439390D02*
X64492143Y-112391771D01*
X64492143Y-112391771D02*
X64730238Y-112391771D01*
X64730238Y-112391771D02*
X64825476Y-112439390D01*
X64825476Y-112439390D02*
X64873095Y-112487009D01*
X64873095Y-112487009D02*
X64920714Y-112582247D01*
X64920714Y-112582247D02*
X64920714Y-112820342D01*
X64920714Y-112820342D02*
X64873095Y-112915580D01*
X64873095Y-112915580D02*
X64825476Y-112963200D01*
X64825476Y-112963200D02*
X64730238Y-113010819D01*
X64730238Y-113010819D02*
X64492143Y-113010819D01*
X64492143Y-113010819D02*
X64396905Y-112963200D01*
X64396905Y-112963200D02*
X64349286Y-112915580D01*
X121326142Y-155106819D02*
X120992809Y-154630628D01*
X120754714Y-155106819D02*
X120754714Y-154106819D01*
X120754714Y-154106819D02*
X121135666Y-154106819D01*
X121135666Y-154106819D02*
X121230904Y-154154438D01*
X121230904Y-154154438D02*
X121278523Y-154202057D01*
X121278523Y-154202057D02*
X121326142Y-154297295D01*
X121326142Y-154297295D02*
X121326142Y-154440152D01*
X121326142Y-154440152D02*
X121278523Y-154535390D01*
X121278523Y-154535390D02*
X121230904Y-154583009D01*
X121230904Y-154583009D02*
X121135666Y-154630628D01*
X121135666Y-154630628D02*
X120754714Y-154630628D01*
X121707095Y-154202057D02*
X121754714Y-154154438D01*
X121754714Y-154154438D02*
X121849952Y-154106819D01*
X121849952Y-154106819D02*
X122088047Y-154106819D01*
X122088047Y-154106819D02*
X122183285Y-154154438D01*
X122183285Y-154154438D02*
X122230904Y-154202057D01*
X122230904Y-154202057D02*
X122278523Y-154297295D01*
X122278523Y-154297295D02*
X122278523Y-154392533D01*
X122278523Y-154392533D02*
X122230904Y-154535390D01*
X122230904Y-154535390D02*
X121659476Y-155106819D01*
X121659476Y-155106819D02*
X122278523Y-155106819D01*
X123135666Y-154440152D02*
X123135666Y-155106819D01*
X122897571Y-154059200D02*
X122659476Y-154773485D01*
X122659476Y-154773485D02*
X123278523Y-154773485D01*
X135144761Y-64431057D02*
X135049523Y-64383438D01*
X135049523Y-64383438D02*
X134954285Y-64288200D01*
X134954285Y-64288200D02*
X134811428Y-64145342D01*
X134811428Y-64145342D02*
X134716190Y-64097723D01*
X134716190Y-64097723D02*
X134620952Y-64097723D01*
X134668571Y-64335819D02*
X134573333Y-64288200D01*
X134573333Y-64288200D02*
X134478095Y-64192961D01*
X134478095Y-64192961D02*
X134430476Y-64002485D01*
X134430476Y-64002485D02*
X134430476Y-63669152D01*
X134430476Y-63669152D02*
X134478095Y-63478676D01*
X134478095Y-63478676D02*
X134573333Y-63383438D01*
X134573333Y-63383438D02*
X134668571Y-63335819D01*
X134668571Y-63335819D02*
X134859047Y-63335819D01*
X134859047Y-63335819D02*
X134954285Y-63383438D01*
X134954285Y-63383438D02*
X135049523Y-63478676D01*
X135049523Y-63478676D02*
X135097142Y-63669152D01*
X135097142Y-63669152D02*
X135097142Y-64002485D01*
X135097142Y-64002485D02*
X135049523Y-64192961D01*
X135049523Y-64192961D02*
X134954285Y-64288200D01*
X134954285Y-64288200D02*
X134859047Y-64335819D01*
X134859047Y-64335819D02*
X134668571Y-64335819D01*
X135954285Y-63335819D02*
X135763809Y-63335819D01*
X135763809Y-63335819D02*
X135668571Y-63383438D01*
X135668571Y-63383438D02*
X135620952Y-63431057D01*
X135620952Y-63431057D02*
X135525714Y-63573914D01*
X135525714Y-63573914D02*
X135478095Y-63764390D01*
X135478095Y-63764390D02*
X135478095Y-64145342D01*
X135478095Y-64145342D02*
X135525714Y-64240580D01*
X135525714Y-64240580D02*
X135573333Y-64288200D01*
X135573333Y-64288200D02*
X135668571Y-64335819D01*
X135668571Y-64335819D02*
X135859047Y-64335819D01*
X135859047Y-64335819D02*
X135954285Y-64288200D01*
X135954285Y-64288200D02*
X136001904Y-64240580D01*
X136001904Y-64240580D02*
X136049523Y-64145342D01*
X136049523Y-64145342D02*
X136049523Y-63907247D01*
X136049523Y-63907247D02*
X136001904Y-63812009D01*
X136001904Y-63812009D02*
X135954285Y-63764390D01*
X135954285Y-63764390D02*
X135859047Y-63716771D01*
X135859047Y-63716771D02*
X135668571Y-63716771D01*
X135668571Y-63716771D02*
X135573333Y-63764390D01*
X135573333Y-63764390D02*
X135525714Y-63812009D01*
X135525714Y-63812009D02*
X135478095Y-63907247D01*
X128746261Y-58589057D02*
X128651023Y-58541438D01*
X128651023Y-58541438D02*
X128555785Y-58446200D01*
X128555785Y-58446200D02*
X128412928Y-58303342D01*
X128412928Y-58303342D02*
X128317690Y-58255723D01*
X128317690Y-58255723D02*
X128222452Y-58255723D01*
X128270071Y-58493819D02*
X128174833Y-58446200D01*
X128174833Y-58446200D02*
X128079595Y-58350961D01*
X128079595Y-58350961D02*
X128031976Y-58160485D01*
X128031976Y-58160485D02*
X128031976Y-57827152D01*
X128031976Y-57827152D02*
X128079595Y-57636676D01*
X128079595Y-57636676D02*
X128174833Y-57541438D01*
X128174833Y-57541438D02*
X128270071Y-57493819D01*
X128270071Y-57493819D02*
X128460547Y-57493819D01*
X128460547Y-57493819D02*
X128555785Y-57541438D01*
X128555785Y-57541438D02*
X128651023Y-57636676D01*
X128651023Y-57636676D02*
X128698642Y-57827152D01*
X128698642Y-57827152D02*
X128698642Y-58160485D01*
X128698642Y-58160485D02*
X128651023Y-58350961D01*
X128651023Y-58350961D02*
X128555785Y-58446200D01*
X128555785Y-58446200D02*
X128460547Y-58493819D01*
X128460547Y-58493819D02*
X128270071Y-58493819D01*
X129651023Y-58493819D02*
X129079595Y-58493819D01*
X129365309Y-58493819D02*
X129365309Y-57493819D01*
X129365309Y-57493819D02*
X129270071Y-57636676D01*
X129270071Y-57636676D02*
X129174833Y-57731914D01*
X129174833Y-57731914D02*
X129079595Y-57779533D01*
X136789319Y-51340857D02*
X136313128Y-51674190D01*
X136789319Y-51912285D02*
X135789319Y-51912285D01*
X135789319Y-51912285D02*
X135789319Y-51531333D01*
X135789319Y-51531333D02*
X135836938Y-51436095D01*
X135836938Y-51436095D02*
X135884557Y-51388476D01*
X135884557Y-51388476D02*
X135979795Y-51340857D01*
X135979795Y-51340857D02*
X136122652Y-51340857D01*
X136122652Y-51340857D02*
X136217890Y-51388476D01*
X136217890Y-51388476D02*
X136265509Y-51436095D01*
X136265509Y-51436095D02*
X136313128Y-51531333D01*
X136313128Y-51531333D02*
X136313128Y-51912285D01*
X136789319Y-50388476D02*
X136789319Y-50959904D01*
X136789319Y-50674190D02*
X135789319Y-50674190D01*
X135789319Y-50674190D02*
X135932176Y-50769428D01*
X135932176Y-50769428D02*
X136027414Y-50864666D01*
X136027414Y-50864666D02*
X136075033Y-50959904D01*
X135789319Y-49531333D02*
X135789319Y-49721809D01*
X135789319Y-49721809D02*
X135836938Y-49817047D01*
X135836938Y-49817047D02*
X135884557Y-49864666D01*
X135884557Y-49864666D02*
X136027414Y-49959904D01*
X136027414Y-49959904D02*
X136217890Y-50007523D01*
X136217890Y-50007523D02*
X136598842Y-50007523D01*
X136598842Y-50007523D02*
X136694080Y-49959904D01*
X136694080Y-49959904D02*
X136741700Y-49912285D01*
X136741700Y-49912285D02*
X136789319Y-49817047D01*
X136789319Y-49817047D02*
X136789319Y-49626571D01*
X136789319Y-49626571D02*
X136741700Y-49531333D01*
X136741700Y-49531333D02*
X136694080Y-49483714D01*
X136694080Y-49483714D02*
X136598842Y-49436095D01*
X136598842Y-49436095D02*
X136360747Y-49436095D01*
X136360747Y-49436095D02*
X136265509Y-49483714D01*
X136265509Y-49483714D02*
X136217890Y-49531333D01*
X136217890Y-49531333D02*
X136170271Y-49626571D01*
X136170271Y-49626571D02*
X136170271Y-49817047D01*
X136170271Y-49817047D02*
X136217890Y-49912285D01*
X136217890Y-49912285D02*
X136265509Y-49959904D01*
X136265509Y-49959904D02*
X136360747Y-50007523D01*
X45934333Y-49347580D02*
X45886714Y-49395200D01*
X45886714Y-49395200D02*
X45743857Y-49442819D01*
X45743857Y-49442819D02*
X45648619Y-49442819D01*
X45648619Y-49442819D02*
X45505762Y-49395200D01*
X45505762Y-49395200D02*
X45410524Y-49299961D01*
X45410524Y-49299961D02*
X45362905Y-49204723D01*
X45362905Y-49204723D02*
X45315286Y-49014247D01*
X45315286Y-49014247D02*
X45315286Y-48871390D01*
X45315286Y-48871390D02*
X45362905Y-48680914D01*
X45362905Y-48680914D02*
X45410524Y-48585676D01*
X45410524Y-48585676D02*
X45505762Y-48490438D01*
X45505762Y-48490438D02*
X45648619Y-48442819D01*
X45648619Y-48442819D02*
X45743857Y-48442819D01*
X45743857Y-48442819D02*
X45886714Y-48490438D01*
X45886714Y-48490438D02*
X45934333Y-48538057D01*
X46315286Y-48538057D02*
X46362905Y-48490438D01*
X46362905Y-48490438D02*
X46458143Y-48442819D01*
X46458143Y-48442819D02*
X46696238Y-48442819D01*
X46696238Y-48442819D02*
X46791476Y-48490438D01*
X46791476Y-48490438D02*
X46839095Y-48538057D01*
X46839095Y-48538057D02*
X46886714Y-48633295D01*
X46886714Y-48633295D02*
X46886714Y-48728533D01*
X46886714Y-48728533D02*
X46839095Y-48871390D01*
X46839095Y-48871390D02*
X46267667Y-49442819D01*
X46267667Y-49442819D02*
X46886714Y-49442819D01*
X78234819Y-146989716D02*
X77758628Y-147323049D01*
X78234819Y-147561144D02*
X77234819Y-147561144D01*
X77234819Y-147561144D02*
X77234819Y-147180192D01*
X77234819Y-147180192D02*
X77282438Y-147084954D01*
X77282438Y-147084954D02*
X77330057Y-147037335D01*
X77330057Y-147037335D02*
X77425295Y-146989716D01*
X77425295Y-146989716D02*
X77568152Y-146989716D01*
X77568152Y-146989716D02*
X77663390Y-147037335D01*
X77663390Y-147037335D02*
X77711009Y-147084954D01*
X77711009Y-147084954D02*
X77758628Y-147180192D01*
X77758628Y-147180192D02*
X77758628Y-147561144D01*
X77234819Y-146656382D02*
X77234819Y-146037335D01*
X77234819Y-146037335D02*
X77615771Y-146370668D01*
X77615771Y-146370668D02*
X77615771Y-146227811D01*
X77615771Y-146227811D02*
X77663390Y-146132573D01*
X77663390Y-146132573D02*
X77711009Y-146084954D01*
X77711009Y-146084954D02*
X77806247Y-146037335D01*
X77806247Y-146037335D02*
X78044342Y-146037335D01*
X78044342Y-146037335D02*
X78139580Y-146084954D01*
X78139580Y-146084954D02*
X78187200Y-146132573D01*
X78187200Y-146132573D02*
X78234819Y-146227811D01*
X78234819Y-146227811D02*
X78234819Y-146513525D01*
X78234819Y-146513525D02*
X78187200Y-146608763D01*
X78187200Y-146608763D02*
X78139580Y-146656382D01*
X133303142Y-60271819D02*
X132969809Y-59795628D01*
X132731714Y-60271819D02*
X132731714Y-59271819D01*
X132731714Y-59271819D02*
X133112666Y-59271819D01*
X133112666Y-59271819D02*
X133207904Y-59319438D01*
X133207904Y-59319438D02*
X133255523Y-59367057D01*
X133255523Y-59367057D02*
X133303142Y-59462295D01*
X133303142Y-59462295D02*
X133303142Y-59605152D01*
X133303142Y-59605152D02*
X133255523Y-59700390D01*
X133255523Y-59700390D02*
X133207904Y-59748009D01*
X133207904Y-59748009D02*
X133112666Y-59795628D01*
X133112666Y-59795628D02*
X132731714Y-59795628D01*
X133684095Y-59367057D02*
X133731714Y-59319438D01*
X133731714Y-59319438D02*
X133826952Y-59271819D01*
X133826952Y-59271819D02*
X134065047Y-59271819D01*
X134065047Y-59271819D02*
X134160285Y-59319438D01*
X134160285Y-59319438D02*
X134207904Y-59367057D01*
X134207904Y-59367057D02*
X134255523Y-59462295D01*
X134255523Y-59462295D02*
X134255523Y-59557533D01*
X134255523Y-59557533D02*
X134207904Y-59700390D01*
X134207904Y-59700390D02*
X133636476Y-60271819D01*
X133636476Y-60271819D02*
X134255523Y-60271819D01*
X135207904Y-60271819D02*
X134636476Y-60271819D01*
X134922190Y-60271819D02*
X134922190Y-59271819D01*
X134922190Y-59271819D02*
X134826952Y-59414676D01*
X134826952Y-59414676D02*
X134731714Y-59509914D01*
X134731714Y-59509914D02*
X134636476Y-59557533D01*
D16*
%TO.C,Q5*%
X125971000Y-60863000D02*
X127491000Y-60863000D01*
X125971000Y-60913000D02*
X125971000Y-60863000D01*
X125971000Y-62813000D02*
X125971000Y-62033000D01*
X125971000Y-63983000D02*
X125971000Y-63933000D01*
X127491000Y-60863000D02*
X127491000Y-61863000D01*
X127491000Y-62983000D02*
X127491000Y-63983000D01*
X127491000Y-63983000D02*
X125971000Y-63983000D01*
X125671000Y-62373000D02*
X125191000Y-62373000D01*
X125431000Y-62043000D01*
X125671000Y-62373000D01*
G36*
X125671000Y-62373000D02*
G01*
X125191000Y-62373000D01*
X125431000Y-62043000D01*
X125671000Y-62373000D01*
G37*
%TO.C,J3*%
X63750000Y-151388050D02*
X65080000Y-151388050D01*
X63750000Y-152718050D02*
X63750000Y-151388050D01*
X66350000Y-151388050D02*
X84190000Y-151388050D01*
X66350000Y-154048050D02*
X66350000Y-151388050D01*
X66350000Y-154048050D02*
X84190000Y-154048050D01*
X84190000Y-154048050D02*
X84190000Y-151388050D01*
%TO.C,LS1*%
D15*
X137978500Y-56435000D02*
X141978500Y-56435000D01*
X141978500Y-46435000D01*
X137978500Y-46435000D01*
X137978500Y-56435000D01*
D16*
%TO.C,Q4*%
X131686000Y-47614000D02*
X133206000Y-47614000D01*
X131686000Y-48614000D02*
X131686000Y-47614000D01*
X131686000Y-50734000D02*
X131686000Y-49734000D01*
X133206000Y-47614000D02*
X133206000Y-47664000D01*
X133206000Y-48784000D02*
X133206000Y-49564000D01*
X133206000Y-50684000D02*
X133206000Y-50734000D01*
X133206000Y-50734000D02*
X131686000Y-50734000D01*
X133746000Y-49554000D02*
X133506000Y-49224000D01*
X133986000Y-49224000D01*
X133746000Y-49554000D01*
G36*
X133746000Y-49554000D02*
G01*
X133506000Y-49224000D01*
X133986000Y-49224000D01*
X133746000Y-49554000D01*
G37*
%TO.C,D2*%
X139525500Y-63066000D02*
X139525500Y-59056000D01*
X139525500Y-63066000D02*
X141525500Y-63066000D01*
X141525500Y-63066000D02*
X141525500Y-59056000D01*
%TO.C,Q3*%
X125112000Y-47675000D02*
X126632000Y-47675000D01*
X125112000Y-48675000D02*
X125112000Y-47675000D01*
X125112000Y-50795000D02*
X125112000Y-49795000D01*
X126632000Y-47675000D02*
X126632000Y-47725000D01*
X126632000Y-48845000D02*
X126632000Y-49625000D01*
X126632000Y-50745000D02*
X126632000Y-50795000D01*
X126632000Y-50795000D02*
X125112000Y-50795000D01*
X127172000Y-49615000D02*
X126932000Y-49285000D01*
X127412000Y-49285000D01*
X127172000Y-49615000D01*
G36*
X127172000Y-49615000D02*
G01*
X126932000Y-49285000D01*
X127412000Y-49285000D01*
X127172000Y-49615000D01*
G37*
%TO.C,D1*%
X136858500Y-58346000D02*
X136858500Y-62356000D01*
X138858500Y-58346000D02*
X136858500Y-58346000D01*
X138858500Y-58346000D02*
X138858500Y-62356000D01*
%TO.C,J8*%
X131385000Y-107255000D02*
X132715000Y-107255000D01*
X131385000Y-108585000D02*
X131385000Y-107255000D01*
X133985000Y-107255000D02*
X141665000Y-107255000D01*
X133985000Y-109915000D02*
X133985000Y-107255000D01*
X133985000Y-109915000D02*
X141665000Y-109915000D01*
X141665000Y-109915000D02*
X141665000Y-107255000D01*
%TO.C,J5*%
X107890000Y-59055000D02*
X107890000Y-69275000D01*
X107890000Y-59055000D02*
X110550000Y-59055000D01*
X107890000Y-69275000D02*
X110550000Y-69275000D01*
X109220000Y-56455000D02*
X110550000Y-56455000D01*
X110550000Y-56455000D02*
X110550000Y-57785000D01*
X110550000Y-59055000D02*
X110550000Y-69275000D01*
%TO.C,J1*%
X47565000Y-125035000D02*
X48895000Y-125035000D01*
X47565000Y-126365000D02*
X47565000Y-125035000D01*
X50165000Y-125035000D02*
X118805000Y-125035000D01*
X50165000Y-127695000D02*
X50165000Y-125035000D01*
X50165000Y-127695000D02*
X118805000Y-127695000D01*
X118805000Y-127695000D02*
X118805000Y-125035000D01*
%TO.C,J4*%
X44390000Y-53975000D02*
X44390000Y-74355000D01*
X44390000Y-53975000D02*
X47050000Y-53975000D01*
X44390000Y-74355000D02*
X47050000Y-74355000D01*
X45720000Y-51375000D02*
X47050000Y-51375000D01*
X47050000Y-51375000D02*
X47050000Y-52705000D01*
X47050000Y-53975000D02*
X47050000Y-74355000D01*
%TO.C,J2*%
X47565000Y-107255000D02*
X48895000Y-107255000D01*
X47565000Y-108585000D02*
X47565000Y-107255000D01*
X50165000Y-107255000D02*
X118805000Y-107255000D01*
X50165000Y-109915000D02*
X50165000Y-107255000D01*
X50165000Y-109915000D02*
X118805000Y-109915000D01*
X118805000Y-109915000D02*
X118805000Y-107255000D01*
%TO.C,Q2*%
X132605000Y-55082000D02*
X134125000Y-55082000D01*
X132605000Y-55132000D02*
X132605000Y-55082000D01*
X132605000Y-57032000D02*
X132605000Y-56252000D01*
X132605000Y-58202000D02*
X132605000Y-58152000D01*
X134125000Y-55082000D02*
X134125000Y-56082000D01*
X134125000Y-57202000D02*
X134125000Y-58202000D01*
X134125000Y-58202000D02*
X132605000Y-58202000D01*
X132305000Y-56592000D02*
X131825000Y-56592000D01*
X132065000Y-56262000D01*
X132305000Y-56592000D01*
G36*
X132305000Y-56592000D02*
G01*
X131825000Y-56592000D01*
X132065000Y-56262000D01*
X132305000Y-56592000D01*
G37*
%TO.C,J6*%
X124720000Y-98682500D02*
X126050000Y-98682500D01*
X124720000Y-100012500D02*
X124720000Y-98682500D01*
X127320000Y-98682500D02*
X135000000Y-98682500D01*
X127320000Y-101342500D02*
X127320000Y-98682500D01*
X127320000Y-101342500D02*
X135000000Y-101342500D01*
X135000000Y-101342500D02*
X135000000Y-98682500D01*
%TO.C,J7*%
X133925000Y-125035000D02*
X135255000Y-125035000D01*
X133925000Y-126365000D02*
X133925000Y-125035000D01*
X136525000Y-125035000D02*
X141665000Y-125035000D01*
X136525000Y-127695000D02*
X136525000Y-125035000D01*
X136525000Y-127695000D02*
X141665000Y-127695000D01*
X141665000Y-127695000D02*
X141665000Y-125035000D01*
%TO.C,R23*%
X115925000Y-153552000D02*
X118975000Y-153552000D01*
X115925000Y-157852000D02*
X118975000Y-157852000D01*
X115925000Y-157852000D02*
G75*
G02*
X115946766Y-153536475I1550000J2150000D01*
G01*
X118975000Y-153552000D02*
G75*
G02*
X119019513Y-157820249I-1500000J-2150000D01*
G01*
%TO.C,RV1*%
D15*
X114650000Y-150057500D02*
X119650000Y-150057500D01*
X119650000Y-135057500D01*
X114650000Y-135057500D01*
X114650000Y-150057500D01*
D16*
%TO.C,Q6*%
X132399500Y-60797000D02*
X133919500Y-60797000D01*
X132399500Y-60847000D02*
X132399500Y-60797000D01*
X132399500Y-62747000D02*
X132399500Y-61967000D01*
X132399500Y-63917000D02*
X132399500Y-63867000D01*
X133919500Y-60797000D02*
X133919500Y-61797000D01*
X133919500Y-62917000D02*
X133919500Y-63917000D01*
X133919500Y-63917000D02*
X132399500Y-63917000D01*
X132099500Y-62307000D02*
X131619500Y-62307000D01*
X131859500Y-61977000D01*
X132099500Y-62307000D01*
G36*
X132099500Y-62307000D02*
G01*
X131619500Y-62307000D01*
X131859500Y-61977000D01*
X132099500Y-62307000D01*
G37*
%TO.C,Q1*%
X126001000Y-55082000D02*
X127521000Y-55082000D01*
X126001000Y-55132000D02*
X126001000Y-55082000D01*
X126001000Y-57032000D02*
X126001000Y-56252000D01*
X126001000Y-58202000D02*
X126001000Y-58152000D01*
X127521000Y-55082000D02*
X127521000Y-56082000D01*
X127521000Y-57202000D02*
X127521000Y-58202000D01*
X127521000Y-58202000D02*
X126001000Y-58202000D01*
X125701000Y-56592000D02*
X125221000Y-56592000D01*
X125461000Y-56262000D01*
X125701000Y-56592000D01*
G36*
X125701000Y-56592000D02*
G01*
X125221000Y-56592000D01*
X125461000Y-56262000D01*
X125701000Y-56592000D01*
G37*
%TO.C,C1*%
X118657500Y-55201349D02*
X115624500Y-55201349D01*
X118657500Y-55241349D02*
X115627500Y-55241349D01*
X118657500Y-55281349D02*
X115629500Y-55281349D01*
X118657500Y-55321349D02*
X115633500Y-55321349D01*
X118657500Y-55361349D02*
X115636500Y-55361349D01*
X118657500Y-55401349D02*
X115641500Y-55401349D01*
X118657500Y-55441349D02*
X115645500Y-55441349D01*
X118657500Y-55481349D02*
X115650500Y-55481349D01*
X118657500Y-55521349D02*
X115655500Y-55521349D01*
X118657500Y-55561349D02*
X115661500Y-55561349D01*
X118657500Y-55601349D02*
X115667500Y-55601349D01*
X118657500Y-55641349D02*
X115674500Y-55641349D01*
X118657500Y-55681349D02*
X115680500Y-55681349D01*
X118657500Y-55721349D02*
X115688500Y-55721349D01*
X118657500Y-55761349D02*
X115695500Y-55761349D01*
X118657500Y-55801349D02*
X115704500Y-55801349D01*
X118657500Y-55841349D02*
X115712500Y-55841349D01*
X118657500Y-55881349D02*
X115721500Y-55881349D01*
X118657500Y-55921349D02*
X115730500Y-55921349D01*
X118657500Y-55961349D02*
X115740500Y-55961349D01*
X118657500Y-56001349D02*
X115750500Y-56001349D01*
X118657500Y-56041349D02*
X115761500Y-56041349D01*
X118657500Y-56081349D02*
X115772500Y-56081349D01*
X118657500Y-56121349D02*
X115784500Y-56121349D01*
X118657500Y-56161349D02*
X115796500Y-56161349D01*
X118657500Y-56201349D02*
X115808500Y-56201349D01*
X118657500Y-56241349D02*
X115821500Y-56241349D01*
X118657500Y-56281349D02*
X115834500Y-56281349D01*
X118657500Y-56321349D02*
X115848500Y-56321349D01*
X118657500Y-56361349D02*
X115862500Y-56361349D01*
X118657500Y-56401349D02*
X115877500Y-56401349D01*
X118657500Y-56441349D02*
X115892500Y-56441349D01*
X118657500Y-56481349D02*
X115908500Y-56481349D01*
X118657500Y-56521349D02*
X115924500Y-56521349D01*
X118657500Y-56561349D02*
X115940500Y-56561349D01*
X118657500Y-56601349D02*
X115957500Y-56601349D01*
X118657500Y-56641349D02*
X115975500Y-56641349D01*
X118657500Y-56681349D02*
X115993500Y-56681349D01*
X118657500Y-56721349D02*
X116012500Y-56721349D01*
X118657500Y-56761349D02*
X116031500Y-56761349D01*
X118657500Y-56801349D02*
X116051500Y-56801349D01*
X118657500Y-56841349D02*
X116071500Y-56841349D01*
X118657500Y-56881349D02*
X116092500Y-56881349D01*
X118657500Y-56921349D02*
X116113500Y-56921349D01*
X118657500Y-56961349D02*
X116135500Y-56961349D01*
X118657500Y-57001349D02*
X116158500Y-57001349D01*
X118657500Y-57041349D02*
X116181500Y-57041349D01*
X118657500Y-57081349D02*
X116204500Y-57081349D01*
X118657500Y-57121349D02*
X116229500Y-57121349D01*
X118657500Y-57161349D02*
X116254500Y-57161349D01*
X118657500Y-57201349D02*
X116279500Y-57201349D01*
X118657500Y-57241349D02*
X116305500Y-57241349D01*
X120230500Y-59041349D02*
X119164500Y-59041349D01*
X120465500Y-59001349D02*
X118929500Y-59001349D01*
X120644500Y-58961349D02*
X118750500Y-58961349D01*
X120794500Y-58921349D02*
X118600500Y-58921349D01*
X120925500Y-58881349D02*
X118469500Y-58881349D01*
X121043500Y-58841349D02*
X118351500Y-58841349D01*
X121150500Y-58801349D02*
X118244500Y-58801349D01*
X121249500Y-58761349D02*
X118145500Y-58761349D01*
X121341500Y-58721349D02*
X118053500Y-58721349D01*
X121428500Y-58681349D02*
X117966500Y-58681349D01*
X121510500Y-58641349D02*
X117884500Y-58641349D01*
X121587500Y-58601349D02*
X117807500Y-58601349D01*
X121661500Y-58561349D02*
X117733500Y-58561349D01*
X121731500Y-58521349D02*
X117663500Y-58521349D01*
X121798500Y-58481349D02*
X117596500Y-58481349D01*
X121862500Y-58441349D02*
X117532500Y-58441349D01*
X121924500Y-58401349D02*
X117470500Y-58401349D01*
X121984500Y-58361349D02*
X117410500Y-58361349D01*
X122012500Y-50551651D02*
X122012500Y-51351651D01*
X122041500Y-58321349D02*
X117353500Y-58321349D01*
X122097500Y-58281349D02*
X117297500Y-58281349D01*
X122150500Y-58241349D02*
X117244500Y-58241349D01*
X122202500Y-58201349D02*
X117192500Y-58201349D01*
X122252500Y-58161349D02*
X117142500Y-58161349D01*
X122301500Y-58121349D02*
X117093500Y-58121349D01*
X122348500Y-58081349D02*
X117046500Y-58081349D01*
X122393500Y-58041349D02*
X117001500Y-58041349D01*
X122412500Y-50951651D02*
X121612500Y-50951651D01*
X122438500Y-58001349D02*
X116956500Y-58001349D01*
X122481500Y-57961349D02*
X116913500Y-57961349D01*
X122523500Y-57921349D02*
X116871500Y-57921349D01*
X122564500Y-57881349D02*
X116830500Y-57881349D01*
X122603500Y-57841349D02*
X116791500Y-57841349D01*
X122642500Y-57801349D02*
X116752500Y-57801349D01*
X122679500Y-57761349D02*
X116715500Y-57761349D01*
X122716500Y-57721349D02*
X116678500Y-57721349D01*
X122752500Y-57681349D02*
X116642500Y-57681349D01*
X122786500Y-57641349D02*
X116608500Y-57641349D01*
X122820500Y-57601349D02*
X116574500Y-57601349D01*
X122853500Y-57561349D02*
X116541500Y-57561349D01*
X122885500Y-57521349D02*
X116509500Y-57521349D01*
X122916500Y-57481349D02*
X116478500Y-57481349D01*
X122947500Y-57441349D02*
X116447500Y-57441349D01*
X122977500Y-57401349D02*
X116417500Y-57401349D01*
X123006500Y-57361349D02*
X116388500Y-57361349D01*
X123034500Y-57321349D02*
X116360500Y-57321349D01*
X123062500Y-57281349D02*
X116332500Y-57281349D01*
X123089500Y-57241349D02*
X120737500Y-57241349D01*
X123115500Y-57201349D02*
X120737500Y-57201349D01*
X123140500Y-57161349D02*
X120737500Y-57161349D01*
X123165500Y-57121349D02*
X120737500Y-57121349D01*
X123190500Y-57081349D02*
X120737500Y-57081349D01*
X123213500Y-57041349D02*
X120737500Y-57041349D01*
X123236500Y-57001349D02*
X120737500Y-57001349D01*
X123259500Y-56961349D02*
X120737500Y-56961349D01*
X123281500Y-56921349D02*
X120737500Y-56921349D01*
X123302500Y-56881349D02*
X120737500Y-56881349D01*
X123323500Y-56841349D02*
X120737500Y-56841349D01*
X123343500Y-56801349D02*
X120737500Y-56801349D01*
X123363500Y-56761349D02*
X120737500Y-56761349D01*
X123382500Y-56721349D02*
X120737500Y-56721349D01*
X123401500Y-56681349D02*
X120737500Y-56681349D01*
X123419500Y-56641349D02*
X120737500Y-56641349D01*
X123437500Y-56601349D02*
X120737500Y-56601349D01*
X123454500Y-56561349D02*
X120737500Y-56561349D01*
X123470500Y-56521349D02*
X120737500Y-56521349D01*
X123486500Y-56481349D02*
X120737500Y-56481349D01*
X123502500Y-56441349D02*
X120737500Y-56441349D01*
X123517500Y-56401349D02*
X120737500Y-56401349D01*
X123532500Y-56361349D02*
X120737500Y-56361349D01*
X123546500Y-56321349D02*
X120737500Y-56321349D01*
X123560500Y-56281349D02*
X120737500Y-56281349D01*
X123573500Y-56241349D02*
X120737500Y-56241349D01*
X123586500Y-56201349D02*
X120737500Y-56201349D01*
X123598500Y-56161349D02*
X120737500Y-56161349D01*
X123610500Y-56121349D02*
X120737500Y-56121349D01*
X123622500Y-56081349D02*
X120737500Y-56081349D01*
X123633500Y-56041349D02*
X120737500Y-56041349D01*
X123644500Y-56001349D02*
X120737500Y-56001349D01*
X123654500Y-55961349D02*
X120737500Y-55961349D01*
X123664500Y-55921349D02*
X120737500Y-55921349D01*
X123673500Y-55881349D02*
X120737500Y-55881349D01*
X123682500Y-55841349D02*
X120737500Y-55841349D01*
X123690500Y-55801349D02*
X120737500Y-55801349D01*
X123699500Y-55761349D02*
X120737500Y-55761349D01*
X123706500Y-55721349D02*
X120737500Y-55721349D01*
X123714500Y-55681349D02*
X120737500Y-55681349D01*
X123720500Y-55641349D02*
X120737500Y-55641349D01*
X123727500Y-55601349D02*
X120737500Y-55601349D01*
X123733500Y-55561349D02*
X120737500Y-55561349D01*
X123739500Y-55521349D02*
X120737500Y-55521349D01*
X123744500Y-55481349D02*
X120737500Y-55481349D01*
X123749500Y-55441349D02*
X120737500Y-55441349D01*
X123753500Y-55401349D02*
X120737500Y-55401349D01*
X123758500Y-55361349D02*
X120737500Y-55361349D01*
X123761500Y-55321349D02*
X120737500Y-55321349D01*
X123765500Y-55281349D02*
X120737500Y-55281349D01*
X123767500Y-55241349D02*
X120737500Y-55241349D01*
X123770500Y-55201349D02*
X120737500Y-55201349D01*
X123772500Y-55161349D02*
X115622500Y-55161349D01*
X123774500Y-55121349D02*
X115620500Y-55121349D01*
X123775500Y-55081349D02*
X115619500Y-55081349D01*
X123776500Y-55041349D02*
X115618500Y-55041349D01*
X123777500Y-54961349D02*
X115617500Y-54961349D01*
X123777500Y-55001349D02*
X115617500Y-55001349D01*
X123817500Y-54961349D02*
G75*
G02*
X115577500Y-54961349I-4120000J0D01*
G01*
X115577500Y-54961349D02*
G75*
G02*
X123817500Y-54961349I4120000J0D01*
G01*
%TD*%
M02*
