%TF.GenerationSoftware,KiCad,Pcbnew,9.0.6*%
%TF.CreationDate,2025-11-21T06:24:57-05:00*%
%TF.ProjectId,sch,7363682e-6b69-4636-9164-5f7063625858,1.0*%
%TF.SameCoordinates,Original*%
%TF.FileFunction,Drillmap*%
%TF.FilePolarity,Positive*%
%FSLAX45Y45*%
G04 Gerber Fmt 4.5, Leading zero omitted, Abs format (unit mm)*
G04 Created by KiCad (PCBNEW 9.0.6) date 2025-11-21 06:24:57*
%MOMM*%
%LPD*%
G01*
G04 APERTURE LIST*
%ADD10C,0.050000*%
%ADD11C,0.200000*%
%ADD12C,0.100000*%
%ADD13C,0.110000*%
G04 APERTURE END LIST*
D10*
X4000500Y-4191000D02*
X14732000Y-4191000D01*
X14732000Y-16256000D01*
X4000500Y-16256000D01*
X4000500Y-4191000D01*
D11*
D12*
X4874500Y-6938250D02*
X4904500Y-6968250D01*
X4904500Y-6938250D02*
X4874500Y-6968250D01*
X5001500Y-6525500D02*
X5031500Y-6555500D01*
X5031500Y-6525500D02*
X5001500Y-6555500D01*
X5128500Y-6779500D02*
X5158500Y-6809500D01*
X5158500Y-6779500D02*
X5128500Y-6809500D01*
X5255500Y-5763500D02*
X5285500Y-5793500D01*
X5285500Y-5763500D02*
X5255500Y-5793500D01*
X5382500Y-6271500D02*
X5412500Y-6301500D01*
X5412500Y-6271500D02*
X5382500Y-6301500D01*
X5509500Y-6017500D02*
X5539500Y-6047500D01*
X5539500Y-6017500D02*
X5509500Y-6047500D01*
X5667500Y-7636750D02*
X5697500Y-7666750D01*
X5697500Y-7636750D02*
X5667500Y-7666750D01*
X8430500Y-8494000D02*
X8460500Y-8524000D01*
X8460500Y-8494000D02*
X8430500Y-8524000D01*
X8684500Y-8748000D02*
X8714500Y-8778000D01*
X8714500Y-8748000D02*
X8684500Y-8778000D01*
X11649950Y-5986000D02*
X11679950Y-6016000D01*
X11679950Y-5986000D02*
X11649950Y-6016000D01*
X12088100Y-11135600D02*
X12118100Y-11165600D01*
X12118100Y-11135600D02*
X12088100Y-11165600D01*
X12088100Y-11351500D02*
X12118100Y-11381500D01*
X12118100Y-11351500D02*
X12088100Y-11381500D01*
X12151600Y-11923000D02*
X12181600Y-11953000D01*
X12181600Y-11923000D02*
X12151600Y-11953000D01*
X12710400Y-5827000D02*
X12740400Y-5857000D01*
X12740400Y-5827000D02*
X12710400Y-5857000D01*
X12843750Y-5166600D02*
X12873750Y-5196600D01*
X12873750Y-5166600D02*
X12843750Y-5196600D01*
X13008850Y-5979400D02*
X13038850Y-6009400D01*
X13038850Y-5979400D02*
X13008850Y-6009400D01*
X13320000Y-5827000D02*
X13350000Y-5857000D01*
X13350000Y-5827000D02*
X13320000Y-5857000D01*
X13377464Y-5286466D02*
X13407464Y-5316466D01*
X13407464Y-5286466D02*
X13377464Y-5316466D01*
X11617500Y-15570200D02*
G75*
G02*
X11537500Y-15570200I-40000J0D01*
G01*
X11537500Y-15570200D02*
G75*
G02*
X11617500Y-15570200I40000J0D01*
G01*
X11957500Y-15570200D02*
G75*
G02*
X11877500Y-15570200I-40000J0D01*
G01*
X11877500Y-15570200D02*
G75*
G02*
X11957500Y-15570200I40000J0D01*
G01*
X12009750Y-5371135D02*
G75*
G02*
X11929750Y-5371135I-40000J0D01*
G01*
X11929750Y-5371135D02*
G75*
G02*
X12009750Y-5371135I40000J0D01*
G01*
X12009750Y-5621135D02*
G75*
G02*
X11929750Y-5621135I-40000J0D01*
G01*
X11929750Y-5621135D02*
G75*
G02*
X12009750Y-5621135I40000J0D01*
G01*
X4572000Y-5220500D02*
X4572000Y-5320500D01*
X4522000Y-5270500D02*
X4622000Y-5270500D01*
X4572000Y-5474500D02*
X4572000Y-5574500D01*
X4522000Y-5524500D02*
X4622000Y-5524500D01*
X4572000Y-5728500D02*
X4572000Y-5828500D01*
X4522000Y-5778500D02*
X4622000Y-5778500D01*
X4572000Y-5982500D02*
X4572000Y-6082500D01*
X4522000Y-6032500D02*
X4622000Y-6032500D01*
X4572000Y-6236500D02*
X4572000Y-6336500D01*
X4522000Y-6286500D02*
X4622000Y-6286500D01*
X4572000Y-6490500D02*
X4572000Y-6590500D01*
X4522000Y-6540500D02*
X4622000Y-6540500D01*
X4572000Y-6744500D02*
X4572000Y-6844500D01*
X4522000Y-6794500D02*
X4622000Y-6794500D01*
X4572000Y-6998500D02*
X4572000Y-7098500D01*
X4522000Y-7048500D02*
X4622000Y-7048500D01*
X4572000Y-7252500D02*
X4572000Y-7352500D01*
X4522000Y-7302500D02*
X4622000Y-7302500D01*
X4889500Y-10808500D02*
X4889500Y-10908500D01*
X4839500Y-10858500D02*
X4939500Y-10858500D01*
X4889500Y-12586500D02*
X4889500Y-12686500D01*
X4839500Y-12636500D02*
X4939500Y-12636500D01*
X5143500Y-10808500D02*
X5143500Y-10908500D01*
X5093500Y-10858500D02*
X5193500Y-10858500D01*
X5143500Y-12586500D02*
X5143500Y-12686500D01*
X5093500Y-12636500D02*
X5193500Y-12636500D01*
X5397500Y-10808500D02*
X5397500Y-10908500D01*
X5347500Y-10858500D02*
X5447500Y-10858500D01*
X5397500Y-12586500D02*
X5397500Y-12686500D01*
X5347500Y-12636500D02*
X5447500Y-12636500D01*
X5651500Y-10808500D02*
X5651500Y-10908500D01*
X5601500Y-10858500D02*
X5701500Y-10858500D01*
X5651500Y-12586500D02*
X5651500Y-12686500D01*
X5601500Y-12636500D02*
X5701500Y-12636500D01*
X5905500Y-10808500D02*
X5905500Y-10908500D01*
X5855500Y-10858500D02*
X5955500Y-10858500D01*
X5905500Y-12586500D02*
X5905500Y-12686500D01*
X5855500Y-12636500D02*
X5955500Y-12636500D01*
X6159500Y-10808500D02*
X6159500Y-10908500D01*
X6109500Y-10858500D02*
X6209500Y-10858500D01*
X6159500Y-12586500D02*
X6159500Y-12686500D01*
X6109500Y-12636500D02*
X6209500Y-12636500D01*
X6413500Y-10808500D02*
X6413500Y-10908500D01*
X6363500Y-10858500D02*
X6463500Y-10858500D01*
X6413500Y-12586500D02*
X6413500Y-12686500D01*
X6363500Y-12636500D02*
X6463500Y-12636500D01*
X6508000Y-15221805D02*
X6508000Y-15321805D01*
X6458000Y-15271805D02*
X6558000Y-15271805D01*
X6667500Y-10808500D02*
X6667500Y-10908500D01*
X6617500Y-10858500D02*
X6717500Y-10858500D01*
X6667500Y-12586500D02*
X6667500Y-12686500D01*
X6617500Y-12636500D02*
X6717500Y-12636500D01*
X6762000Y-15221805D02*
X6762000Y-15321805D01*
X6712000Y-15271805D02*
X6812000Y-15271805D01*
X6921500Y-10808500D02*
X6921500Y-10908500D01*
X6871500Y-10858500D02*
X6971500Y-10858500D01*
X6921500Y-12586500D02*
X6921500Y-12686500D01*
X6871500Y-12636500D02*
X6971500Y-12636500D01*
X7016000Y-15221805D02*
X7016000Y-15321805D01*
X6966000Y-15271805D02*
X7066000Y-15271805D01*
X7175500Y-10808500D02*
X7175500Y-10908500D01*
X7125500Y-10858500D02*
X7225500Y-10858500D01*
X7175500Y-12586500D02*
X7175500Y-12686500D01*
X7125500Y-12636500D02*
X7225500Y-12636500D01*
X7270000Y-15221805D02*
X7270000Y-15321805D01*
X7220000Y-15271805D02*
X7320000Y-15271805D01*
X7429500Y-10808500D02*
X7429500Y-10908500D01*
X7379500Y-10858500D02*
X7479500Y-10858500D01*
X7429500Y-12586500D02*
X7429500Y-12686500D01*
X7379500Y-12636500D02*
X7479500Y-12636500D01*
X7524000Y-15221805D02*
X7524000Y-15321805D01*
X7474000Y-15271805D02*
X7574000Y-15271805D01*
X7683500Y-10808500D02*
X7683500Y-10908500D01*
X7633500Y-10858500D02*
X7733500Y-10858500D01*
X7683500Y-12586500D02*
X7683500Y-12686500D01*
X7633500Y-12636500D02*
X7733500Y-12636500D01*
X7778000Y-15221805D02*
X7778000Y-15321805D01*
X7728000Y-15271805D02*
X7828000Y-15271805D01*
X7937500Y-10808500D02*
X7937500Y-10908500D01*
X7887500Y-10858500D02*
X7987500Y-10858500D01*
X7937500Y-12586500D02*
X7937500Y-12686500D01*
X7887500Y-12636500D02*
X7987500Y-12636500D01*
X8032000Y-15221805D02*
X8032000Y-15321805D01*
X7982000Y-15271805D02*
X8082000Y-15271805D01*
X8191500Y-10808500D02*
X8191500Y-10908500D01*
X8141500Y-10858500D02*
X8241500Y-10858500D01*
X8191500Y-12586500D02*
X8191500Y-12686500D01*
X8141500Y-12636500D02*
X8241500Y-12636500D01*
X8286000Y-15221805D02*
X8286000Y-15321805D01*
X8236000Y-15271805D02*
X8336000Y-15271805D01*
X8445500Y-10808500D02*
X8445500Y-10908500D01*
X8395500Y-10858500D02*
X8495500Y-10858500D01*
X8445500Y-12586500D02*
X8445500Y-12686500D01*
X8395500Y-12636500D02*
X8495500Y-12636500D01*
X8699500Y-10808500D02*
X8699500Y-10908500D01*
X8649500Y-10858500D02*
X8749500Y-10858500D01*
X8699500Y-12586500D02*
X8699500Y-12686500D01*
X8649500Y-12636500D02*
X8749500Y-12636500D01*
X8953500Y-10808500D02*
X8953500Y-10908500D01*
X8903500Y-10858500D02*
X9003500Y-10858500D01*
X8953500Y-12586500D02*
X8953500Y-12686500D01*
X8903500Y-12636500D02*
X9003500Y-12636500D01*
X9207500Y-10808500D02*
X9207500Y-10908500D01*
X9157500Y-10858500D02*
X9257500Y-10858500D01*
X9207500Y-12586500D02*
X9207500Y-12686500D01*
X9157500Y-12636500D02*
X9257500Y-12636500D01*
X9461500Y-10808500D02*
X9461500Y-10908500D01*
X9411500Y-10858500D02*
X9511500Y-10858500D01*
X9461500Y-12586500D02*
X9461500Y-12686500D01*
X9411500Y-12636500D02*
X9511500Y-12636500D01*
X9715500Y-10808500D02*
X9715500Y-10908500D01*
X9665500Y-10858500D02*
X9765500Y-10858500D01*
X9715500Y-12586500D02*
X9715500Y-12686500D01*
X9665500Y-12636500D02*
X9765500Y-12636500D01*
X9969500Y-10808500D02*
X9969500Y-10908500D01*
X9919500Y-10858500D02*
X10019500Y-10858500D01*
X9969500Y-12586500D02*
X9969500Y-12686500D01*
X9919500Y-12636500D02*
X10019500Y-12636500D01*
X10223500Y-10808500D02*
X10223500Y-10908500D01*
X10173500Y-10858500D02*
X10273500Y-10858500D01*
X10223500Y-12586500D02*
X10223500Y-12686500D01*
X10173500Y-12636500D02*
X10273500Y-12636500D01*
X10477500Y-10808500D02*
X10477500Y-10908500D01*
X10427500Y-10858500D02*
X10527500Y-10858500D01*
X10477500Y-12586500D02*
X10477500Y-12686500D01*
X10427500Y-12636500D02*
X10527500Y-12636500D01*
X10731500Y-10808500D02*
X10731500Y-10908500D01*
X10681500Y-10858500D02*
X10781500Y-10858500D01*
X10731500Y-12586500D02*
X10731500Y-12686500D01*
X10681500Y-12636500D02*
X10781500Y-12636500D01*
X10922000Y-5728500D02*
X10922000Y-5828500D01*
X10872000Y-5778500D02*
X10972000Y-5778500D01*
X10922000Y-5982500D02*
X10922000Y-6082500D01*
X10872000Y-6032500D02*
X10972000Y-6032500D01*
X10922000Y-6236500D02*
X10922000Y-6336500D01*
X10872000Y-6286500D02*
X10972000Y-6286500D01*
X10922000Y-6490500D02*
X10922000Y-6590500D01*
X10872000Y-6540500D02*
X10972000Y-6540500D01*
X10922000Y-6744500D02*
X10922000Y-6844500D01*
X10872000Y-6794500D02*
X10972000Y-6794500D01*
X10985500Y-10808500D02*
X10985500Y-10908500D01*
X10935500Y-10858500D02*
X11035500Y-10858500D01*
X10985500Y-12586500D02*
X10985500Y-12686500D01*
X10935500Y-12636500D02*
X11035500Y-12636500D01*
X11239500Y-10808500D02*
X11239500Y-10908500D01*
X11189500Y-10858500D02*
X11289500Y-10858500D01*
X11239500Y-12586500D02*
X11239500Y-12686500D01*
X11189500Y-12636500D02*
X11289500Y-12636500D01*
X11493500Y-10808500D02*
X11493500Y-10908500D01*
X11443500Y-10858500D02*
X11543500Y-10858500D01*
X11493500Y-12586500D02*
X11493500Y-12686500D01*
X11443500Y-12636500D02*
X11543500Y-12636500D01*
X11747500Y-10808500D02*
X11747500Y-10908500D01*
X11697500Y-10858500D02*
X11797500Y-10858500D01*
X11747500Y-12586500D02*
X11747500Y-12686500D01*
X11697500Y-12636500D02*
X11797500Y-12636500D01*
X12605000Y-9951250D02*
X12605000Y-10051250D01*
X12555000Y-10001250D02*
X12655000Y-10001250D01*
X12859000Y-9951250D02*
X12859000Y-10051250D01*
X12809000Y-10001250D02*
X12909000Y-10001250D01*
X13113000Y-9951250D02*
X13113000Y-10051250D01*
X13063000Y-10001250D02*
X13163000Y-10001250D01*
X13271500Y-10808500D02*
X13271500Y-10908500D01*
X13221500Y-10858500D02*
X13321500Y-10858500D01*
X13367000Y-9951250D02*
X13367000Y-10051250D01*
X13317000Y-10001250D02*
X13417000Y-10001250D01*
X13525500Y-10808500D02*
X13525500Y-10908500D01*
X13475500Y-10858500D02*
X13575500Y-10858500D01*
X13525500Y-12586500D02*
X13525500Y-12686500D01*
X13475500Y-12636500D02*
X13575500Y-12636500D01*
X13779500Y-10808500D02*
X13779500Y-10908500D01*
X13729500Y-10858500D02*
X13829500Y-10858500D01*
X13779500Y-12586500D02*
X13779500Y-12686500D01*
X13729500Y-12636500D02*
X13829500Y-12636500D01*
X14033500Y-10808500D02*
X14033500Y-10908500D01*
X13983500Y-10858500D02*
X14083500Y-10858500D01*
X14033500Y-12586500D02*
X14033500Y-12686500D01*
X13983500Y-12636500D02*
X14083500Y-12636500D01*
D13*
X11753891Y-13794641D02*
X11753891Y-13716859D01*
X11676109Y-13716859D01*
X11676109Y-13794641D01*
X11753891Y-13794641D01*
X11753891Y-14294641D02*
X11753891Y-14216859D01*
X11676109Y-14216859D01*
X11676109Y-14294641D01*
X11753891Y-14294641D01*
X11753891Y-14794641D02*
X11753891Y-14716859D01*
X11676109Y-14716859D01*
X11676109Y-14794641D01*
X11753891Y-14794641D01*
X14036741Y-4928391D02*
X14036741Y-4850609D01*
X13958959Y-4850609D01*
X13958959Y-4928391D01*
X14036741Y-4928391D01*
X14036741Y-5436391D02*
X14036741Y-5358609D01*
X13958959Y-5358609D01*
X13958959Y-5436391D01*
X14036741Y-5436391D01*
D11*
X4258777Y-16569984D02*
X4258777Y-16369984D01*
X4258777Y-16369984D02*
X4306396Y-16369984D01*
X4306396Y-16369984D02*
X4334967Y-16379508D01*
X4334967Y-16379508D02*
X4354015Y-16398555D01*
X4354015Y-16398555D02*
X4363539Y-16417603D01*
X4363539Y-16417603D02*
X4373063Y-16455698D01*
X4373063Y-16455698D02*
X4373063Y-16484269D01*
X4373063Y-16484269D02*
X4363539Y-16522365D01*
X4363539Y-16522365D02*
X4354015Y-16541412D01*
X4354015Y-16541412D02*
X4334967Y-16560460D01*
X4334967Y-16560460D02*
X4306396Y-16569984D01*
X4306396Y-16569984D02*
X4258777Y-16569984D01*
X4458777Y-16569984D02*
X4458777Y-16436650D01*
X4458777Y-16474746D02*
X4468301Y-16455698D01*
X4468301Y-16455698D02*
X4477824Y-16446174D01*
X4477824Y-16446174D02*
X4496872Y-16436650D01*
X4496872Y-16436650D02*
X4515920Y-16436650D01*
X4582586Y-16569984D02*
X4582586Y-16436650D01*
X4582586Y-16369984D02*
X4573063Y-16379508D01*
X4573063Y-16379508D02*
X4582586Y-16389031D01*
X4582586Y-16389031D02*
X4592110Y-16379508D01*
X4592110Y-16379508D02*
X4582586Y-16369984D01*
X4582586Y-16369984D02*
X4582586Y-16389031D01*
X4706396Y-16569984D02*
X4687348Y-16560460D01*
X4687348Y-16560460D02*
X4677824Y-16541412D01*
X4677824Y-16541412D02*
X4677824Y-16369984D01*
X4811158Y-16569984D02*
X4792110Y-16560460D01*
X4792110Y-16560460D02*
X4782586Y-16541412D01*
X4782586Y-16541412D02*
X4782586Y-16369984D01*
X5039729Y-16569984D02*
X5039729Y-16369984D01*
X5039729Y-16369984D02*
X5106396Y-16512841D01*
X5106396Y-16512841D02*
X5173063Y-16369984D01*
X5173063Y-16369984D02*
X5173063Y-16569984D01*
X5354015Y-16569984D02*
X5354015Y-16465222D01*
X5354015Y-16465222D02*
X5344491Y-16446174D01*
X5344491Y-16446174D02*
X5325444Y-16436650D01*
X5325444Y-16436650D02*
X5287348Y-16436650D01*
X5287348Y-16436650D02*
X5268301Y-16446174D01*
X5354015Y-16560460D02*
X5334967Y-16569984D01*
X5334967Y-16569984D02*
X5287348Y-16569984D01*
X5287348Y-16569984D02*
X5268301Y-16560460D01*
X5268301Y-16560460D02*
X5258777Y-16541412D01*
X5258777Y-16541412D02*
X5258777Y-16522365D01*
X5258777Y-16522365D02*
X5268301Y-16503317D01*
X5268301Y-16503317D02*
X5287348Y-16493793D01*
X5287348Y-16493793D02*
X5334967Y-16493793D01*
X5334967Y-16493793D02*
X5354015Y-16484269D01*
X5449253Y-16436650D02*
X5449253Y-16636650D01*
X5449253Y-16446174D02*
X5468301Y-16436650D01*
X5468301Y-16436650D02*
X5506396Y-16436650D01*
X5506396Y-16436650D02*
X5525444Y-16446174D01*
X5525444Y-16446174D02*
X5534967Y-16455698D01*
X5534967Y-16455698D02*
X5544491Y-16474746D01*
X5544491Y-16474746D02*
X5544491Y-16531888D01*
X5544491Y-16531888D02*
X5534967Y-16550936D01*
X5534967Y-16550936D02*
X5525444Y-16560460D01*
X5525444Y-16560460D02*
X5506396Y-16569984D01*
X5506396Y-16569984D02*
X5468301Y-16569984D01*
X5468301Y-16569984D02*
X5449253Y-16560460D01*
X5630205Y-16550936D02*
X5639729Y-16560460D01*
X5639729Y-16560460D02*
X5630205Y-16569984D01*
X5630205Y-16569984D02*
X5620682Y-16560460D01*
X5620682Y-16560460D02*
X5630205Y-16550936D01*
X5630205Y-16550936D02*
X5630205Y-16569984D01*
X5630205Y-16446174D02*
X5639729Y-16455698D01*
X5639729Y-16455698D02*
X5630205Y-16465222D01*
X5630205Y-16465222D02*
X5620682Y-16455698D01*
X5620682Y-16455698D02*
X5630205Y-16446174D01*
X5630205Y-16446174D02*
X5630205Y-16465222D01*
D12*
X3968000Y-16883500D02*
X3998000Y-16913500D01*
X3998000Y-16883500D02*
X3968000Y-16913500D01*
D11*
X4296872Y-16789984D02*
X4315920Y-16789984D01*
X4315920Y-16789984D02*
X4334967Y-16799508D01*
X4334967Y-16799508D02*
X4344491Y-16809031D01*
X4344491Y-16809031D02*
X4354015Y-16828079D01*
X4354015Y-16828079D02*
X4363539Y-16866174D01*
X4363539Y-16866174D02*
X4363539Y-16913793D01*
X4363539Y-16913793D02*
X4354015Y-16951889D01*
X4354015Y-16951889D02*
X4344491Y-16970936D01*
X4344491Y-16970936D02*
X4334967Y-16980460D01*
X4334967Y-16980460D02*
X4315920Y-16989984D01*
X4315920Y-16989984D02*
X4296872Y-16989984D01*
X4296872Y-16989984D02*
X4277824Y-16980460D01*
X4277824Y-16980460D02*
X4268301Y-16970936D01*
X4268301Y-16970936D02*
X4258777Y-16951889D01*
X4258777Y-16951889D02*
X4249253Y-16913793D01*
X4249253Y-16913793D02*
X4249253Y-16866174D01*
X4249253Y-16866174D02*
X4258777Y-16828079D01*
X4258777Y-16828079D02*
X4268301Y-16809031D01*
X4268301Y-16809031D02*
X4277824Y-16799508D01*
X4277824Y-16799508D02*
X4296872Y-16789984D01*
X4449253Y-16970936D02*
X4458777Y-16980460D01*
X4458777Y-16980460D02*
X4449253Y-16989984D01*
X4449253Y-16989984D02*
X4439729Y-16980460D01*
X4439729Y-16980460D02*
X4449253Y-16970936D01*
X4449253Y-16970936D02*
X4449253Y-16989984D01*
X4525444Y-16789984D02*
X4649253Y-16789984D01*
X4649253Y-16789984D02*
X4582586Y-16866174D01*
X4582586Y-16866174D02*
X4611158Y-16866174D01*
X4611158Y-16866174D02*
X4630205Y-16875698D01*
X4630205Y-16875698D02*
X4639729Y-16885222D01*
X4639729Y-16885222D02*
X4649253Y-16904270D01*
X4649253Y-16904270D02*
X4649253Y-16951889D01*
X4649253Y-16951889D02*
X4639729Y-16970936D01*
X4639729Y-16970936D02*
X4630205Y-16980460D01*
X4630205Y-16980460D02*
X4611158Y-16989984D01*
X4611158Y-16989984D02*
X4554015Y-16989984D01*
X4554015Y-16989984D02*
X4534967Y-16980460D01*
X4534967Y-16980460D02*
X4525444Y-16970936D01*
X4773063Y-16789984D02*
X4792110Y-16789984D01*
X4792110Y-16789984D02*
X4811158Y-16799508D01*
X4811158Y-16799508D02*
X4820682Y-16809031D01*
X4820682Y-16809031D02*
X4830205Y-16828079D01*
X4830205Y-16828079D02*
X4839729Y-16866174D01*
X4839729Y-16866174D02*
X4839729Y-16913793D01*
X4839729Y-16913793D02*
X4830205Y-16951889D01*
X4830205Y-16951889D02*
X4820682Y-16970936D01*
X4820682Y-16970936D02*
X4811158Y-16980460D01*
X4811158Y-16980460D02*
X4792110Y-16989984D01*
X4792110Y-16989984D02*
X4773063Y-16989984D01*
X4773063Y-16989984D02*
X4754015Y-16980460D01*
X4754015Y-16980460D02*
X4744491Y-16970936D01*
X4744491Y-16970936D02*
X4734967Y-16951889D01*
X4734967Y-16951889D02*
X4725444Y-16913793D01*
X4725444Y-16913793D02*
X4725444Y-16866174D01*
X4725444Y-16866174D02*
X4734967Y-16828079D01*
X4734967Y-16828079D02*
X4744491Y-16809031D01*
X4744491Y-16809031D02*
X4754015Y-16799508D01*
X4754015Y-16799508D02*
X4773063Y-16789984D01*
X4963539Y-16789984D02*
X4982586Y-16789984D01*
X4982586Y-16789984D02*
X5001634Y-16799508D01*
X5001634Y-16799508D02*
X5011158Y-16809031D01*
X5011158Y-16809031D02*
X5020682Y-16828079D01*
X5020682Y-16828079D02*
X5030205Y-16866174D01*
X5030205Y-16866174D02*
X5030205Y-16913793D01*
X5030205Y-16913793D02*
X5020682Y-16951889D01*
X5020682Y-16951889D02*
X5011158Y-16970936D01*
X5011158Y-16970936D02*
X5001634Y-16980460D01*
X5001634Y-16980460D02*
X4982586Y-16989984D01*
X4982586Y-16989984D02*
X4963539Y-16989984D01*
X4963539Y-16989984D02*
X4944491Y-16980460D01*
X4944491Y-16980460D02*
X4934967Y-16970936D01*
X4934967Y-16970936D02*
X4925444Y-16951889D01*
X4925444Y-16951889D02*
X4915920Y-16913793D01*
X4915920Y-16913793D02*
X4915920Y-16866174D01*
X4915920Y-16866174D02*
X4925444Y-16828079D01*
X4925444Y-16828079D02*
X4934967Y-16809031D01*
X4934967Y-16809031D02*
X4944491Y-16799508D01*
X4944491Y-16799508D02*
X4963539Y-16789984D01*
X5115920Y-16989984D02*
X5115920Y-16856650D01*
X5115920Y-16875698D02*
X5125444Y-16866174D01*
X5125444Y-16866174D02*
X5144491Y-16856650D01*
X5144491Y-16856650D02*
X5173063Y-16856650D01*
X5173063Y-16856650D02*
X5192110Y-16866174D01*
X5192110Y-16866174D02*
X5201634Y-16885222D01*
X5201634Y-16885222D02*
X5201634Y-16989984D01*
X5201634Y-16885222D02*
X5211158Y-16866174D01*
X5211158Y-16866174D02*
X5230205Y-16856650D01*
X5230205Y-16856650D02*
X5258777Y-16856650D01*
X5258777Y-16856650D02*
X5277825Y-16866174D01*
X5277825Y-16866174D02*
X5287348Y-16885222D01*
X5287348Y-16885222D02*
X5287348Y-16989984D01*
X5382586Y-16989984D02*
X5382586Y-16856650D01*
X5382586Y-16875698D02*
X5392110Y-16866174D01*
X5392110Y-16866174D02*
X5411158Y-16856650D01*
X5411158Y-16856650D02*
X5439729Y-16856650D01*
X5439729Y-16856650D02*
X5458777Y-16866174D01*
X5458777Y-16866174D02*
X5468301Y-16885222D01*
X5468301Y-16885222D02*
X5468301Y-16989984D01*
X5468301Y-16885222D02*
X5477825Y-16866174D01*
X5477825Y-16866174D02*
X5496872Y-16856650D01*
X5496872Y-16856650D02*
X5525444Y-16856650D01*
X5525444Y-16856650D02*
X5544491Y-16866174D01*
X5544491Y-16866174D02*
X5554015Y-16885222D01*
X5554015Y-16885222D02*
X5554015Y-16989984D01*
X5944491Y-16780460D02*
X5773063Y-17037603D01*
X6201634Y-16789984D02*
X6220682Y-16789984D01*
X6220682Y-16789984D02*
X6239729Y-16799508D01*
X6239729Y-16799508D02*
X6249253Y-16809031D01*
X6249253Y-16809031D02*
X6258777Y-16828079D01*
X6258777Y-16828079D02*
X6268301Y-16866174D01*
X6268301Y-16866174D02*
X6268301Y-16913793D01*
X6268301Y-16913793D02*
X6258777Y-16951889D01*
X6258777Y-16951889D02*
X6249253Y-16970936D01*
X6249253Y-16970936D02*
X6239729Y-16980460D01*
X6239729Y-16980460D02*
X6220682Y-16989984D01*
X6220682Y-16989984D02*
X6201634Y-16989984D01*
X6201634Y-16989984D02*
X6182586Y-16980460D01*
X6182586Y-16980460D02*
X6173063Y-16970936D01*
X6173063Y-16970936D02*
X6163539Y-16951889D01*
X6163539Y-16951889D02*
X6154015Y-16913793D01*
X6154015Y-16913793D02*
X6154015Y-16866174D01*
X6154015Y-16866174D02*
X6163539Y-16828079D01*
X6163539Y-16828079D02*
X6173063Y-16809031D01*
X6173063Y-16809031D02*
X6182586Y-16799508D01*
X6182586Y-16799508D02*
X6201634Y-16789984D01*
X6354015Y-16970936D02*
X6363539Y-16980460D01*
X6363539Y-16980460D02*
X6354015Y-16989984D01*
X6354015Y-16989984D02*
X6344491Y-16980460D01*
X6344491Y-16980460D02*
X6354015Y-16970936D01*
X6354015Y-16970936D02*
X6354015Y-16989984D01*
X6487348Y-16789984D02*
X6506396Y-16789984D01*
X6506396Y-16789984D02*
X6525444Y-16799508D01*
X6525444Y-16799508D02*
X6534967Y-16809031D01*
X6534967Y-16809031D02*
X6544491Y-16828079D01*
X6544491Y-16828079D02*
X6554015Y-16866174D01*
X6554015Y-16866174D02*
X6554015Y-16913793D01*
X6554015Y-16913793D02*
X6544491Y-16951889D01*
X6544491Y-16951889D02*
X6534967Y-16970936D01*
X6534967Y-16970936D02*
X6525444Y-16980460D01*
X6525444Y-16980460D02*
X6506396Y-16989984D01*
X6506396Y-16989984D02*
X6487348Y-16989984D01*
X6487348Y-16989984D02*
X6468301Y-16980460D01*
X6468301Y-16980460D02*
X6458777Y-16970936D01*
X6458777Y-16970936D02*
X6449253Y-16951889D01*
X6449253Y-16951889D02*
X6439729Y-16913793D01*
X6439729Y-16913793D02*
X6439729Y-16866174D01*
X6439729Y-16866174D02*
X6449253Y-16828079D01*
X6449253Y-16828079D02*
X6458777Y-16809031D01*
X6458777Y-16809031D02*
X6468301Y-16799508D01*
X6468301Y-16799508D02*
X6487348Y-16789984D01*
X6744491Y-16989984D02*
X6630206Y-16989984D01*
X6687348Y-16989984D02*
X6687348Y-16789984D01*
X6687348Y-16789984D02*
X6668301Y-16818555D01*
X6668301Y-16818555D02*
X6649253Y-16837603D01*
X6649253Y-16837603D02*
X6630206Y-16847127D01*
X6934967Y-16989984D02*
X6820682Y-16989984D01*
X6877825Y-16989984D02*
X6877825Y-16789984D01*
X6877825Y-16789984D02*
X6858777Y-16818555D01*
X6858777Y-16818555D02*
X6839729Y-16837603D01*
X6839729Y-16837603D02*
X6820682Y-16847127D01*
X7049253Y-16875698D02*
X7030206Y-16866174D01*
X7030206Y-16866174D02*
X7020682Y-16856650D01*
X7020682Y-16856650D02*
X7011158Y-16837603D01*
X7011158Y-16837603D02*
X7011158Y-16828079D01*
X7011158Y-16828079D02*
X7020682Y-16809031D01*
X7020682Y-16809031D02*
X7030206Y-16799508D01*
X7030206Y-16799508D02*
X7049253Y-16789984D01*
X7049253Y-16789984D02*
X7087348Y-16789984D01*
X7087348Y-16789984D02*
X7106396Y-16799508D01*
X7106396Y-16799508D02*
X7115920Y-16809031D01*
X7115920Y-16809031D02*
X7125444Y-16828079D01*
X7125444Y-16828079D02*
X7125444Y-16837603D01*
X7125444Y-16837603D02*
X7115920Y-16856650D01*
X7115920Y-16856650D02*
X7106396Y-16866174D01*
X7106396Y-16866174D02*
X7087348Y-16875698D01*
X7087348Y-16875698D02*
X7049253Y-16875698D01*
X7049253Y-16875698D02*
X7030206Y-16885222D01*
X7030206Y-16885222D02*
X7020682Y-16894746D01*
X7020682Y-16894746D02*
X7011158Y-16913793D01*
X7011158Y-16913793D02*
X7011158Y-16951889D01*
X7011158Y-16951889D02*
X7020682Y-16970936D01*
X7020682Y-16970936D02*
X7030206Y-16980460D01*
X7030206Y-16980460D02*
X7049253Y-16989984D01*
X7049253Y-16989984D02*
X7087348Y-16989984D01*
X7087348Y-16989984D02*
X7106396Y-16980460D01*
X7106396Y-16980460D02*
X7115920Y-16970936D01*
X7115920Y-16970936D02*
X7125444Y-16951889D01*
X7125444Y-16951889D02*
X7125444Y-16913793D01*
X7125444Y-16913793D02*
X7115920Y-16894746D01*
X7115920Y-16894746D02*
X7106396Y-16885222D01*
X7106396Y-16885222D02*
X7087348Y-16875698D01*
X7201634Y-16789984D02*
X7201634Y-16828079D01*
X7277825Y-16789984D02*
X7277825Y-16828079D01*
X7573063Y-17066174D02*
X7563539Y-17056650D01*
X7563539Y-17056650D02*
X7544491Y-17028079D01*
X7544491Y-17028079D02*
X7534968Y-17009031D01*
X7534968Y-17009031D02*
X7525444Y-16980460D01*
X7525444Y-16980460D02*
X7515920Y-16932841D01*
X7515920Y-16932841D02*
X7515920Y-16894746D01*
X7515920Y-16894746D02*
X7525444Y-16847127D01*
X7525444Y-16847127D02*
X7534968Y-16818555D01*
X7534968Y-16818555D02*
X7544491Y-16799508D01*
X7544491Y-16799508D02*
X7563539Y-16770936D01*
X7563539Y-16770936D02*
X7573063Y-16761412D01*
X7754015Y-16989984D02*
X7639729Y-16989984D01*
X7696872Y-16989984D02*
X7696872Y-16789984D01*
X7696872Y-16789984D02*
X7677825Y-16818555D01*
X7677825Y-16818555D02*
X7658777Y-16837603D01*
X7658777Y-16837603D02*
X7639729Y-16847127D01*
X7868301Y-16875698D02*
X7849253Y-16866174D01*
X7849253Y-16866174D02*
X7839729Y-16856650D01*
X7839729Y-16856650D02*
X7830206Y-16837603D01*
X7830206Y-16837603D02*
X7830206Y-16828079D01*
X7830206Y-16828079D02*
X7839729Y-16809031D01*
X7839729Y-16809031D02*
X7849253Y-16799508D01*
X7849253Y-16799508D02*
X7868301Y-16789984D01*
X7868301Y-16789984D02*
X7906396Y-16789984D01*
X7906396Y-16789984D02*
X7925444Y-16799508D01*
X7925444Y-16799508D02*
X7934968Y-16809031D01*
X7934968Y-16809031D02*
X7944491Y-16828079D01*
X7944491Y-16828079D02*
X7944491Y-16837603D01*
X7944491Y-16837603D02*
X7934968Y-16856650D01*
X7934968Y-16856650D02*
X7925444Y-16866174D01*
X7925444Y-16866174D02*
X7906396Y-16875698D01*
X7906396Y-16875698D02*
X7868301Y-16875698D01*
X7868301Y-16875698D02*
X7849253Y-16885222D01*
X7849253Y-16885222D02*
X7839729Y-16894746D01*
X7839729Y-16894746D02*
X7830206Y-16913793D01*
X7830206Y-16913793D02*
X7830206Y-16951889D01*
X7830206Y-16951889D02*
X7839729Y-16970936D01*
X7839729Y-16970936D02*
X7849253Y-16980460D01*
X7849253Y-16980460D02*
X7868301Y-16989984D01*
X7868301Y-16989984D02*
X7906396Y-16989984D01*
X7906396Y-16989984D02*
X7925444Y-16980460D01*
X7925444Y-16980460D02*
X7934968Y-16970936D01*
X7934968Y-16970936D02*
X7944491Y-16951889D01*
X7944491Y-16951889D02*
X7944491Y-16913793D01*
X7944491Y-16913793D02*
X7934968Y-16894746D01*
X7934968Y-16894746D02*
X7925444Y-16885222D01*
X7925444Y-16885222D02*
X7906396Y-16875698D01*
X8182587Y-16989984D02*
X8182587Y-16789984D01*
X8268301Y-16989984D02*
X8268301Y-16885222D01*
X8268301Y-16885222D02*
X8258777Y-16866174D01*
X8258777Y-16866174D02*
X8239730Y-16856650D01*
X8239730Y-16856650D02*
X8211158Y-16856650D01*
X8211158Y-16856650D02*
X8192110Y-16866174D01*
X8192110Y-16866174D02*
X8182587Y-16875698D01*
X8392111Y-16989984D02*
X8373063Y-16980460D01*
X8373063Y-16980460D02*
X8363539Y-16970936D01*
X8363539Y-16970936D02*
X8354015Y-16951889D01*
X8354015Y-16951889D02*
X8354015Y-16894746D01*
X8354015Y-16894746D02*
X8363539Y-16875698D01*
X8363539Y-16875698D02*
X8373063Y-16866174D01*
X8373063Y-16866174D02*
X8392111Y-16856650D01*
X8392111Y-16856650D02*
X8420682Y-16856650D01*
X8420682Y-16856650D02*
X8439730Y-16866174D01*
X8439730Y-16866174D02*
X8449253Y-16875698D01*
X8449253Y-16875698D02*
X8458777Y-16894746D01*
X8458777Y-16894746D02*
X8458777Y-16951889D01*
X8458777Y-16951889D02*
X8449253Y-16970936D01*
X8449253Y-16970936D02*
X8439730Y-16980460D01*
X8439730Y-16980460D02*
X8420682Y-16989984D01*
X8420682Y-16989984D02*
X8392111Y-16989984D01*
X8573063Y-16989984D02*
X8554015Y-16980460D01*
X8554015Y-16980460D02*
X8544492Y-16961412D01*
X8544492Y-16961412D02*
X8544492Y-16789984D01*
X8725444Y-16980460D02*
X8706396Y-16989984D01*
X8706396Y-16989984D02*
X8668301Y-16989984D01*
X8668301Y-16989984D02*
X8649253Y-16980460D01*
X8649253Y-16980460D02*
X8639730Y-16961412D01*
X8639730Y-16961412D02*
X8639730Y-16885222D01*
X8639730Y-16885222D02*
X8649253Y-16866174D01*
X8649253Y-16866174D02*
X8668301Y-16856650D01*
X8668301Y-16856650D02*
X8706396Y-16856650D01*
X8706396Y-16856650D02*
X8725444Y-16866174D01*
X8725444Y-16866174D02*
X8734968Y-16885222D01*
X8734968Y-16885222D02*
X8734968Y-16904270D01*
X8734968Y-16904270D02*
X8639730Y-16923317D01*
X8811158Y-16980460D02*
X8830206Y-16989984D01*
X8830206Y-16989984D02*
X8868301Y-16989984D01*
X8868301Y-16989984D02*
X8887349Y-16980460D01*
X8887349Y-16980460D02*
X8896873Y-16961412D01*
X8896873Y-16961412D02*
X8896873Y-16951889D01*
X8896873Y-16951889D02*
X8887349Y-16932841D01*
X8887349Y-16932841D02*
X8868301Y-16923317D01*
X8868301Y-16923317D02*
X8839730Y-16923317D01*
X8839730Y-16923317D02*
X8820682Y-16913793D01*
X8820682Y-16913793D02*
X8811158Y-16894746D01*
X8811158Y-16894746D02*
X8811158Y-16885222D01*
X8811158Y-16885222D02*
X8820682Y-16866174D01*
X8820682Y-16866174D02*
X8839730Y-16856650D01*
X8839730Y-16856650D02*
X8868301Y-16856650D01*
X8868301Y-16856650D02*
X8887349Y-16866174D01*
X8963539Y-17066174D02*
X8973063Y-17056650D01*
X8973063Y-17056650D02*
X8992111Y-17028079D01*
X8992111Y-17028079D02*
X9001634Y-17009031D01*
X9001634Y-17009031D02*
X9011158Y-16980460D01*
X9011158Y-16980460D02*
X9020682Y-16932841D01*
X9020682Y-16932841D02*
X9020682Y-16894746D01*
X9020682Y-16894746D02*
X9011158Y-16847127D01*
X9011158Y-16847127D02*
X9001634Y-16818555D01*
X9001634Y-16818555D02*
X8992111Y-16799508D01*
X8992111Y-16799508D02*
X8973063Y-16770936D01*
X8973063Y-16770936D02*
X8963539Y-16761412D01*
D12*
X3998000Y-17162500D02*
G75*
G02*
X3918000Y-17162500I-40000J0D01*
G01*
X3918000Y-17162500D02*
G75*
G02*
X3998000Y-17162500I40000J0D01*
G01*
D11*
X4296872Y-17053984D02*
X4315920Y-17053984D01*
X4315920Y-17053984D02*
X4334967Y-17063508D01*
X4334967Y-17063508D02*
X4344491Y-17073031D01*
X4344491Y-17073031D02*
X4354015Y-17092079D01*
X4354015Y-17092079D02*
X4363539Y-17130174D01*
X4363539Y-17130174D02*
X4363539Y-17177793D01*
X4363539Y-17177793D02*
X4354015Y-17215889D01*
X4354015Y-17215889D02*
X4344491Y-17234936D01*
X4344491Y-17234936D02*
X4334967Y-17244460D01*
X4334967Y-17244460D02*
X4315920Y-17253984D01*
X4315920Y-17253984D02*
X4296872Y-17253984D01*
X4296872Y-17253984D02*
X4277824Y-17244460D01*
X4277824Y-17244460D02*
X4268301Y-17234936D01*
X4268301Y-17234936D02*
X4258777Y-17215889D01*
X4258777Y-17215889D02*
X4249253Y-17177793D01*
X4249253Y-17177793D02*
X4249253Y-17130174D01*
X4249253Y-17130174D02*
X4258777Y-17092079D01*
X4258777Y-17092079D02*
X4268301Y-17073031D01*
X4268301Y-17073031D02*
X4277824Y-17063508D01*
X4277824Y-17063508D02*
X4296872Y-17053984D01*
X4449253Y-17234936D02*
X4458777Y-17244460D01*
X4458777Y-17244460D02*
X4449253Y-17253984D01*
X4449253Y-17253984D02*
X4439729Y-17244460D01*
X4439729Y-17244460D02*
X4449253Y-17234936D01*
X4449253Y-17234936D02*
X4449253Y-17253984D01*
X4573063Y-17139698D02*
X4554015Y-17130174D01*
X4554015Y-17130174D02*
X4544491Y-17120650D01*
X4544491Y-17120650D02*
X4534967Y-17101603D01*
X4534967Y-17101603D02*
X4534967Y-17092079D01*
X4534967Y-17092079D02*
X4544491Y-17073031D01*
X4544491Y-17073031D02*
X4554015Y-17063508D01*
X4554015Y-17063508D02*
X4573063Y-17053984D01*
X4573063Y-17053984D02*
X4611158Y-17053984D01*
X4611158Y-17053984D02*
X4630205Y-17063508D01*
X4630205Y-17063508D02*
X4639729Y-17073031D01*
X4639729Y-17073031D02*
X4649253Y-17092079D01*
X4649253Y-17092079D02*
X4649253Y-17101603D01*
X4649253Y-17101603D02*
X4639729Y-17120650D01*
X4639729Y-17120650D02*
X4630205Y-17130174D01*
X4630205Y-17130174D02*
X4611158Y-17139698D01*
X4611158Y-17139698D02*
X4573063Y-17139698D01*
X4573063Y-17139698D02*
X4554015Y-17149222D01*
X4554015Y-17149222D02*
X4544491Y-17158746D01*
X4544491Y-17158746D02*
X4534967Y-17177793D01*
X4534967Y-17177793D02*
X4534967Y-17215889D01*
X4534967Y-17215889D02*
X4544491Y-17234936D01*
X4544491Y-17234936D02*
X4554015Y-17244460D01*
X4554015Y-17244460D02*
X4573063Y-17253984D01*
X4573063Y-17253984D02*
X4611158Y-17253984D01*
X4611158Y-17253984D02*
X4630205Y-17244460D01*
X4630205Y-17244460D02*
X4639729Y-17234936D01*
X4639729Y-17234936D02*
X4649253Y-17215889D01*
X4649253Y-17215889D02*
X4649253Y-17177793D01*
X4649253Y-17177793D02*
X4639729Y-17158746D01*
X4639729Y-17158746D02*
X4630205Y-17149222D01*
X4630205Y-17149222D02*
X4611158Y-17139698D01*
X4773063Y-17053984D02*
X4792110Y-17053984D01*
X4792110Y-17053984D02*
X4811158Y-17063508D01*
X4811158Y-17063508D02*
X4820682Y-17073031D01*
X4820682Y-17073031D02*
X4830205Y-17092079D01*
X4830205Y-17092079D02*
X4839729Y-17130174D01*
X4839729Y-17130174D02*
X4839729Y-17177793D01*
X4839729Y-17177793D02*
X4830205Y-17215889D01*
X4830205Y-17215889D02*
X4820682Y-17234936D01*
X4820682Y-17234936D02*
X4811158Y-17244460D01*
X4811158Y-17244460D02*
X4792110Y-17253984D01*
X4792110Y-17253984D02*
X4773063Y-17253984D01*
X4773063Y-17253984D02*
X4754015Y-17244460D01*
X4754015Y-17244460D02*
X4744491Y-17234936D01*
X4744491Y-17234936D02*
X4734967Y-17215889D01*
X4734967Y-17215889D02*
X4725444Y-17177793D01*
X4725444Y-17177793D02*
X4725444Y-17130174D01*
X4725444Y-17130174D02*
X4734967Y-17092079D01*
X4734967Y-17092079D02*
X4744491Y-17073031D01*
X4744491Y-17073031D02*
X4754015Y-17063508D01*
X4754015Y-17063508D02*
X4773063Y-17053984D01*
X4963539Y-17053984D02*
X4982586Y-17053984D01*
X4982586Y-17053984D02*
X5001634Y-17063508D01*
X5001634Y-17063508D02*
X5011158Y-17073031D01*
X5011158Y-17073031D02*
X5020682Y-17092079D01*
X5020682Y-17092079D02*
X5030205Y-17130174D01*
X5030205Y-17130174D02*
X5030205Y-17177793D01*
X5030205Y-17177793D02*
X5020682Y-17215889D01*
X5020682Y-17215889D02*
X5011158Y-17234936D01*
X5011158Y-17234936D02*
X5001634Y-17244460D01*
X5001634Y-17244460D02*
X4982586Y-17253984D01*
X4982586Y-17253984D02*
X4963539Y-17253984D01*
X4963539Y-17253984D02*
X4944491Y-17244460D01*
X4944491Y-17244460D02*
X4934967Y-17234936D01*
X4934967Y-17234936D02*
X4925444Y-17215889D01*
X4925444Y-17215889D02*
X4915920Y-17177793D01*
X4915920Y-17177793D02*
X4915920Y-17130174D01*
X4915920Y-17130174D02*
X4925444Y-17092079D01*
X4925444Y-17092079D02*
X4934967Y-17073031D01*
X4934967Y-17073031D02*
X4944491Y-17063508D01*
X4944491Y-17063508D02*
X4963539Y-17053984D01*
X5115920Y-17253984D02*
X5115920Y-17120650D01*
X5115920Y-17139698D02*
X5125444Y-17130174D01*
X5125444Y-17130174D02*
X5144491Y-17120650D01*
X5144491Y-17120650D02*
X5173063Y-17120650D01*
X5173063Y-17120650D02*
X5192110Y-17130174D01*
X5192110Y-17130174D02*
X5201634Y-17149222D01*
X5201634Y-17149222D02*
X5201634Y-17253984D01*
X5201634Y-17149222D02*
X5211158Y-17130174D01*
X5211158Y-17130174D02*
X5230205Y-17120650D01*
X5230205Y-17120650D02*
X5258777Y-17120650D01*
X5258777Y-17120650D02*
X5277825Y-17130174D01*
X5277825Y-17130174D02*
X5287348Y-17149222D01*
X5287348Y-17149222D02*
X5287348Y-17253984D01*
X5382586Y-17253984D02*
X5382586Y-17120650D01*
X5382586Y-17139698D02*
X5392110Y-17130174D01*
X5392110Y-17130174D02*
X5411158Y-17120650D01*
X5411158Y-17120650D02*
X5439729Y-17120650D01*
X5439729Y-17120650D02*
X5458777Y-17130174D01*
X5458777Y-17130174D02*
X5468301Y-17149222D01*
X5468301Y-17149222D02*
X5468301Y-17253984D01*
X5468301Y-17149222D02*
X5477825Y-17130174D01*
X5477825Y-17130174D02*
X5496872Y-17120650D01*
X5496872Y-17120650D02*
X5525444Y-17120650D01*
X5525444Y-17120650D02*
X5544491Y-17130174D01*
X5544491Y-17130174D02*
X5554015Y-17149222D01*
X5554015Y-17149222D02*
X5554015Y-17253984D01*
X5944491Y-17044460D02*
X5773063Y-17301603D01*
X6201634Y-17053984D02*
X6220682Y-17053984D01*
X6220682Y-17053984D02*
X6239729Y-17063508D01*
X6239729Y-17063508D02*
X6249253Y-17073031D01*
X6249253Y-17073031D02*
X6258777Y-17092079D01*
X6258777Y-17092079D02*
X6268301Y-17130174D01*
X6268301Y-17130174D02*
X6268301Y-17177793D01*
X6268301Y-17177793D02*
X6258777Y-17215889D01*
X6258777Y-17215889D02*
X6249253Y-17234936D01*
X6249253Y-17234936D02*
X6239729Y-17244460D01*
X6239729Y-17244460D02*
X6220682Y-17253984D01*
X6220682Y-17253984D02*
X6201634Y-17253984D01*
X6201634Y-17253984D02*
X6182586Y-17244460D01*
X6182586Y-17244460D02*
X6173063Y-17234936D01*
X6173063Y-17234936D02*
X6163539Y-17215889D01*
X6163539Y-17215889D02*
X6154015Y-17177793D01*
X6154015Y-17177793D02*
X6154015Y-17130174D01*
X6154015Y-17130174D02*
X6163539Y-17092079D01*
X6163539Y-17092079D02*
X6173063Y-17073031D01*
X6173063Y-17073031D02*
X6182586Y-17063508D01*
X6182586Y-17063508D02*
X6201634Y-17053984D01*
X6354015Y-17234936D02*
X6363539Y-17244460D01*
X6363539Y-17244460D02*
X6354015Y-17253984D01*
X6354015Y-17253984D02*
X6344491Y-17244460D01*
X6344491Y-17244460D02*
X6354015Y-17234936D01*
X6354015Y-17234936D02*
X6354015Y-17253984D01*
X6487348Y-17053984D02*
X6506396Y-17053984D01*
X6506396Y-17053984D02*
X6525444Y-17063508D01*
X6525444Y-17063508D02*
X6534967Y-17073031D01*
X6534967Y-17073031D02*
X6544491Y-17092079D01*
X6544491Y-17092079D02*
X6554015Y-17130174D01*
X6554015Y-17130174D02*
X6554015Y-17177793D01*
X6554015Y-17177793D02*
X6544491Y-17215889D01*
X6544491Y-17215889D02*
X6534967Y-17234936D01*
X6534967Y-17234936D02*
X6525444Y-17244460D01*
X6525444Y-17244460D02*
X6506396Y-17253984D01*
X6506396Y-17253984D02*
X6487348Y-17253984D01*
X6487348Y-17253984D02*
X6468301Y-17244460D01*
X6468301Y-17244460D02*
X6458777Y-17234936D01*
X6458777Y-17234936D02*
X6449253Y-17215889D01*
X6449253Y-17215889D02*
X6439729Y-17177793D01*
X6439729Y-17177793D02*
X6439729Y-17130174D01*
X6439729Y-17130174D02*
X6449253Y-17092079D01*
X6449253Y-17092079D02*
X6458777Y-17073031D01*
X6458777Y-17073031D02*
X6468301Y-17063508D01*
X6468301Y-17063508D02*
X6487348Y-17053984D01*
X6620682Y-17053984D02*
X6744491Y-17053984D01*
X6744491Y-17053984D02*
X6677825Y-17130174D01*
X6677825Y-17130174D02*
X6706396Y-17130174D01*
X6706396Y-17130174D02*
X6725444Y-17139698D01*
X6725444Y-17139698D02*
X6734967Y-17149222D01*
X6734967Y-17149222D02*
X6744491Y-17168270D01*
X6744491Y-17168270D02*
X6744491Y-17215889D01*
X6744491Y-17215889D02*
X6734967Y-17234936D01*
X6734967Y-17234936D02*
X6725444Y-17244460D01*
X6725444Y-17244460D02*
X6706396Y-17253984D01*
X6706396Y-17253984D02*
X6649253Y-17253984D01*
X6649253Y-17253984D02*
X6630206Y-17244460D01*
X6630206Y-17244460D02*
X6620682Y-17234936D01*
X6934967Y-17253984D02*
X6820682Y-17253984D01*
X6877825Y-17253984D02*
X6877825Y-17053984D01*
X6877825Y-17053984D02*
X6858777Y-17082555D01*
X6858777Y-17082555D02*
X6839729Y-17101603D01*
X6839729Y-17101603D02*
X6820682Y-17111127D01*
X7115920Y-17053984D02*
X7020682Y-17053984D01*
X7020682Y-17053984D02*
X7011158Y-17149222D01*
X7011158Y-17149222D02*
X7020682Y-17139698D01*
X7020682Y-17139698D02*
X7039729Y-17130174D01*
X7039729Y-17130174D02*
X7087348Y-17130174D01*
X7087348Y-17130174D02*
X7106396Y-17139698D01*
X7106396Y-17139698D02*
X7115920Y-17149222D01*
X7115920Y-17149222D02*
X7125444Y-17168270D01*
X7125444Y-17168270D02*
X7125444Y-17215889D01*
X7125444Y-17215889D02*
X7115920Y-17234936D01*
X7115920Y-17234936D02*
X7106396Y-17244460D01*
X7106396Y-17244460D02*
X7087348Y-17253984D01*
X7087348Y-17253984D02*
X7039729Y-17253984D01*
X7039729Y-17253984D02*
X7020682Y-17244460D01*
X7020682Y-17244460D02*
X7011158Y-17234936D01*
X7201634Y-17053984D02*
X7201634Y-17092079D01*
X7277825Y-17053984D02*
X7277825Y-17092079D01*
X7573063Y-17330174D02*
X7563539Y-17320650D01*
X7563539Y-17320650D02*
X7544491Y-17292079D01*
X7544491Y-17292079D02*
X7534968Y-17273031D01*
X7534968Y-17273031D02*
X7525444Y-17244460D01*
X7525444Y-17244460D02*
X7515920Y-17196841D01*
X7515920Y-17196841D02*
X7515920Y-17158746D01*
X7515920Y-17158746D02*
X7525444Y-17111127D01*
X7525444Y-17111127D02*
X7534968Y-17082555D01*
X7534968Y-17082555D02*
X7544491Y-17063508D01*
X7544491Y-17063508D02*
X7563539Y-17034936D01*
X7563539Y-17034936D02*
X7573063Y-17025412D01*
X7734968Y-17120650D02*
X7734968Y-17253984D01*
X7687348Y-17044460D02*
X7639729Y-17187317D01*
X7639729Y-17187317D02*
X7763539Y-17187317D01*
X7992110Y-17253984D02*
X7992110Y-17053984D01*
X8077825Y-17253984D02*
X8077825Y-17149222D01*
X8077825Y-17149222D02*
X8068301Y-17130174D01*
X8068301Y-17130174D02*
X8049253Y-17120650D01*
X8049253Y-17120650D02*
X8020682Y-17120650D01*
X8020682Y-17120650D02*
X8001634Y-17130174D01*
X8001634Y-17130174D02*
X7992110Y-17139698D01*
X8201634Y-17253984D02*
X8182587Y-17244460D01*
X8182587Y-17244460D02*
X8173063Y-17234936D01*
X8173063Y-17234936D02*
X8163539Y-17215889D01*
X8163539Y-17215889D02*
X8163539Y-17158746D01*
X8163539Y-17158746D02*
X8173063Y-17139698D01*
X8173063Y-17139698D02*
X8182587Y-17130174D01*
X8182587Y-17130174D02*
X8201634Y-17120650D01*
X8201634Y-17120650D02*
X8230206Y-17120650D01*
X8230206Y-17120650D02*
X8249253Y-17130174D01*
X8249253Y-17130174D02*
X8258777Y-17139698D01*
X8258777Y-17139698D02*
X8268301Y-17158746D01*
X8268301Y-17158746D02*
X8268301Y-17215889D01*
X8268301Y-17215889D02*
X8258777Y-17234936D01*
X8258777Y-17234936D02*
X8249253Y-17244460D01*
X8249253Y-17244460D02*
X8230206Y-17253984D01*
X8230206Y-17253984D02*
X8201634Y-17253984D01*
X8382587Y-17253984D02*
X8363539Y-17244460D01*
X8363539Y-17244460D02*
X8354015Y-17225412D01*
X8354015Y-17225412D02*
X8354015Y-17053984D01*
X8534968Y-17244460D02*
X8515920Y-17253984D01*
X8515920Y-17253984D02*
X8477825Y-17253984D01*
X8477825Y-17253984D02*
X8458777Y-17244460D01*
X8458777Y-17244460D02*
X8449253Y-17225412D01*
X8449253Y-17225412D02*
X8449253Y-17149222D01*
X8449253Y-17149222D02*
X8458777Y-17130174D01*
X8458777Y-17130174D02*
X8477825Y-17120650D01*
X8477825Y-17120650D02*
X8515920Y-17120650D01*
X8515920Y-17120650D02*
X8534968Y-17130174D01*
X8534968Y-17130174D02*
X8544492Y-17149222D01*
X8544492Y-17149222D02*
X8544492Y-17168270D01*
X8544492Y-17168270D02*
X8449253Y-17187317D01*
X8620682Y-17244460D02*
X8639730Y-17253984D01*
X8639730Y-17253984D02*
X8677825Y-17253984D01*
X8677825Y-17253984D02*
X8696873Y-17244460D01*
X8696873Y-17244460D02*
X8706396Y-17225412D01*
X8706396Y-17225412D02*
X8706396Y-17215889D01*
X8706396Y-17215889D02*
X8696873Y-17196841D01*
X8696873Y-17196841D02*
X8677825Y-17187317D01*
X8677825Y-17187317D02*
X8649253Y-17187317D01*
X8649253Y-17187317D02*
X8630206Y-17177793D01*
X8630206Y-17177793D02*
X8620682Y-17158746D01*
X8620682Y-17158746D02*
X8620682Y-17149222D01*
X8620682Y-17149222D02*
X8630206Y-17130174D01*
X8630206Y-17130174D02*
X8649253Y-17120650D01*
X8649253Y-17120650D02*
X8677825Y-17120650D01*
X8677825Y-17120650D02*
X8696873Y-17130174D01*
X8773063Y-17330174D02*
X8782587Y-17320650D01*
X8782587Y-17320650D02*
X8801634Y-17292079D01*
X8801634Y-17292079D02*
X8811158Y-17273031D01*
X8811158Y-17273031D02*
X8820682Y-17244460D01*
X8820682Y-17244460D02*
X8830206Y-17196841D01*
X8830206Y-17196841D02*
X8830206Y-17158746D01*
X8830206Y-17158746D02*
X8820682Y-17111127D01*
X8820682Y-17111127D02*
X8811158Y-17082555D01*
X8811158Y-17082555D02*
X8801634Y-17063508D01*
X8801634Y-17063508D02*
X8782587Y-17034936D01*
X8782587Y-17034936D02*
X8773063Y-17025412D01*
D12*
X3948000Y-17376500D02*
X3948000Y-17476500D01*
X3898000Y-17426500D02*
X3998000Y-17426500D01*
D11*
X4363539Y-17517984D02*
X4249253Y-17517984D01*
X4306396Y-17517984D02*
X4306396Y-17317984D01*
X4306396Y-17317984D02*
X4287348Y-17346555D01*
X4287348Y-17346555D02*
X4268301Y-17365603D01*
X4268301Y-17365603D02*
X4249253Y-17375127D01*
X4449253Y-17498936D02*
X4458777Y-17508460D01*
X4458777Y-17508460D02*
X4449253Y-17517984D01*
X4449253Y-17517984D02*
X4439729Y-17508460D01*
X4439729Y-17508460D02*
X4449253Y-17498936D01*
X4449253Y-17498936D02*
X4449253Y-17517984D01*
X4582586Y-17317984D02*
X4601634Y-17317984D01*
X4601634Y-17317984D02*
X4620682Y-17327508D01*
X4620682Y-17327508D02*
X4630205Y-17337031D01*
X4630205Y-17337031D02*
X4639729Y-17356079D01*
X4639729Y-17356079D02*
X4649253Y-17394174D01*
X4649253Y-17394174D02*
X4649253Y-17441793D01*
X4649253Y-17441793D02*
X4639729Y-17479889D01*
X4639729Y-17479889D02*
X4630205Y-17498936D01*
X4630205Y-17498936D02*
X4620682Y-17508460D01*
X4620682Y-17508460D02*
X4601634Y-17517984D01*
X4601634Y-17517984D02*
X4582586Y-17517984D01*
X4582586Y-17517984D02*
X4563539Y-17508460D01*
X4563539Y-17508460D02*
X4554015Y-17498936D01*
X4554015Y-17498936D02*
X4544491Y-17479889D01*
X4544491Y-17479889D02*
X4534967Y-17441793D01*
X4534967Y-17441793D02*
X4534967Y-17394174D01*
X4534967Y-17394174D02*
X4544491Y-17356079D01*
X4544491Y-17356079D02*
X4554015Y-17337031D01*
X4554015Y-17337031D02*
X4563539Y-17327508D01*
X4563539Y-17327508D02*
X4582586Y-17317984D01*
X4773063Y-17317984D02*
X4792110Y-17317984D01*
X4792110Y-17317984D02*
X4811158Y-17327508D01*
X4811158Y-17327508D02*
X4820682Y-17337031D01*
X4820682Y-17337031D02*
X4830205Y-17356079D01*
X4830205Y-17356079D02*
X4839729Y-17394174D01*
X4839729Y-17394174D02*
X4839729Y-17441793D01*
X4839729Y-17441793D02*
X4830205Y-17479889D01*
X4830205Y-17479889D02*
X4820682Y-17498936D01*
X4820682Y-17498936D02*
X4811158Y-17508460D01*
X4811158Y-17508460D02*
X4792110Y-17517984D01*
X4792110Y-17517984D02*
X4773063Y-17517984D01*
X4773063Y-17517984D02*
X4754015Y-17508460D01*
X4754015Y-17508460D02*
X4744491Y-17498936D01*
X4744491Y-17498936D02*
X4734967Y-17479889D01*
X4734967Y-17479889D02*
X4725444Y-17441793D01*
X4725444Y-17441793D02*
X4725444Y-17394174D01*
X4725444Y-17394174D02*
X4734967Y-17356079D01*
X4734967Y-17356079D02*
X4744491Y-17337031D01*
X4744491Y-17337031D02*
X4754015Y-17327508D01*
X4754015Y-17327508D02*
X4773063Y-17317984D01*
X4963539Y-17317984D02*
X4982586Y-17317984D01*
X4982586Y-17317984D02*
X5001634Y-17327508D01*
X5001634Y-17327508D02*
X5011158Y-17337031D01*
X5011158Y-17337031D02*
X5020682Y-17356079D01*
X5020682Y-17356079D02*
X5030205Y-17394174D01*
X5030205Y-17394174D02*
X5030205Y-17441793D01*
X5030205Y-17441793D02*
X5020682Y-17479889D01*
X5020682Y-17479889D02*
X5011158Y-17498936D01*
X5011158Y-17498936D02*
X5001634Y-17508460D01*
X5001634Y-17508460D02*
X4982586Y-17517984D01*
X4982586Y-17517984D02*
X4963539Y-17517984D01*
X4963539Y-17517984D02*
X4944491Y-17508460D01*
X4944491Y-17508460D02*
X4934967Y-17498936D01*
X4934967Y-17498936D02*
X4925444Y-17479889D01*
X4925444Y-17479889D02*
X4915920Y-17441793D01*
X4915920Y-17441793D02*
X4915920Y-17394174D01*
X4915920Y-17394174D02*
X4925444Y-17356079D01*
X4925444Y-17356079D02*
X4934967Y-17337031D01*
X4934967Y-17337031D02*
X4944491Y-17327508D01*
X4944491Y-17327508D02*
X4963539Y-17317984D01*
X5115920Y-17517984D02*
X5115920Y-17384650D01*
X5115920Y-17403698D02*
X5125444Y-17394174D01*
X5125444Y-17394174D02*
X5144491Y-17384650D01*
X5144491Y-17384650D02*
X5173063Y-17384650D01*
X5173063Y-17384650D02*
X5192110Y-17394174D01*
X5192110Y-17394174D02*
X5201634Y-17413222D01*
X5201634Y-17413222D02*
X5201634Y-17517984D01*
X5201634Y-17413222D02*
X5211158Y-17394174D01*
X5211158Y-17394174D02*
X5230205Y-17384650D01*
X5230205Y-17384650D02*
X5258777Y-17384650D01*
X5258777Y-17384650D02*
X5277825Y-17394174D01*
X5277825Y-17394174D02*
X5287348Y-17413222D01*
X5287348Y-17413222D02*
X5287348Y-17517984D01*
X5382586Y-17517984D02*
X5382586Y-17384650D01*
X5382586Y-17403698D02*
X5392110Y-17394174D01*
X5392110Y-17394174D02*
X5411158Y-17384650D01*
X5411158Y-17384650D02*
X5439729Y-17384650D01*
X5439729Y-17384650D02*
X5458777Y-17394174D01*
X5458777Y-17394174D02*
X5468301Y-17413222D01*
X5468301Y-17413222D02*
X5468301Y-17517984D01*
X5468301Y-17413222D02*
X5477825Y-17394174D01*
X5477825Y-17394174D02*
X5496872Y-17384650D01*
X5496872Y-17384650D02*
X5525444Y-17384650D01*
X5525444Y-17384650D02*
X5544491Y-17394174D01*
X5544491Y-17394174D02*
X5554015Y-17413222D01*
X5554015Y-17413222D02*
X5554015Y-17517984D01*
X5944491Y-17308460D02*
X5773063Y-17565603D01*
X6201634Y-17317984D02*
X6220682Y-17317984D01*
X6220682Y-17317984D02*
X6239729Y-17327508D01*
X6239729Y-17327508D02*
X6249253Y-17337031D01*
X6249253Y-17337031D02*
X6258777Y-17356079D01*
X6258777Y-17356079D02*
X6268301Y-17394174D01*
X6268301Y-17394174D02*
X6268301Y-17441793D01*
X6268301Y-17441793D02*
X6258777Y-17479889D01*
X6258777Y-17479889D02*
X6249253Y-17498936D01*
X6249253Y-17498936D02*
X6239729Y-17508460D01*
X6239729Y-17508460D02*
X6220682Y-17517984D01*
X6220682Y-17517984D02*
X6201634Y-17517984D01*
X6201634Y-17517984D02*
X6182586Y-17508460D01*
X6182586Y-17508460D02*
X6173063Y-17498936D01*
X6173063Y-17498936D02*
X6163539Y-17479889D01*
X6163539Y-17479889D02*
X6154015Y-17441793D01*
X6154015Y-17441793D02*
X6154015Y-17394174D01*
X6154015Y-17394174D02*
X6163539Y-17356079D01*
X6163539Y-17356079D02*
X6173063Y-17337031D01*
X6173063Y-17337031D02*
X6182586Y-17327508D01*
X6182586Y-17327508D02*
X6201634Y-17317984D01*
X6354015Y-17498936D02*
X6363539Y-17508460D01*
X6363539Y-17508460D02*
X6354015Y-17517984D01*
X6354015Y-17517984D02*
X6344491Y-17508460D01*
X6344491Y-17508460D02*
X6354015Y-17498936D01*
X6354015Y-17498936D02*
X6354015Y-17517984D01*
X6487348Y-17317984D02*
X6506396Y-17317984D01*
X6506396Y-17317984D02*
X6525444Y-17327508D01*
X6525444Y-17327508D02*
X6534967Y-17337031D01*
X6534967Y-17337031D02*
X6544491Y-17356079D01*
X6544491Y-17356079D02*
X6554015Y-17394174D01*
X6554015Y-17394174D02*
X6554015Y-17441793D01*
X6554015Y-17441793D02*
X6544491Y-17479889D01*
X6544491Y-17479889D02*
X6534967Y-17498936D01*
X6534967Y-17498936D02*
X6525444Y-17508460D01*
X6525444Y-17508460D02*
X6506396Y-17517984D01*
X6506396Y-17517984D02*
X6487348Y-17517984D01*
X6487348Y-17517984D02*
X6468301Y-17508460D01*
X6468301Y-17508460D02*
X6458777Y-17498936D01*
X6458777Y-17498936D02*
X6449253Y-17479889D01*
X6449253Y-17479889D02*
X6439729Y-17441793D01*
X6439729Y-17441793D02*
X6439729Y-17394174D01*
X6439729Y-17394174D02*
X6449253Y-17356079D01*
X6449253Y-17356079D02*
X6458777Y-17337031D01*
X6458777Y-17337031D02*
X6468301Y-17327508D01*
X6468301Y-17327508D02*
X6487348Y-17317984D01*
X6620682Y-17317984D02*
X6744491Y-17317984D01*
X6744491Y-17317984D02*
X6677825Y-17394174D01*
X6677825Y-17394174D02*
X6706396Y-17394174D01*
X6706396Y-17394174D02*
X6725444Y-17403698D01*
X6725444Y-17403698D02*
X6734967Y-17413222D01*
X6734967Y-17413222D02*
X6744491Y-17432270D01*
X6744491Y-17432270D02*
X6744491Y-17479889D01*
X6744491Y-17479889D02*
X6734967Y-17498936D01*
X6734967Y-17498936D02*
X6725444Y-17508460D01*
X6725444Y-17508460D02*
X6706396Y-17517984D01*
X6706396Y-17517984D02*
X6649253Y-17517984D01*
X6649253Y-17517984D02*
X6630206Y-17508460D01*
X6630206Y-17508460D02*
X6620682Y-17498936D01*
X6839729Y-17517984D02*
X6877825Y-17517984D01*
X6877825Y-17517984D02*
X6896872Y-17508460D01*
X6896872Y-17508460D02*
X6906396Y-17498936D01*
X6906396Y-17498936D02*
X6925444Y-17470365D01*
X6925444Y-17470365D02*
X6934967Y-17432270D01*
X6934967Y-17432270D02*
X6934967Y-17356079D01*
X6934967Y-17356079D02*
X6925444Y-17337031D01*
X6925444Y-17337031D02*
X6915920Y-17327508D01*
X6915920Y-17327508D02*
X6896872Y-17317984D01*
X6896872Y-17317984D02*
X6858777Y-17317984D01*
X6858777Y-17317984D02*
X6839729Y-17327508D01*
X6839729Y-17327508D02*
X6830206Y-17337031D01*
X6830206Y-17337031D02*
X6820682Y-17356079D01*
X6820682Y-17356079D02*
X6820682Y-17403698D01*
X6820682Y-17403698D02*
X6830206Y-17422746D01*
X6830206Y-17422746D02*
X6839729Y-17432270D01*
X6839729Y-17432270D02*
X6858777Y-17441793D01*
X6858777Y-17441793D02*
X6896872Y-17441793D01*
X6896872Y-17441793D02*
X6915920Y-17432270D01*
X6915920Y-17432270D02*
X6925444Y-17422746D01*
X6925444Y-17422746D02*
X6934967Y-17403698D01*
X7106396Y-17384650D02*
X7106396Y-17517984D01*
X7058777Y-17308460D02*
X7011158Y-17451317D01*
X7011158Y-17451317D02*
X7134967Y-17451317D01*
X7201634Y-17317984D02*
X7201634Y-17356079D01*
X7277825Y-17317984D02*
X7277825Y-17356079D01*
X7573063Y-17594174D02*
X7563539Y-17584650D01*
X7563539Y-17584650D02*
X7544491Y-17556079D01*
X7544491Y-17556079D02*
X7534968Y-17537031D01*
X7534968Y-17537031D02*
X7525444Y-17508460D01*
X7525444Y-17508460D02*
X7515920Y-17460841D01*
X7515920Y-17460841D02*
X7515920Y-17422746D01*
X7515920Y-17422746D02*
X7525444Y-17375127D01*
X7525444Y-17375127D02*
X7534968Y-17346555D01*
X7534968Y-17346555D02*
X7544491Y-17327508D01*
X7544491Y-17327508D02*
X7563539Y-17298936D01*
X7563539Y-17298936D02*
X7573063Y-17289412D01*
X7677825Y-17403698D02*
X7658777Y-17394174D01*
X7658777Y-17394174D02*
X7649253Y-17384650D01*
X7649253Y-17384650D02*
X7639729Y-17365603D01*
X7639729Y-17365603D02*
X7639729Y-17356079D01*
X7639729Y-17356079D02*
X7649253Y-17337031D01*
X7649253Y-17337031D02*
X7658777Y-17327508D01*
X7658777Y-17327508D02*
X7677825Y-17317984D01*
X7677825Y-17317984D02*
X7715920Y-17317984D01*
X7715920Y-17317984D02*
X7734968Y-17327508D01*
X7734968Y-17327508D02*
X7744491Y-17337031D01*
X7744491Y-17337031D02*
X7754015Y-17356079D01*
X7754015Y-17356079D02*
X7754015Y-17365603D01*
X7754015Y-17365603D02*
X7744491Y-17384650D01*
X7744491Y-17384650D02*
X7734968Y-17394174D01*
X7734968Y-17394174D02*
X7715920Y-17403698D01*
X7715920Y-17403698D02*
X7677825Y-17403698D01*
X7677825Y-17403698D02*
X7658777Y-17413222D01*
X7658777Y-17413222D02*
X7649253Y-17422746D01*
X7649253Y-17422746D02*
X7639729Y-17441793D01*
X7639729Y-17441793D02*
X7639729Y-17479889D01*
X7639729Y-17479889D02*
X7649253Y-17498936D01*
X7649253Y-17498936D02*
X7658777Y-17508460D01*
X7658777Y-17508460D02*
X7677825Y-17517984D01*
X7677825Y-17517984D02*
X7715920Y-17517984D01*
X7715920Y-17517984D02*
X7734968Y-17508460D01*
X7734968Y-17508460D02*
X7744491Y-17498936D01*
X7744491Y-17498936D02*
X7754015Y-17479889D01*
X7754015Y-17479889D02*
X7754015Y-17441793D01*
X7754015Y-17441793D02*
X7744491Y-17422746D01*
X7744491Y-17422746D02*
X7734968Y-17413222D01*
X7734968Y-17413222D02*
X7715920Y-17403698D01*
X7849253Y-17517984D02*
X7887348Y-17517984D01*
X7887348Y-17517984D02*
X7906396Y-17508460D01*
X7906396Y-17508460D02*
X7915920Y-17498936D01*
X7915920Y-17498936D02*
X7934968Y-17470365D01*
X7934968Y-17470365D02*
X7944491Y-17432270D01*
X7944491Y-17432270D02*
X7944491Y-17356079D01*
X7944491Y-17356079D02*
X7934968Y-17337031D01*
X7934968Y-17337031D02*
X7925444Y-17327508D01*
X7925444Y-17327508D02*
X7906396Y-17317984D01*
X7906396Y-17317984D02*
X7868301Y-17317984D01*
X7868301Y-17317984D02*
X7849253Y-17327508D01*
X7849253Y-17327508D02*
X7839729Y-17337031D01*
X7839729Y-17337031D02*
X7830206Y-17356079D01*
X7830206Y-17356079D02*
X7830206Y-17403698D01*
X7830206Y-17403698D02*
X7839729Y-17422746D01*
X7839729Y-17422746D02*
X7849253Y-17432270D01*
X7849253Y-17432270D02*
X7868301Y-17441793D01*
X7868301Y-17441793D02*
X7906396Y-17441793D01*
X7906396Y-17441793D02*
X7925444Y-17432270D01*
X7925444Y-17432270D02*
X7934968Y-17422746D01*
X7934968Y-17422746D02*
X7944491Y-17403698D01*
X8182587Y-17517984D02*
X8182587Y-17317984D01*
X8268301Y-17517984D02*
X8268301Y-17413222D01*
X8268301Y-17413222D02*
X8258777Y-17394174D01*
X8258777Y-17394174D02*
X8239730Y-17384650D01*
X8239730Y-17384650D02*
X8211158Y-17384650D01*
X8211158Y-17384650D02*
X8192110Y-17394174D01*
X8192110Y-17394174D02*
X8182587Y-17403698D01*
X8392111Y-17517984D02*
X8373063Y-17508460D01*
X8373063Y-17508460D02*
X8363539Y-17498936D01*
X8363539Y-17498936D02*
X8354015Y-17479889D01*
X8354015Y-17479889D02*
X8354015Y-17422746D01*
X8354015Y-17422746D02*
X8363539Y-17403698D01*
X8363539Y-17403698D02*
X8373063Y-17394174D01*
X8373063Y-17394174D02*
X8392111Y-17384650D01*
X8392111Y-17384650D02*
X8420682Y-17384650D01*
X8420682Y-17384650D02*
X8439730Y-17394174D01*
X8439730Y-17394174D02*
X8449253Y-17403698D01*
X8449253Y-17403698D02*
X8458777Y-17422746D01*
X8458777Y-17422746D02*
X8458777Y-17479889D01*
X8458777Y-17479889D02*
X8449253Y-17498936D01*
X8449253Y-17498936D02*
X8439730Y-17508460D01*
X8439730Y-17508460D02*
X8420682Y-17517984D01*
X8420682Y-17517984D02*
X8392111Y-17517984D01*
X8573063Y-17517984D02*
X8554015Y-17508460D01*
X8554015Y-17508460D02*
X8544492Y-17489412D01*
X8544492Y-17489412D02*
X8544492Y-17317984D01*
X8725444Y-17508460D02*
X8706396Y-17517984D01*
X8706396Y-17517984D02*
X8668301Y-17517984D01*
X8668301Y-17517984D02*
X8649253Y-17508460D01*
X8649253Y-17508460D02*
X8639730Y-17489412D01*
X8639730Y-17489412D02*
X8639730Y-17413222D01*
X8639730Y-17413222D02*
X8649253Y-17394174D01*
X8649253Y-17394174D02*
X8668301Y-17384650D01*
X8668301Y-17384650D02*
X8706396Y-17384650D01*
X8706396Y-17384650D02*
X8725444Y-17394174D01*
X8725444Y-17394174D02*
X8734968Y-17413222D01*
X8734968Y-17413222D02*
X8734968Y-17432270D01*
X8734968Y-17432270D02*
X8639730Y-17451317D01*
X8811158Y-17508460D02*
X8830206Y-17517984D01*
X8830206Y-17517984D02*
X8868301Y-17517984D01*
X8868301Y-17517984D02*
X8887349Y-17508460D01*
X8887349Y-17508460D02*
X8896873Y-17489412D01*
X8896873Y-17489412D02*
X8896873Y-17479889D01*
X8896873Y-17479889D02*
X8887349Y-17460841D01*
X8887349Y-17460841D02*
X8868301Y-17451317D01*
X8868301Y-17451317D02*
X8839730Y-17451317D01*
X8839730Y-17451317D02*
X8820682Y-17441793D01*
X8820682Y-17441793D02*
X8811158Y-17422746D01*
X8811158Y-17422746D02*
X8811158Y-17413222D01*
X8811158Y-17413222D02*
X8820682Y-17394174D01*
X8820682Y-17394174D02*
X8839730Y-17384650D01*
X8839730Y-17384650D02*
X8868301Y-17384650D01*
X8868301Y-17384650D02*
X8887349Y-17394174D01*
X8963539Y-17594174D02*
X8973063Y-17584650D01*
X8973063Y-17584650D02*
X8992111Y-17556079D01*
X8992111Y-17556079D02*
X9001634Y-17537031D01*
X9001634Y-17537031D02*
X9011158Y-17508460D01*
X9011158Y-17508460D02*
X9020682Y-17460841D01*
X9020682Y-17460841D02*
X9020682Y-17422746D01*
X9020682Y-17422746D02*
X9011158Y-17375127D01*
X9011158Y-17375127D02*
X9001634Y-17346555D01*
X9001634Y-17346555D02*
X8992111Y-17327508D01*
X8992111Y-17327508D02*
X8973063Y-17298936D01*
X8973063Y-17298936D02*
X8963539Y-17289412D01*
D13*
X3981891Y-17729391D02*
X3981891Y-17651609D01*
X3904109Y-17651609D01*
X3904109Y-17729391D01*
X3981891Y-17729391D01*
D11*
X4363539Y-17781984D02*
X4249253Y-17781984D01*
X4306396Y-17781984D02*
X4306396Y-17581984D01*
X4306396Y-17581984D02*
X4287348Y-17610555D01*
X4287348Y-17610555D02*
X4268301Y-17629603D01*
X4268301Y-17629603D02*
X4249253Y-17639127D01*
X4449253Y-17762936D02*
X4458777Y-17772460D01*
X4458777Y-17772460D02*
X4449253Y-17781984D01*
X4449253Y-17781984D02*
X4439729Y-17772460D01*
X4439729Y-17772460D02*
X4449253Y-17762936D01*
X4449253Y-17762936D02*
X4449253Y-17781984D01*
X4649253Y-17781984D02*
X4534967Y-17781984D01*
X4592110Y-17781984D02*
X4592110Y-17581984D01*
X4592110Y-17581984D02*
X4573063Y-17610555D01*
X4573063Y-17610555D02*
X4554015Y-17629603D01*
X4554015Y-17629603D02*
X4534967Y-17639127D01*
X4773063Y-17581984D02*
X4792110Y-17581984D01*
X4792110Y-17581984D02*
X4811158Y-17591508D01*
X4811158Y-17591508D02*
X4820682Y-17601031D01*
X4820682Y-17601031D02*
X4830205Y-17620079D01*
X4830205Y-17620079D02*
X4839729Y-17658174D01*
X4839729Y-17658174D02*
X4839729Y-17705793D01*
X4839729Y-17705793D02*
X4830205Y-17743889D01*
X4830205Y-17743889D02*
X4820682Y-17762936D01*
X4820682Y-17762936D02*
X4811158Y-17772460D01*
X4811158Y-17772460D02*
X4792110Y-17781984D01*
X4792110Y-17781984D02*
X4773063Y-17781984D01*
X4773063Y-17781984D02*
X4754015Y-17772460D01*
X4754015Y-17772460D02*
X4744491Y-17762936D01*
X4744491Y-17762936D02*
X4734967Y-17743889D01*
X4734967Y-17743889D02*
X4725444Y-17705793D01*
X4725444Y-17705793D02*
X4725444Y-17658174D01*
X4725444Y-17658174D02*
X4734967Y-17620079D01*
X4734967Y-17620079D02*
X4744491Y-17601031D01*
X4744491Y-17601031D02*
X4754015Y-17591508D01*
X4754015Y-17591508D02*
X4773063Y-17581984D01*
X4963539Y-17581984D02*
X4982586Y-17581984D01*
X4982586Y-17581984D02*
X5001634Y-17591508D01*
X5001634Y-17591508D02*
X5011158Y-17601031D01*
X5011158Y-17601031D02*
X5020682Y-17620079D01*
X5020682Y-17620079D02*
X5030205Y-17658174D01*
X5030205Y-17658174D02*
X5030205Y-17705793D01*
X5030205Y-17705793D02*
X5020682Y-17743889D01*
X5020682Y-17743889D02*
X5011158Y-17762936D01*
X5011158Y-17762936D02*
X5001634Y-17772460D01*
X5001634Y-17772460D02*
X4982586Y-17781984D01*
X4982586Y-17781984D02*
X4963539Y-17781984D01*
X4963539Y-17781984D02*
X4944491Y-17772460D01*
X4944491Y-17772460D02*
X4934967Y-17762936D01*
X4934967Y-17762936D02*
X4925444Y-17743889D01*
X4925444Y-17743889D02*
X4915920Y-17705793D01*
X4915920Y-17705793D02*
X4915920Y-17658174D01*
X4915920Y-17658174D02*
X4925444Y-17620079D01*
X4925444Y-17620079D02*
X4934967Y-17601031D01*
X4934967Y-17601031D02*
X4944491Y-17591508D01*
X4944491Y-17591508D02*
X4963539Y-17581984D01*
X5115920Y-17781984D02*
X5115920Y-17648650D01*
X5115920Y-17667698D02*
X5125444Y-17658174D01*
X5125444Y-17658174D02*
X5144491Y-17648650D01*
X5144491Y-17648650D02*
X5173063Y-17648650D01*
X5173063Y-17648650D02*
X5192110Y-17658174D01*
X5192110Y-17658174D02*
X5201634Y-17677222D01*
X5201634Y-17677222D02*
X5201634Y-17781984D01*
X5201634Y-17677222D02*
X5211158Y-17658174D01*
X5211158Y-17658174D02*
X5230205Y-17648650D01*
X5230205Y-17648650D02*
X5258777Y-17648650D01*
X5258777Y-17648650D02*
X5277825Y-17658174D01*
X5277825Y-17658174D02*
X5287348Y-17677222D01*
X5287348Y-17677222D02*
X5287348Y-17781984D01*
X5382586Y-17781984D02*
X5382586Y-17648650D01*
X5382586Y-17667698D02*
X5392110Y-17658174D01*
X5392110Y-17658174D02*
X5411158Y-17648650D01*
X5411158Y-17648650D02*
X5439729Y-17648650D01*
X5439729Y-17648650D02*
X5458777Y-17658174D01*
X5458777Y-17658174D02*
X5468301Y-17677222D01*
X5468301Y-17677222D02*
X5468301Y-17781984D01*
X5468301Y-17677222D02*
X5477825Y-17658174D01*
X5477825Y-17658174D02*
X5496872Y-17648650D01*
X5496872Y-17648650D02*
X5525444Y-17648650D01*
X5525444Y-17648650D02*
X5544491Y-17658174D01*
X5544491Y-17658174D02*
X5554015Y-17677222D01*
X5554015Y-17677222D02*
X5554015Y-17781984D01*
X5944491Y-17572460D02*
X5773063Y-17829603D01*
X6201634Y-17581984D02*
X6220682Y-17581984D01*
X6220682Y-17581984D02*
X6239729Y-17591508D01*
X6239729Y-17591508D02*
X6249253Y-17601031D01*
X6249253Y-17601031D02*
X6258777Y-17620079D01*
X6258777Y-17620079D02*
X6268301Y-17658174D01*
X6268301Y-17658174D02*
X6268301Y-17705793D01*
X6268301Y-17705793D02*
X6258777Y-17743889D01*
X6258777Y-17743889D02*
X6249253Y-17762936D01*
X6249253Y-17762936D02*
X6239729Y-17772460D01*
X6239729Y-17772460D02*
X6220682Y-17781984D01*
X6220682Y-17781984D02*
X6201634Y-17781984D01*
X6201634Y-17781984D02*
X6182586Y-17772460D01*
X6182586Y-17772460D02*
X6173063Y-17762936D01*
X6173063Y-17762936D02*
X6163539Y-17743889D01*
X6163539Y-17743889D02*
X6154015Y-17705793D01*
X6154015Y-17705793D02*
X6154015Y-17658174D01*
X6154015Y-17658174D02*
X6163539Y-17620079D01*
X6163539Y-17620079D02*
X6173063Y-17601031D01*
X6173063Y-17601031D02*
X6182586Y-17591508D01*
X6182586Y-17591508D02*
X6201634Y-17581984D01*
X6354015Y-17762936D02*
X6363539Y-17772460D01*
X6363539Y-17772460D02*
X6354015Y-17781984D01*
X6354015Y-17781984D02*
X6344491Y-17772460D01*
X6344491Y-17772460D02*
X6354015Y-17762936D01*
X6354015Y-17762936D02*
X6354015Y-17781984D01*
X6487348Y-17581984D02*
X6506396Y-17581984D01*
X6506396Y-17581984D02*
X6525444Y-17591508D01*
X6525444Y-17591508D02*
X6534967Y-17601031D01*
X6534967Y-17601031D02*
X6544491Y-17620079D01*
X6544491Y-17620079D02*
X6554015Y-17658174D01*
X6554015Y-17658174D02*
X6554015Y-17705793D01*
X6554015Y-17705793D02*
X6544491Y-17743889D01*
X6544491Y-17743889D02*
X6534967Y-17762936D01*
X6534967Y-17762936D02*
X6525444Y-17772460D01*
X6525444Y-17772460D02*
X6506396Y-17781984D01*
X6506396Y-17781984D02*
X6487348Y-17781984D01*
X6487348Y-17781984D02*
X6468301Y-17772460D01*
X6468301Y-17772460D02*
X6458777Y-17762936D01*
X6458777Y-17762936D02*
X6449253Y-17743889D01*
X6449253Y-17743889D02*
X6439729Y-17705793D01*
X6439729Y-17705793D02*
X6439729Y-17658174D01*
X6439729Y-17658174D02*
X6449253Y-17620079D01*
X6449253Y-17620079D02*
X6458777Y-17601031D01*
X6458777Y-17601031D02*
X6468301Y-17591508D01*
X6468301Y-17591508D02*
X6487348Y-17581984D01*
X6725444Y-17648650D02*
X6725444Y-17781984D01*
X6677825Y-17572460D02*
X6630206Y-17715317D01*
X6630206Y-17715317D02*
X6754015Y-17715317D01*
X6811158Y-17581984D02*
X6934967Y-17581984D01*
X6934967Y-17581984D02*
X6868301Y-17658174D01*
X6868301Y-17658174D02*
X6896872Y-17658174D01*
X6896872Y-17658174D02*
X6915920Y-17667698D01*
X6915920Y-17667698D02*
X6925444Y-17677222D01*
X6925444Y-17677222D02*
X6934967Y-17696270D01*
X6934967Y-17696270D02*
X6934967Y-17743889D01*
X6934967Y-17743889D02*
X6925444Y-17762936D01*
X6925444Y-17762936D02*
X6915920Y-17772460D01*
X6915920Y-17772460D02*
X6896872Y-17781984D01*
X6896872Y-17781984D02*
X6839729Y-17781984D01*
X6839729Y-17781984D02*
X6820682Y-17772460D01*
X6820682Y-17772460D02*
X6811158Y-17762936D01*
X7001634Y-17581984D02*
X7125444Y-17581984D01*
X7125444Y-17581984D02*
X7058777Y-17658174D01*
X7058777Y-17658174D02*
X7087348Y-17658174D01*
X7087348Y-17658174D02*
X7106396Y-17667698D01*
X7106396Y-17667698D02*
X7115920Y-17677222D01*
X7115920Y-17677222D02*
X7125444Y-17696270D01*
X7125444Y-17696270D02*
X7125444Y-17743889D01*
X7125444Y-17743889D02*
X7115920Y-17762936D01*
X7115920Y-17762936D02*
X7106396Y-17772460D01*
X7106396Y-17772460D02*
X7087348Y-17781984D01*
X7087348Y-17781984D02*
X7030206Y-17781984D01*
X7030206Y-17781984D02*
X7011158Y-17772460D01*
X7011158Y-17772460D02*
X7001634Y-17762936D01*
X7201634Y-17581984D02*
X7201634Y-17620079D01*
X7277825Y-17581984D02*
X7277825Y-17620079D01*
X7573063Y-17858174D02*
X7563539Y-17848650D01*
X7563539Y-17848650D02*
X7544491Y-17820079D01*
X7544491Y-17820079D02*
X7534968Y-17801031D01*
X7534968Y-17801031D02*
X7525444Y-17772460D01*
X7525444Y-17772460D02*
X7515920Y-17724841D01*
X7515920Y-17724841D02*
X7515920Y-17686746D01*
X7515920Y-17686746D02*
X7525444Y-17639127D01*
X7525444Y-17639127D02*
X7534968Y-17610555D01*
X7534968Y-17610555D02*
X7544491Y-17591508D01*
X7544491Y-17591508D02*
X7563539Y-17562936D01*
X7563539Y-17562936D02*
X7573063Y-17553412D01*
X7744491Y-17581984D02*
X7649253Y-17581984D01*
X7649253Y-17581984D02*
X7639729Y-17677222D01*
X7639729Y-17677222D02*
X7649253Y-17667698D01*
X7649253Y-17667698D02*
X7668301Y-17658174D01*
X7668301Y-17658174D02*
X7715920Y-17658174D01*
X7715920Y-17658174D02*
X7734968Y-17667698D01*
X7734968Y-17667698D02*
X7744491Y-17677222D01*
X7744491Y-17677222D02*
X7754015Y-17696270D01*
X7754015Y-17696270D02*
X7754015Y-17743889D01*
X7754015Y-17743889D02*
X7744491Y-17762936D01*
X7744491Y-17762936D02*
X7734968Y-17772460D01*
X7734968Y-17772460D02*
X7715920Y-17781984D01*
X7715920Y-17781984D02*
X7668301Y-17781984D01*
X7668301Y-17781984D02*
X7649253Y-17772460D01*
X7649253Y-17772460D02*
X7639729Y-17762936D01*
X7992110Y-17781984D02*
X7992110Y-17581984D01*
X8077825Y-17781984D02*
X8077825Y-17677222D01*
X8077825Y-17677222D02*
X8068301Y-17658174D01*
X8068301Y-17658174D02*
X8049253Y-17648650D01*
X8049253Y-17648650D02*
X8020682Y-17648650D01*
X8020682Y-17648650D02*
X8001634Y-17658174D01*
X8001634Y-17658174D02*
X7992110Y-17667698D01*
X8201634Y-17781984D02*
X8182587Y-17772460D01*
X8182587Y-17772460D02*
X8173063Y-17762936D01*
X8173063Y-17762936D02*
X8163539Y-17743889D01*
X8163539Y-17743889D02*
X8163539Y-17686746D01*
X8163539Y-17686746D02*
X8173063Y-17667698D01*
X8173063Y-17667698D02*
X8182587Y-17658174D01*
X8182587Y-17658174D02*
X8201634Y-17648650D01*
X8201634Y-17648650D02*
X8230206Y-17648650D01*
X8230206Y-17648650D02*
X8249253Y-17658174D01*
X8249253Y-17658174D02*
X8258777Y-17667698D01*
X8258777Y-17667698D02*
X8268301Y-17686746D01*
X8268301Y-17686746D02*
X8268301Y-17743889D01*
X8268301Y-17743889D02*
X8258777Y-17762936D01*
X8258777Y-17762936D02*
X8249253Y-17772460D01*
X8249253Y-17772460D02*
X8230206Y-17781984D01*
X8230206Y-17781984D02*
X8201634Y-17781984D01*
X8382587Y-17781984D02*
X8363539Y-17772460D01*
X8363539Y-17772460D02*
X8354015Y-17753412D01*
X8354015Y-17753412D02*
X8354015Y-17581984D01*
X8534968Y-17772460D02*
X8515920Y-17781984D01*
X8515920Y-17781984D02*
X8477825Y-17781984D01*
X8477825Y-17781984D02*
X8458777Y-17772460D01*
X8458777Y-17772460D02*
X8449253Y-17753412D01*
X8449253Y-17753412D02*
X8449253Y-17677222D01*
X8449253Y-17677222D02*
X8458777Y-17658174D01*
X8458777Y-17658174D02*
X8477825Y-17648650D01*
X8477825Y-17648650D02*
X8515920Y-17648650D01*
X8515920Y-17648650D02*
X8534968Y-17658174D01*
X8534968Y-17658174D02*
X8544492Y-17677222D01*
X8544492Y-17677222D02*
X8544492Y-17696270D01*
X8544492Y-17696270D02*
X8449253Y-17715317D01*
X8620682Y-17772460D02*
X8639730Y-17781984D01*
X8639730Y-17781984D02*
X8677825Y-17781984D01*
X8677825Y-17781984D02*
X8696873Y-17772460D01*
X8696873Y-17772460D02*
X8706396Y-17753412D01*
X8706396Y-17753412D02*
X8706396Y-17743889D01*
X8706396Y-17743889D02*
X8696873Y-17724841D01*
X8696873Y-17724841D02*
X8677825Y-17715317D01*
X8677825Y-17715317D02*
X8649253Y-17715317D01*
X8649253Y-17715317D02*
X8630206Y-17705793D01*
X8630206Y-17705793D02*
X8620682Y-17686746D01*
X8620682Y-17686746D02*
X8620682Y-17677222D01*
X8620682Y-17677222D02*
X8630206Y-17658174D01*
X8630206Y-17658174D02*
X8649253Y-17648650D01*
X8649253Y-17648650D02*
X8677825Y-17648650D01*
X8677825Y-17648650D02*
X8696873Y-17658174D01*
X8773063Y-17858174D02*
X8782587Y-17848650D01*
X8782587Y-17848650D02*
X8801634Y-17820079D01*
X8801634Y-17820079D02*
X8811158Y-17801031D01*
X8811158Y-17801031D02*
X8820682Y-17772460D01*
X8820682Y-17772460D02*
X8830206Y-17724841D01*
X8830206Y-17724841D02*
X8830206Y-17686746D01*
X8830206Y-17686746D02*
X8820682Y-17639127D01*
X8820682Y-17639127D02*
X8811158Y-17610555D01*
X8811158Y-17610555D02*
X8801634Y-17591508D01*
X8801634Y-17591508D02*
X8782587Y-17562936D01*
X8782587Y-17562936D02*
X8773063Y-17553412D01*
M02*
