%TF.GenerationSoftware,KiCad,Pcbnew,9.0.6*%
%TF.CreationDate,2025-11-21T06:24:55-05:00*%
%TF.ProjectId,sch,7363682e-6b69-4636-9164-5f7063625858,1.0*%
%TF.SameCoordinates,Original*%
%TF.FileFunction,Paste,Top*%
%TF.FilePolarity,Positive*%
%FSLAX46Y46*%
G04 Gerber Fmt 4.6, Leading zero omitted, Abs format (unit mm)*
G04 Created by KiCad (PCBNEW 9.0.6) date 2025-11-21 06:24:55*
%MOMM*%
%LPD*%
G01*
G04 APERTURE LIST*
G04 Aperture macros list*
%AMRoundRect*
0 Rectangle with rounded corners*
0 $1 Rounding radius*
0 $2 $3 $4 $5 $6 $7 $8 $9 X,Y pos of 4 corners*
0 Add a 4 corners polygon primitive as box body*
4,1,4,$2,$3,$4,$5,$6,$7,$8,$9,$2,$3,0*
0 Add four circle primitives for the rounded corners*
1,1,$1+$1,$2,$3*
1,1,$1+$1,$4,$5*
1,1,$1+$1,$6,$7*
1,1,$1+$1,$8,$9*
0 Add four rect primitives between the rounded corners*
20,1,$1+$1,$2,$3,$4,$5,0*
20,1,$1+$1,$4,$5,$6,$7,0*
20,1,$1+$1,$6,$7,$8,$9,0*
20,1,$1+$1,$8,$9,$2,$3,0*%
G04 Aperture macros list end*
%ADD10RoundRect,0.150000X-0.587500X-0.150000X0.587500X-0.150000X0.587500X0.150000X-0.587500X0.150000X0*%
%ADD11RoundRect,0.150000X0.587500X0.150000X-0.587500X0.150000X-0.587500X-0.150000X0.587500X-0.150000X0*%
%ADD12RoundRect,0.090000X-0.090000X0.139000X-0.090000X-0.139000X0.090000X-0.139000X0.090000X0.139000X0*%
%ADD13RoundRect,0.090000X0.090000X-0.139000X0.090000X0.139000X-0.090000X0.139000X-0.090000X-0.139000X0*%
%ADD14RoundRect,0.225000X0.375000X-0.225000X0.375000X0.225000X-0.375000X0.225000X-0.375000X-0.225000X0*%
%ADD15RoundRect,0.225000X-0.375000X0.225000X-0.375000X-0.225000X0.375000X-0.225000X0.375000X0.225000X0*%
%ADD16RoundRect,0.090000X-0.139000X-0.090000X0.139000X-0.090000X0.139000X0.090000X-0.139000X0.090000X0*%
%ADD17RoundRect,0.090000X0.139000X0.090000X-0.139000X0.090000X-0.139000X-0.090000X0.139000X-0.090000X0*%
G04 APERTURE END LIST*
D10*
%TO.C,Q5*%
X125793500Y-61473000D03*
X125793500Y-63373000D03*
X127668500Y-62423000D03*
%TD*%
D11*
%TO.C,Q4*%
X133383500Y-50124000D03*
X133383500Y-48224000D03*
X131508500Y-49174000D03*
%TD*%
D12*
%TO.C,R5*%
X72700000Y-148703050D03*
X72700000Y-149568050D03*
%TD*%
%TO.C,R17*%
X128587500Y-50292000D03*
X128587500Y-51157000D03*
%TD*%
D13*
%TO.C,R9*%
X75240000Y-156960550D03*
X75240000Y-156095550D03*
%TD*%
D14*
%TO.C,D2*%
X140525500Y-62356000D03*
X140525500Y-59056000D03*
%TD*%
D11*
%TO.C,Q3*%
X126809500Y-50185000D03*
X126809500Y-48285000D03*
X124934500Y-49235000D03*
%TD*%
D15*
%TO.C,D1*%
X137858500Y-59056000D03*
X137858500Y-62356000D03*
%TD*%
D12*
%TO.C,R7*%
X67620000Y-148753850D03*
X67620000Y-149618850D03*
%TD*%
D16*
%TO.C,R22*%
X124420500Y-60010000D03*
X125285500Y-60010000D03*
%TD*%
D12*
%TO.C,R1*%
X82860000Y-148703050D03*
X82860000Y-149568050D03*
%TD*%
D17*
%TO.C,R15*%
X131914500Y-54229000D03*
X131049500Y-54229000D03*
%TD*%
D16*
%TO.C,C4*%
X60781500Y-113665000D03*
X61646500Y-113665000D03*
%TD*%
%TO.C,R14*%
X124599000Y-54229000D03*
X125464000Y-54229000D03*
%TD*%
D12*
%TO.C,R19*%
X135064500Y-47192500D03*
X135064500Y-48057500D03*
%TD*%
%TO.C,R8*%
X65080000Y-148703050D03*
X65080000Y-149568050D03*
%TD*%
D10*
%TO.C,Q2*%
X132427500Y-55692000D03*
X132427500Y-57592000D03*
X134302500Y-56642000D03*
%TD*%
D13*
%TO.C,R12*%
X82860000Y-156960550D03*
X82860000Y-156095550D03*
%TD*%
D12*
%TO.C,R4*%
X75240000Y-148703050D03*
X75240000Y-149568050D03*
%TD*%
D13*
%TO.C,R10*%
X77780000Y-156934450D03*
X77780000Y-156069450D03*
%TD*%
D17*
%TO.C,R13*%
X114022000Y-62865000D03*
X113157000Y-62865000D03*
%TD*%
%TO.C,C3*%
X123297500Y-100012500D03*
X122432500Y-100012500D03*
%TD*%
D12*
%TO.C,R2*%
X80320000Y-148703050D03*
X80320000Y-149568050D03*
%TD*%
D13*
%TO.C,R11*%
X80320000Y-156961650D03*
X80320000Y-156096650D03*
%TD*%
D12*
%TO.C,R6*%
X70160000Y-148701950D03*
X70160000Y-149566950D03*
%TD*%
%TO.C,R18*%
X128587500Y-47192500D03*
X128587500Y-48057500D03*
%TD*%
D17*
%TO.C,C5*%
X64567500Y-111506000D03*
X63702500Y-111506000D03*
%TD*%
D16*
%TO.C,R24*%
X121536500Y-155702000D03*
X122401500Y-155702000D03*
%TD*%
D10*
%TO.C,Q6*%
X132222000Y-61407000D03*
X132222000Y-63307000D03*
X134097000Y-62357000D03*
%TD*%
%TO.C,Q1*%
X125823500Y-55692000D03*
X125823500Y-57592000D03*
X127698500Y-56642000D03*
%TD*%
D13*
%TO.C,R16*%
X135064500Y-51130500D03*
X135064500Y-50265500D03*
%TD*%
D16*
%TO.C,C2*%
X45668500Y-50038000D03*
X46533500Y-50038000D03*
%TD*%
D12*
%TO.C,R3*%
X77780000Y-148703050D03*
X77780000Y-149568050D03*
%TD*%
D16*
%TO.C,R21*%
X130997500Y-59944000D03*
X131862500Y-59944000D03*
%TD*%
M02*
